BouazziMaghribi-Regular.ufo
<glyph name="exclam" format="2">
  <advance width="174"/>
  <unicode hex="0021"/>
  <outline>
    <contour>
      <point x="51" y="544" type="line" smooth="yes"/>
      <point x="48" y="582"/>
      <point x="52" y="601"/>
      <point x="98" y="601" type="curve" smooth="yes"/>
      <point x="145" y="601"/>
      <point x="149" y="582"/>
      <point x="145" y="544" type="curve" smooth="yes"/>
      <point x="110" y="178" type="line"/>
      <point x="85" y="178" type="line"/>
    </contour>
    <component base="period" xScale="0.85" yScale="0.85" xOffset="-15"/>
  </outline>
</glyph>
<glyph name="numbersign" format="2">
  <advance width="448"/>
  <unicode hex="0023"/>
  <outline>
    <contour>
      <point x="8" y="197" type="line"/>
      <point x="19" y="236" type="line"/>
      <point x="109" y="236" type="line"/>
      <point x="137" y="349" type="line"/>
      <point x="46" y="349" type="line"/>
      <point x="56" y="388" type="line"/>
      <point x="146" y="388" type="line"/>
      <point x="190" y="568" type="line"/>
      <point x="236" y="568" type="line"/>
      <point x="192" y="388" type="line"/>
      <point x="307" y="388" type="line"/>
      <point x="351" y="568" type="line"/>
      <point x="396" y="568" type="line"/>
      <point x="352" y="388" type="line"/>
      <point x="440" y="388" type="line"/>
      <point x="432" y="349" type="line"/>
      <point x="342" y="349" type="line"/>
      <point x="314" y="236" type="line"/>
      <point x="403" y="236" type="line"/>
      <point x="394" y="197" type="line"/>
      <point x="305" y="197" type="line"/>
      <point x="257" y="0" type="line"/>
      <point x="211" y="0" type="line"/>
      <point x="260" y="197" type="line"/>
      <point x="145" y="197" type="line"/>
      <point x="97" y="0" type="line"/>
      <point x="50" y="0" type="line"/>
      <point x="99" y="197" type="line"/>
    </contour>
    <contour>
      <point x="155" y="236" type="line"/>
      <point x="269" y="236" type="line"/>
      <point x="297" y="349" type="line"/>
      <point x="183" y="349" type="line"/>
    </contour>
  </outline>
</glyph>
<glyph name="dollar" format="2">
  <advance width="439"/>
  <unicode hex="0024"/>
  <outline>
    <contour>
      <point x="31" y="94" type="curve" smooth="yes"/>
      <point x="31" y="119"/>
      <point x="54" y="137"/>
      <point x="71" y="137" type="curve" smooth="yes"/>
      <point x="82" y="137"/>
      <point x="89" y="130"/>
      <point x="95" y="118" type="curve" smooth="yes"/>
      <point x="130" y="46"/>
      <point x="173" y="31"/>
      <point x="201" y="30" type="curve"/>
      <point x="201" y="264" type="line"/>
      <point x="82" y="299"/>
      <point x="42" y="353"/>
      <point x="42" y="421" type="curve" smooth="yes"/>
      <point x="42" y="520"/>
      <point x="121" y="565"/>
      <point x="201" y="567" type="curve"/>
      <point x="201" y="632" type="line"/>
      <point x="235" y="632" type="line"/>
      <point x="235" y="568" type="line"/>
      <point x="336" y="565"/>
      <point x="383" y="516"/>
      <point x="383" y="480" type="curve" smooth="yes"/>
      <point x="383" y="456"/>
      <point x="358" y="445"/>
      <point x="344" y="445" type="curve" smooth="yes"/>
      <point x="332" y="445"/>
      <point x="326" y="450"/>
      <point x="321" y="462" type="curve" smooth="yes"/>
      <point x="301" y="513"/>
      <point x="269" y="536"/>
      <point x="235" y="538" type="curve"/>
      <point x="235" y="332" type="line"/>
      <point x="348" y="299"/>
      <point x="408" y="247"/>
      <point x="408" y="156" type="curve" smooth="yes"/>
      <point x="408" y="17"/>
      <point x="268" y="0"/>
      <point x="235" y="0" type="curve"/>
      <point x="235" y="-87" type="line"/>
      <point x="201" y="-87" type="line"/>
      <point x="201" y="0" type="line"/>
      <point x="71" y="3"/>
      <point x="31" y="65"/>
    </contour>
    <contour>
      <point x="109" y="444" type="curve" smooth="yes"/>
      <point x="109" y="381"/>
      <point x="157" y="359"/>
      <point x="201" y="344" type="curve"/>
      <point x="201" y="537" type="line"/>
      <point x="164" y="537"/>
      <point x="109" y="513"/>
    </contour>
    <contour>
      <point x="235" y="30" type="line"/>
      <point x="276" y="29"/>
      <point x="334" y="50"/>
      <point x="334" y="129" type="curve" smooth="yes"/>
      <point x="334" y="205"/>
      <point x="291" y="235"/>
      <point x="235" y="253" type="curve"/>
    </contour>
  </outline>
</glyph>
<glyph name="percent" format="2">
  <advance width="701"/>
  <unicode hex="0025"/>
  <outline>
    <contour>
      <point x="37" y="422" type="curve" smooth="yes"/>
      <point x="37" y="520"/>
      <point x="80" y="578"/>
      <point x="170" y="578" type="curve" smooth="yes"/>
      <point x="213" y="578"/>
      <point x="241" y="566"/>
      <point x="264" y="549" type="curve" smooth="yes"/>
      <point x="277" y="541"/>
      <point x="281" y="538"/>
      <point x="301" y="538" type="curve" smooth="yes"/>
      <point x="445" y="538" type="line" smooth="yes"/>
      <point x="473" y="540"/>
      <point x="490" y="545"/>
      <point x="505" y="566" type="curve" smooth="yes"/>
      <point x="525" y="595" type="line"/>
      <point x="554" y="577" type="line"/>
      <point x="180" y="-21" type="line"/>
      <point x="150" y="2" type="line"/>
      <point x="467" y="511" type="line"/>
      <point x="293" y="511" type="line"/>
      <point x="299" y="495"/>
      <point x="304" y="467"/>
      <point x="304" y="422" type="curve" smooth="yes"/>
      <point x="304" y="325"/>
      <point x="261" y="267"/>
      <point x="170" y="267" type="curve" smooth="yes"/>
      <point x="80" y="267"/>
      <point x="37" y="325"/>
    </contour>
    <contour>
      <point x="99" y="422" type="curve" smooth="yes"/>
      <point x="99" y="341"/>
      <point x="126" y="294"/>
      <point x="170" y="294" type="curve" smooth="yes"/>
      <point x="215" y="294"/>
      <point x="241" y="341"/>
      <point x="241" y="422" type="curve" smooth="yes"/>
      <point x="241" y="511"/>
      <point x="213" y="551"/>
      <point x="170" y="551" type="curve" smooth="yes"/>
      <point x="127" y="551"/>
      <point x="99" y="511"/>
    </contour>
    <contour>
      <point x="396" y="145" type="curve" smooth="yes"/>
      <point x="396" y="243"/>
      <point x="439" y="301"/>
      <point x="530" y="301" type="curve" smooth="yes"/>
      <point x="620" y="301"/>
      <point x="664" y="243"/>
      <point x="664" y="145" type="curve" smooth="yes"/>
      <point x="664" y="48"/>
      <point x="620" y="-10"/>
      <point x="530" y="-10" type="curve" smooth="yes"/>
      <point x="439" y="-10"/>
      <point x="396" y="48"/>
    </contour>
    <contour>
      <point x="459" y="145" type="curve" smooth="yes"/>
      <point x="459" y="64"/>
      <point x="485" y="17"/>
      <point x="530" y="17" type="curve" smooth="yes"/>
      <point x="575" y="17"/>
      <point x="601" y="64"/>
      <point x="601" y="145" type="curve" smooth="yes"/>
      <point x="601" y="234"/>
      <point x="573" y="274"/>
      <point x="530" y="274" type="curve" smooth="yes"/>
      <point x="487" y="274"/>
      <point x="459" y="234"/>
    </contour>
  </outline>
</glyph>
<glyph name="ampersand" format="2">
  <advance width="615"/>
  <unicode hex="0026"/>
  <outline>
    <contour>
      <point x="33" y="150" type="curve" smooth="yes"/>
      <point x="33" y="233"/>
      <point x="100" y="276"/>
      <point x="157" y="311" type="curve"/>
      <point x="130" y="345"/>
      <point x="101" y="385"/>
      <point x="101" y="443" type="curve" smooth="yes"/>
      <point x="101" y="517"/>
      <point x="160" y="578"/>
      <point x="240" y="578" type="curve" smooth="yes"/>
      <point x="309" y="578"/>
      <point x="365" y="536"/>
      <point x="365" y="461" type="curve" smooth="yes"/>
      <point x="365" y="393"/>
      <point x="308" y="360"/>
      <point x="241" y="325" type="curve"/>
      <point x="290" y="265"/>
      <point x="343" y="207"/>
      <point x="420" y="137" type="curve"/>
      <point x="474" y="200"/>
      <point x="479" y="289"/>
      <point x="472" y="354" type="curve"/>
      <point x="493" y="366"/>
      <point x="517" y="371"/>
      <point x="536" y="368" type="curve"/>
      <point x="556" y="331"/>
      <point x="555" y="307"/>
      <point x="547" y="281" type="curve" smooth="yes"/>
      <point x="528" y="226"/>
      <point x="493" y="175"/>
      <point x="442" y="116" type="curve"/>
      <point x="475" y="83"/>
      <point x="541" y="26"/>
      <point x="582" y="15" type="curve"/>
      <point x="578" y="-6" type="line"/>
      <point x="560" y="-4" type="line" smooth="yes"/>
      <point x="508" y="0"/>
      <point x="460" y="10"/>
      <point x="419" y="43" type="curve" smooth="yes"/>
      <point x="395" y="62" type="line"/>
      <point x="339" y="13"/>
      <point x="282" y="-10"/>
      <point x="218" y="-10" type="curve" smooth="yes"/>
      <point x="113" y="-10"/>
      <point x="33" y="48"/>
    </contour>
    <contour>
      <point x="116" y="167" type="curve" smooth="yes"/>
      <point x="116" y="86"/>
      <point x="171" y="31"/>
      <point x="244" y="31" type="curve" smooth="yes"/>
      <point x="299" y="31"/>
      <point x="335" y="51"/>
      <point x="372" y="83" type="curve"/>
      <point x="296" y="152"/>
      <point x="230" y="220"/>
      <point x="174" y="287" type="curve"/>
      <point x="155" y="270"/>
      <point x="116" y="234"/>
    </contour>
    <contour>
      <point x="167" y="464" type="curve" smooth="yes"/>
      <point x="167" y="422"/>
      <point x="187" y="384"/>
      <point x="222" y="345" type="curve"/>
      <point x="269" y="377"/>
      <point x="300" y="417"/>
      <point x="300" y="466" type="curve" smooth="yes"/>
      <point x="300" y="512"/>
      <point x="279" y="548"/>
      <point x="236" y="548" type="curve" smooth="yes"/>
      <point x="200" y="548"/>
      <point x="167" y="515"/>
    </contour>
  </outline>
</glyph>
<glyph name="quotesingle" format="2">
  <advance width="212"/>
  <unicode hex="0027"/>
  <outline>
    <contour>
      <point x="68" y="586" type="line" smooth="yes"/>
      <point x="64" y="616"/>
      <point x="75" y="631"/>
      <point x="106" y="631" type="curve" smooth="yes"/>
      <point x="138" y="631"/>
      <point x="149" y="616"/>
      <point x="144" y="586" type="curve" smooth="yes"/>
      <point x="115" y="394" type="line"/>
      <point x="98" y="394" type="line"/>
    </contour>
  </outline>
</glyph>
<glyph name="parenleft" format="2">
  <advance width="339"/>
  <unicode hex="0028"/>
  <outline>
    <contour>
      <point x="76" y="240" type="curve" smooth="yes"/>
      <point x="76" y="398"/>
      <point x="115" y="582"/>
      <point x="263" y="588" type="curve"/>
      <point x="263" y="567" type="line"/>
      <point x="210" y="556"/>
      <point x="136" y="483"/>
      <point x="136" y="240" type="curve" smooth="yes"/>
      <point x="136" y="-5"/>
      <point x="214" y="-77"/>
      <point x="263" y="-88" type="curve"/>
      <point x="263" y="-109" type="line"/>
      <point x="115" y="-103"/>
      <point x="76" y="82"/>
    </contour>
  </outline>
</glyph>
<glyph name="parenright" format="2">
  <advance width="223"/>
  <unicode hex="0029"/>
  <outline>
    <contour>
      <point x="18" y="-88" type="line"/>
      <point x="68" y="-77"/>
      <point x="146" y="-5"/>
      <point x="146" y="240" type="curve" smooth="yes"/>
      <point x="146" y="483"/>
      <point x="72" y="556"/>
      <point x="18" y="567" type="curve"/>
      <point x="18" y="588" type="line"/>
      <point x="167" y="582"/>
      <point x="205" y="398"/>
      <point x="205" y="240" type="curve" smooth="yes"/>
      <point x="205" y="82"/>
      <point x="167" y="-103"/>
      <point x="18" y="-109" type="curve"/>
    </contour>
  </outline>
</glyph>
<glyph name="asterisk" format="2">
  <advance width="338"/>
  <unicode hex="002A"/>
  <outline>
    <contour>
      <point x="42" y="534" type="curve" smooth="yes"/>
      <point x="55" y="553"/>
      <point x="71" y="551"/>
      <point x="83" y="540" type="curve" smooth="yes"/>
      <point x="148" y="485" type="line" smooth="yes"/>
      <point x="156" y="478"/>
      <point x="162" y="480"/>
      <point x="159" y="495" type="curve" smooth="yes"/>
      <point x="143" y="575" type="line" smooth="yes"/>
      <point x="139" y="592"/>
      <point x="148" y="601"/>
      <point x="169" y="601" type="curve" smooth="yes"/>
      <point x="190" y="601"/>
      <point x="199" y="592"/>
      <point x="195" y="575" type="curve" smooth="yes"/>
      <point x="179" y="495" type="line" smooth="yes"/>
      <point x="176" y="480"/>
      <point x="182" y="478"/>
      <point x="190" y="485" type="curve" smooth="yes"/>
      <point x="256" y="541" type="line" smooth="yes"/>
      <point x="268" y="551"/>
      <point x="285" y="553"/>
      <point x="297" y="534" type="curve" smooth="yes"/>
      <point x="305" y="520"/>
      <point x="306" y="503"/>
      <point x="286" y="496" type="curve" smooth="yes"/>
      <point x="204" y="463" type="line" smooth="yes"/>
      <point x="189" y="458"/>
      <point x="187" y="451"/>
      <point x="201" y="446" type="curve" smooth="yes"/>
      <point x="283" y="413" type="line" smooth="yes"/>
      <point x="302" y="405"/>
      <point x="306" y="388"/>
      <point x="294" y="371" type="curve" smooth="yes"/>
      <point x="283" y="356"/>
      <point x="267" y="354"/>
      <point x="253" y="367" type="curve" smooth="yes"/>
      <point x="192" y="426" type="line" smooth="yes"/>
      <point x="180" y="437"/>
      <point x="177" y="429"/>
      <point x="179" y="416" type="curve" smooth="yes"/>
      <point x="195" y="337" type="line" smooth="yes"/>
      <point x="200" y="317"/>
      <point x="192" y="303"/>
      <point x="169" y="303" type="curve" smooth="yes"/>
      <point x="146" y="303"/>
      <point x="139" y="317"/>
      <point x="143" y="337" type="curve" smooth="yes"/>
      <point x="159" y="416" type="line" smooth="yes"/>
      <point x="161" y="429"/>
      <point x="158" y="437"/>
      <point x="146" y="426" type="curve" smooth="yes"/>
      <point x="85" y="368" type="line" smooth="yes"/>
      <point x="71" y="354"/>
      <point x="55" y="356"/>
      <point x="44" y="371" type="curve" smooth="yes"/>
      <point x="33" y="388"/>
      <point x="37" y="405"/>
      <point x="55" y="413" type="curve" smooth="yes"/>
      <point x="137" y="446" type="line" smooth="yes"/>
      <point x="151" y="451"/>
      <point x="150" y="458"/>
      <point x="134" y="463" type="curve" smooth="yes"/>
      <point x="54" y="495" type="line" smooth="yes"/>
      <point x="32" y="503"/>
      <point x="33" y="520"/>
    </contour>
  </outline>
</glyph>
<glyph name="plus" format="2">
  <advance width="473"/>
  <unicode hex="002B"/>
  <outline>
    <contour>
      <point x="31" y="188" type="line"/>
      <point x="31" y="237" type="line"/>
      <point x="207" y="237" type="line"/>
      <point x="207" y="417" type="line"/>
      <point x="265" y="417" type="line"/>
      <point x="265" y="237" type="line"/>
      <point x="442" y="237" type="line"/>
      <point x="442" y="188" type="line"/>
      <point x="265" y="188" type="line"/>
      <point x="265" y="0" type="line"/>
      <point x="207" y="0" type="line"/>
      <point x="207" y="188" type="line"/>
    </contour>
  </outline>
</glyph>
<glyph name="comma" format="2">
  <advance width="195"/>
  <unicode hex="002C"/>
  <outline>
    <contour>
      <point x="37" y="-104" type="line"/>
      <point x="65" y="-74"/>
      <point x="87" y="-40"/>
      <point x="87" y="-5" type="curve" smooth="yes"/>
      <point x="87" y="31"/>
      <point x="59" y="47"/>
      <point x="59" y="77" type="curve" smooth="yes"/>
      <point x="59" y="99"/>
      <point x="74" y="120"/>
      <point x="100" y="120" type="curve" smooth="yes"/>
      <point x="133" y="120"/>
      <point x="158" y="88"/>
      <point x="158" y="43" type="curve" smooth="yes"/>
      <point x="158" y="-24"/>
      <point x="96" y="-80"/>
      <point x="54" y="-120" type="curve"/>
    </contour>
  </outline>
</glyph>
<glyph name="period" format="2">
  <advance width="209"/>
  <unicode hex="002E"/>
  <outline>
    <contour>
      <point x="104" y="-10" type="curve" smooth="yes"/>
      <point x="137" y="-10"/>
      <point x="157" y="13"/>
      <point x="158" y="43" type="curve" smooth="yes"/>
      <point x="158" y="75"/>
      <point x="137" y="99"/>
      <point x="104" y="99" type="curve" smooth="yes"/>
      <point x="72" y="99"/>
      <point x="51" y="75"/>
      <point x="51" y="43" type="curve" smooth="yes"/>
      <point x="51" y="13"/>
      <point x="72" y="-10"/>
    </contour>
  </outline>
</glyph>
<glyph name="slash" format="2">
  <advance width="368"/>
  <unicode hex="002F"/>
  <outline>
    <contour>
      <point x="66" y="-13" type="line"/>
      <point x="245" y="601" type="line"/>
      <point x="302" y="601" type="line"/>
      <point x="123" y="-13" type="line"/>
    </contour>
  </outline>
</glyph>
<glyph name="zero" format="2">
  <advance width="441"/>
  <unicode hex="0030"/>
  <outline>
    <contour>
      <point x="30" y="284" type="curve" smooth="yes"/>
      <point x="30" y="454"/>
      <point x="80" y="578"/>
      <point x="220" y="578" type="curve" smooth="yes"/>
      <point x="361" y="578"/>
      <point x="411" y="454"/>
      <point x="411" y="284" type="curve" smooth="yes"/>
      <point x="411" y="114"/>
      <point x="361" y="-10"/>
      <point x="220" y="-10" type="curve" smooth="yes"/>
      <point x="80" y="-10"/>
      <point x="30" y="114"/>
    </contour>
    <contour>
      <point x="117" y="284" type="curve" smooth="yes"/>
      <point x="117" y="145"/>
      <point x="140" y="20"/>
      <point x="220" y="20" type="curve" smooth="yes"/>
      <point x="301" y="20"/>
      <point x="324" y="145"/>
      <point x="324" y="284" type="curve" smooth="yes"/>
      <point x="324" y="422"/>
      <point x="301" y="548"/>
      <point x="220" y="548" type="curve" smooth="yes"/>
      <point x="140" y="548"/>
      <point x="117" y="422"/>
    </contour>
  </outline>
</glyph>
<glyph name="one" format="2">
  <advance width="436"/>
  <unicode hex="0031"/>
  <outline>
    <contour>
      <point x="79" y="0" type="line"/>
      <point x="79" y="25" type="line"/>
      <point x="150" y="31" type="line" smooth="yes"/>
      <point x="159" y="31"/>
      <point x="166" y="34"/>
      <point x="170" y="40" type="curve" smooth="yes"/>
      <point x="176" y="46"/>
      <point x="178" y="56"/>
      <point x="178" y="72" type="curve" smooth="yes"/>
      <point x="178" y="485" type="line" smooth="yes"/>
      <point x="178" y="509"/>
      <point x="172" y="516"/>
      <point x="158" y="518" type="curve" smooth="yes"/>
      <point x="79" y="527" type="line"/>
      <point x="79" y="548" type="line"/>
      <point x="254" y="578" type="line"/>
      <point x="258" y="573" type="line"/>
      <point x="258" y="72" type="line" smooth="yes"/>
      <point x="258" y="39"/>
      <point x="268" y="32"/>
      <point x="286" y="31" type="curve" smooth="yes"/>
      <point x="357" y="25" type="line"/>
      <point x="357" y="0" type="line"/>
    </contour>
  </outline>
</glyph>
<glyph name="two" format="2">
  <advance width="429"/>
  <unicode hex="0032"/>
  <outline>
    <contour>
      <point x="20" y="9" type="line"/>
      <point x="36" y="75"/>
      <point x="73" y="133"/>
      <point x="177" y="224" type="curve" smooth="yes"/>
      <point x="251" y="289"/>
      <point x="297" y="340"/>
      <point x="297" y="431" type="curve" smooth="yes"/>
      <point x="297" y="493"/>
      <point x="278" y="548"/>
      <point x="213" y="548" type="curve" smooth="yes"/>
      <point x="160" y="548"/>
      <point x="127" y="502"/>
      <point x="113" y="444" type="curve" smooth="yes"/>
      <point x="110" y="429"/>
      <point x="104" y="421"/>
      <point x="89" y="421" type="curve" smooth="yes"/>
      <point x="74" y="421"/>
      <point x="42" y="434"/>
      <point x="42" y="463" type="curve" smooth="yes"/>
      <point x="42" y="507"/>
      <point x="102" y="578"/>
      <point x="219" y="578" type="curve" smooth="yes"/>
      <point x="308" y="578"/>
      <point x="386" y="537"/>
      <point x="386" y="419" type="curve" smooth="yes"/>
      <point x="386" y="324"/>
      <point x="323" y="286"/>
      <point x="242" y="226" type="curve" smooth="yes"/>
      <point x="163" y="169"/>
      <point x="113" y="109"/>
      <point x="99" y="65" type="curve"/>
      <point x="317" y="65" type="line" smooth="yes"/>
      <point x="351" y="65"/>
      <point x="368" y="71"/>
      <point x="385" y="116" type="curve"/>
      <point x="409" y="112" type="line"/>
      <point x="380" y="0" type="line"/>
      <point x="28" y="0" type="line"/>
    </contour>
  </outline>
</glyph>
<glyph name="three" format="2">
  <advance width="419"/>
  <unicode hex="0033"/>
  <outline>
    <contour>
      <point x="20" y="87" type="curve" smooth="yes"/>
      <point x="20" y="117"/>
      <point x="50" y="133"/>
      <point x="65" y="133" type="curve" smooth="yes"/>
      <point x="77" y="133"/>
      <point x="85" y="126"/>
      <point x="91" y="110" type="curve" smooth="yes"/>
      <point x="107" y="62"/>
      <point x="143" y="20"/>
      <point x="199" y="20" type="curve" smooth="yes"/>
      <point x="260" y="20"/>
      <point x="310" y="55"/>
      <point x="310" y="156" type="curve" smooth="yes"/>
      <point x="310" y="230"/>
      <point x="269" y="296"/>
      <point x="197" y="296" type="curve" smooth="yes"/>
      <point x="156" y="296"/>
      <point x="133" y="287"/>
      <point x="123" y="287" type="curve" smooth="yes"/>
      <point x="112" y="287"/>
      <point x="108" y="297"/>
      <point x="108" y="311" type="curve" smooth="yes"/>
      <point x="108" y="326"/>
      <point x="112" y="335"/>
      <point x="123" y="335" type="curve" smooth="yes"/>
      <point x="133" y="335"/>
      <point x="156" y="326"/>
      <point x="197" y="326" type="curve" smooth="yes"/>
      <point x="269" y="326"/>
      <point x="287" y="390"/>
      <point x="287" y="441" type="curve" smooth="yes"/>
      <point x="287" y="489"/>
      <point x="271" y="548"/>
      <point x="204" y="548" type="curve" smooth="yes"/>
      <point x="156" y="548"/>
      <point x="124" y="511"/>
      <point x="105" y="453" type="curve" smooth="yes"/>
      <point x="102" y="442"/>
      <point x="95" y="436"/>
      <point x="84" y="436" type="curve" smooth="yes"/>
      <point x="72" y="436"/>
      <point x="42" y="451"/>
      <point x="42" y="477" type="curve" smooth="yes"/>
      <point x="42" y="513"/>
      <point x="97" y="578"/>
      <point x="210" y="578" type="curve" smooth="yes"/>
      <point x="300" y="578"/>
      <point x="374" y="536"/>
      <point x="374" y="442" type="curve" smooth="yes"/>
      <point x="374" y="358"/>
      <point x="300" y="324"/>
      <point x="255" y="316" type="curve"/>
      <point x="255" y="313" type="line"/>
      <point x="301" y="309"/>
      <point x="399" y="275"/>
      <point x="399" y="161" type="curve" smooth="yes"/>
      <point x="399" y="52"/>
      <point x="322" y="-10"/>
      <point x="198" y="-10" type="curve" smooth="yes"/>
      <point x="79" y="-10"/>
      <point x="20" y="50"/>
    </contour>
  </outline>
</glyph>
<glyph name="four" format="2">
  <advance width="431"/>
  <unicode hex="0034"/>
  <outline>
    <contour>
      <point x="14" y="170" type="line"/>
      <point x="92" y="303"/>
      <point x="188" y="451"/>
      <point x="267" y="568" type="curve"/>
      <point x="330" y="568" type="line"/>
      <point x="330" y="192" type="line"/>
      <point x="417" y="192" type="line"/>
      <point x="417" y="152" type="line"/>
      <point x="330" y="152" type="line"/>
      <point x="330" y="65" type="line" smooth="yes"/>
      <point x="330" y="37"/>
      <point x="335" y="31"/>
      <point x="355" y="29" type="curve" smooth="yes"/>
      <point x="393" y="25" type="line"/>
      <point x="393" y="0" type="line"/>
      <point x="169" y="0" type="line"/>
      <point x="169" y="25" type="line"/>
      <point x="223" y="30" type="line" smooth="yes"/>
      <point x="244" y="31"/>
      <point x="253" y="37"/>
      <point x="253" y="65" type="curve" smooth="yes"/>
      <point x="253" y="152" type="line"/>
      <point x="22" y="152" type="line"/>
    </contour>
    <contour>
      <point x="75" y="192" type="curve"/>
      <point x="253" y="192" type="line"/>
      <point x="253" y="485" type="line"/>
      <point x="251" y="485" type="line"/>
      <point x="186" y="383"/>
      <point x="126" y="285"/>
    </contour>
  </outline>
</glyph>
<glyph name="five" format="2">
  <advance width="432"/>
  <unicode hex="0035"/>
  <outline>
    <contour>
      <point x="29" y="87" type="curve" smooth="yes"/>
      <point x="29" y="115"/>
      <point x="57" y="132"/>
      <point x="74" y="132" type="curve" smooth="yes"/>
      <point x="86" y="132"/>
      <point x="94" y="124"/>
      <point x="98" y="111" type="curve" smooth="yes"/>
      <point x="115" y="63"/>
      <point x="145" y="20"/>
      <point x="205" y="20" type="curve" smooth="yes"/>
      <point x="279" y="20"/>
      <point x="315" y="86"/>
      <point x="315" y="173" type="curve" smooth="yes"/>
      <point x="315" y="286"/>
      <point x="255" y="326"/>
      <point x="201" y="326" type="curve" smooth="yes"/>
      <point x="155" y="326"/>
      <point x="120" y="306"/>
      <point x="84" y="265" type="curve"/>
      <point x="64" y="275" type="line"/>
      <point x="81" y="560" type="line"/>
      <point x="89" y="568" type="line"/>
      <point x="373" y="568" type="line"/>
      <point x="378" y="561" type="line"/>
      <point x="357" y="503" type="line"/>
      <point x="145" y="503" type="line" smooth="yes"/>
      <point x="129" y="503"/>
      <point x="123" y="500"/>
      <point x="121" y="479" type="curve" smooth="yes"/>
      <point x="101" y="320" type="line"/>
      <point x="103" y="318" type="line"/>
      <point x="130" y="343"/>
      <point x="180" y="363"/>
      <point x="227" y="363" type="curve" smooth="yes"/>
      <point x="328" y="363"/>
      <point x="403" y="302"/>
      <point x="403" y="183" type="curve" smooth="yes"/>
      <point x="403" y="75"/>
      <point x="339" y="-10"/>
      <point x="199" y="-10" type="curve" smooth="yes"/>
      <point x="89" y="-10"/>
      <point x="29" y="48"/>
    </contour>
  </outline>
</glyph>
<glyph name="six" format="2">
  <advance width="449"/>
  <unicode hex="0036"/>
  <outline>
    <contour>
      <point x="31" y="263" type="curve" smooth="yes"/>
      <point x="31" y="474"/>
      <point x="114" y="578"/>
      <point x="249" y="578" type="curve" smooth="yes"/>
      <point x="351" y="578"/>
      <point x="393" y="521"/>
      <point x="393" y="487" type="curve" smooth="yes"/>
      <point x="393" y="463"/>
      <point x="366" y="449"/>
      <point x="348" y="449" type="curve" smooth="yes"/>
      <point x="335" y="449"/>
      <point x="328" y="456"/>
      <point x="326" y="467" type="curve" smooth="yes"/>
      <point x="313" y="515"/>
      <point x="286" y="548"/>
      <point x="246" y="548" type="curve" smooth="yes"/>
      <point x="170" y="548"/>
      <point x="116" y="473"/>
      <point x="116" y="286" type="curve"/>
      <point x="117" y="286" type="line"/>
      <point x="140" y="314"/>
      <point x="189" y="359"/>
      <point x="256" y="359" type="curve" smooth="yes"/>
      <point x="347" y="359"/>
      <point x="418" y="297"/>
      <point x="418" y="182" type="curve" smooth="yes"/>
      <point x="418" y="66"/>
      <point x="351" y="-10"/>
      <point x="225" y="-10" type="curve" smooth="yes"/>
      <point x="98" y="-10"/>
      <point x="31" y="79"/>
    </contour>
    <contour>
      <point x="117" y="201" type="curve" smooth="yes"/>
      <point x="117" y="99"/>
      <point x="153" y="20"/>
      <point x="227" y="20" type="curve" smooth="yes"/>
      <point x="298" y="20"/>
      <point x="333" y="80"/>
      <point x="333" y="169" type="curve" smooth="yes"/>
      <point x="333" y="267"/>
      <point x="280" y="315"/>
      <point x="227" y="315" type="curve" smooth="yes"/>
      <point x="156" y="315"/>
      <point x="117" y="252"/>
    </contour>
  </outline>
</glyph>
<glyph name="seven" format="2">
  <advance width="447"/>
  <unicode hex="0037"/>
  <outline>
    <contour>
      <point x="30" y="449" type="line"/>
      <point x="56" y="568" type="line"/>
      <point x="410" y="568" type="line"/>
      <point x="417" y="558" type="line"/>
      <point x="388" y="451"/>
      <point x="343" y="399"/>
      <point x="288" y="303" type="curve" smooth="yes"/>
      <point x="243" y="224"/>
      <point x="220" y="134"/>
      <point x="225" y="22" type="curve" smooth="yes"/>
      <point x="225" y="-3"/>
      <point x="208" y="-10"/>
      <point x="183" y="-10" type="curve" smooth="yes"/>
      <point x="157" y="-10"/>
      <point x="137" y="-3"/>
      <point x="137" y="25" type="curve" smooth="yes"/>
      <point x="137" y="125"/>
      <point x="185" y="220"/>
      <point x="259" y="325" type="curve" smooth="yes"/>
      <point x="327" y="423"/>
      <point x="343" y="473"/>
      <point x="351" y="503" type="curve"/>
      <point x="122" y="503" type="line" smooth="yes"/>
      <point x="83" y="503"/>
      <point x="72" y="490"/>
      <point x="61" y="467" type="curve" smooth="yes"/>
      <point x="53" y="449" type="line"/>
    </contour>
  </outline>
</glyph>
<glyph name="eight" format="2">
  <advance width="441"/>
  <unicode hex="0038"/>
  <outline>
    <contour>
      <point x="31" y="155" type="curve" smooth="yes"/>
      <point x="31" y="241"/>
      <point x="86" y="291"/>
      <point x="143" y="304" type="curve"/>
      <point x="143" y="307" type="line"/>
      <point x="92" y="320"/>
      <point x="49" y="364"/>
      <point x="49" y="434" type="curve" smooth="yes"/>
      <point x="49" y="525"/>
      <point x="123" y="578"/>
      <point x="220" y="578" type="curve" smooth="yes"/>
      <point x="318" y="578"/>
      <point x="391" y="525"/>
      <point x="391" y="434" type="curve" smooth="yes"/>
      <point x="391" y="364"/>
      <point x="349" y="320"/>
      <point x="298" y="307" type="curve"/>
      <point x="298" y="304" type="line"/>
      <point x="355" y="291"/>
      <point x="410" y="241"/>
      <point x="410" y="155" type="curve" smooth="yes"/>
      <point x="410" y="69"/>
      <point x="358" y="-10"/>
      <point x="220" y="-10" type="curve" smooth="yes"/>
      <point x="83" y="-10"/>
      <point x="31" y="69"/>
    </contour>
    <contour>
      <point x="116" y="152" type="curve" smooth="yes"/>
      <point x="116" y="77"/>
      <point x="149" y="20"/>
      <point x="220" y="20" type="curve" smooth="yes"/>
      <point x="292" y="20"/>
      <point x="325" y="77"/>
      <point x="325" y="152" type="curve" smooth="yes"/>
      <point x="325" y="230"/>
      <point x="288" y="287"/>
      <point x="220" y="287" type="curve" smooth="yes"/>
      <point x="152" y="287"/>
      <point x="116" y="230"/>
    </contour>
    <contour>
      <point x="132" y="435" type="curve" smooth="yes"/>
      <point x="132" y="377"/>
      <point x="159" y="318"/>
      <point x="220" y="318" type="curve" smooth="yes"/>
      <point x="281" y="318"/>
      <point x="309" y="377"/>
      <point x="309" y="435" type="curve" smooth="yes"/>
      <point x="309" y="501"/>
      <point x="278" y="548"/>
      <point x="220" y="548" type="curve" smooth="yes"/>
      <point x="162" y="548"/>
      <point x="132" y="501"/>
    </contour>
  </outline>
</glyph>
<glyph name="nine" format="2">
  <advance width="426"/>
  <unicode hex="0039"/>
  <outline>
    <contour>
      <point x="26" y="388" type="curve" smooth="yes"/>
      <point x="26" y="506"/>
      <point x="104" y="578"/>
      <point x="213" y="578" type="curve" smooth="yes"/>
      <point x="267" y="578"/>
      <point x="314" y="559"/>
      <point x="346" y="521" type="curve" smooth="yes"/>
      <point x="379" y="481"/>
      <point x="400" y="412"/>
      <point x="400" y="307" type="curve" smooth="yes"/>
      <point x="400" y="184"/>
      <point x="379" y="109"/>
      <point x="344" y="60" type="curve" smooth="yes"/>
      <point x="312" y="15"/>
      <point x="259" y="-10"/>
      <point x="191" y="-10" type="curve" smooth="yes"/>
      <point x="88" y="-10"/>
      <point x="43" y="42"/>
      <point x="43" y="79" type="curve" smooth="yes"/>
      <point x="43" y="105"/>
      <point x="66" y="122"/>
      <point x="83" y="122" type="curve" smooth="yes"/>
      <point x="97" y="122"/>
      <point x="103" y="116"/>
      <point x="106" y="105" type="curve" smooth="yes"/>
      <point x="119" y="65"/>
      <point x="140" y="20"/>
      <point x="198" y="20" type="curve" smooth="yes"/>
      <point x="253" y="20"/>
      <point x="282" y="62"/>
      <point x="298" y="118" type="curve" smooth="yes"/>
      <point x="313" y="177"/>
      <point x="317" y="246"/>
      <point x="317" y="299" type="curve"/>
      <point x="315" y="299" type="line"/>
      <point x="287" y="258"/>
      <point x="242" y="228"/>
      <point x="190" y="228" type="curve" smooth="yes"/>
      <point x="102" y="228"/>
      <point x="26" y="282"/>
    </contour>
    <contour>
      <point x="111" y="412" type="curve" smooth="yes"/>
      <point x="111" y="331"/>
      <point x="149" y="273"/>
      <point x="215" y="273" type="curve" smooth="yes"/>
      <point x="260" y="273"/>
      <point x="293" y="300"/>
      <point x="307" y="340" type="curve" smooth="yes"/>
      <point x="312" y="354"/>
      <point x="313" y="371"/>
      <point x="313" y="385" type="curve" smooth="yes"/>
      <point x="313" y="468"/>
      <point x="280" y="548"/>
      <point x="212" y="548" type="curve" smooth="yes"/>
      <point x="145" y="548"/>
      <point x="111" y="490"/>
    </contour>
  </outline>
</glyph>
<glyph name="question" format="2">
  <advance width="322"/>
  <unicode hex="003F"/>
  <outline>
    <contour>
      <point x="21" y="502" type="curve" smooth="yes"/>
      <point x="21" y="530"/>
      <point x="55" y="601"/>
      <point x="167" y="601" type="curve" smooth="yes"/>
      <point x="243" y="601"/>
      <point x="301" y="563"/>
      <point x="301" y="485" type="curve" smooth="yes"/>
      <point x="301" y="418"/>
      <point x="248" y="387"/>
      <point x="220" y="366" type="curve" smooth="yes"/>
      <point x="177" y="337"/>
      <point x="155" y="306"/>
      <point x="155" y="269" type="curve" smooth="yes"/>
      <point x="155" y="222"/>
      <point x="195" y="207"/>
      <point x="213" y="207" type="curve" smooth="yes"/>
      <point x="223" y="207"/>
      <point x="232" y="208"/>
      <point x="238" y="210" type="curve"/>
      <point x="245" y="193" type="line"/>
      <point x="222" y="174"/>
      <point x="190" y="169"/>
      <point x="163" y="169" type="curve" smooth="yes"/>
      <point x="118" y="169"/>
      <point x="73" y="198"/>
      <point x="73" y="252" type="curve" smooth="yes"/>
      <point x="73" y="290"/>
      <point x="90" y="312"/>
      <point x="141" y="351" type="curve" smooth="yes"/>
      <point x="180" y="380"/>
      <point x="217" y="432"/>
      <point x="217" y="485" type="curve" smooth="yes"/>
      <point x="217" y="535"/>
      <point x="202" y="571"/>
      <point x="163" y="571" type="curve" smooth="yes"/>
      <point x="129" y="571"/>
      <point x="105" y="544"/>
      <point x="93" y="480" type="curve" smooth="yes"/>
      <point x="90" y="466"/>
      <point x="78" y="460"/>
      <point x="66" y="460" type="curve" smooth="yes"/>
      <point x="51" y="460"/>
      <point x="21" y="471"/>
    </contour>
    <contour>
      <point x="105" y="43" type="curve" smooth="yes"/>
      <point x="105" y="74"/>
      <point x="127" y="96"/>
      <point x="158" y="96" type="curve" smooth="yes"/>
      <point x="188" y="96"/>
      <point x="210" y="74"/>
      <point x="210" y="43" type="curve" smooth="yes"/>
      <point x="210" y="12"/>
      <point x="188" y="-10"/>
      <point x="158" y="-10" type="curve" smooth="yes"/>
      <point x="127" y="-10"/>
      <point x="105" y="12"/>
    </contour>
  </outline>
</glyph>
<glyph name="A" format="2">
  <advance width="502"/>
  <unicode hex="0041"/>
  <outline>
    <contour>
      <point x="-21" y="0" type="line"/>
      <point x="-21" y="25" type="line"/>
      <point x="33" y="27"/>
      <point x="41" y="37"/>
      <point x="58" y="83" type="curve" smooth="yes"/>
      <point x="88" y="161"/>
      <point x="124" y="263"/>
      <point x="150" y="337" type="curve" smooth="yes"/>
      <point x="239" y="588" type="line"/>
      <point x="302" y="588" type="line"/>
      <point x="483" y="76" type="line" smooth="yes"/>
      <point x="498" y="31"/>
      <point x="507" y="29"/>
      <point x="557" y="25" type="curve"/>
      <point x="557" y="0" type="line"/>
      <point x="339" y="0" type="line"/>
      <point x="339" y="25" type="line"/>
      <point x="377" y="28" type="line" smooth="yes"/>
      <point x="404" y="31"/>
      <point x="409" y="40"/>
      <point x="400" y="65" type="curve" smooth="yes"/>
      <point x="343" y="227" type="line"/>
      <point x="153" y="227" type="line"/>
      <point x="133" y="167"/>
      <point x="115" y="114"/>
      <point x="101" y="63" type="curve" smooth="yes"/>
      <point x="94" y="40"/>
      <point x="97" y="31"/>
      <point x="122" y="29" type="curve" smooth="yes"/>
      <point x="166" y="25" type="line"/>
      <point x="166" y="0" type="line"/>
    </contour>
    <contour>
      <point x="164" y="259" type="curve"/>
      <point x="333" y="259" type="line"/>
      <point x="249" y="502" type="line"/>
      <point x="246" y="502" type="line"/>
      <point x="221" y="428"/>
      <point x="191" y="344"/>
    </contour>
  </outline>
</glyph>
<glyph name="B" format="2">
  <advance width="594"/>
  <unicode hex="0042"/>
  <outline>
    <contour>
      <point x="26" y="0" type="line"/>
      <point x="26" y="25" type="line"/>
      <point x="101" y="30"/>
      <point x="102" y="31"/>
      <point x="102" y="79" type="curve" smooth="yes"/>
      <point x="102" y="509" type="line" smooth="yes"/>
      <point x="102" y="557"/>
      <point x="101" y="558"/>
      <point x="26" y="564" type="curve"/>
      <point x="26" y="588" type="line"/>
      <point x="271" y="588" type="line" smooth="yes"/>
      <point x="339" y="588"/>
      <point x="389" y="580"/>
      <point x="422" y="558" type="curve" smooth="yes"/>
      <point x="456" y="535"/>
      <point x="475" y="500"/>
      <point x="475" y="453" type="curve" smooth="yes"/>
      <point x="475" y="388"/>
      <point x="428" y="338"/>
      <point x="348" y="322" type="curve"/>
      <point x="348" y="320" type="line"/>
      <point x="430" y="309"/>
      <point x="502" y="265"/>
      <point x="502" y="165" type="curve" smooth="yes"/>
      <point x="502" y="47"/>
      <point x="418" y="0"/>
      <point x="289" y="0" type="curve" smooth="yes"/>
    </contour>
    <contour>
      <point x="186" y="95" type="line" smooth="yes"/>
      <point x="186" y="43"/>
      <point x="200" y="30"/>
      <point x="268" y="30" type="curve" smooth="yes"/>
      <point x="341" y="30"/>
      <point x="411" y="57"/>
      <point x="411" y="159" type="curve" smooth="yes"/>
      <point x="411" y="249"/>
      <point x="353" y="302"/>
      <point x="248" y="302" type="curve" smooth="yes"/>
      <point x="186" y="302" type="line"/>
    </contour>
    <contour>
      <point x="186" y="332" type="line"/>
      <point x="243" y="332" type="line" smooth="yes"/>
      <point x="332" y="332"/>
      <point x="385" y="365"/>
      <point x="385" y="448" type="curve" smooth="yes"/>
      <point x="385" y="536"/>
      <point x="317" y="558"/>
      <point x="255" y="558" type="curve" smooth="yes"/>
      <point x="189" y="558"/>
      <point x="186" y="553"/>
      <point x="186" y="516" type="curve" smooth="yes"/>
    </contour>
  </outline>
</glyph>
<glyph name="C" format="2">
  <advance width="627"/>
  <unicode hex="0043"/>
  <outline>
    <contour>
      <point x="35" y="290" type="curve" smooth="yes"/>
      <point x="35" y="386"/>
      <point x="64" y="459"/>
      <point x="112" y="513" type="curve" smooth="yes"/>
      <point x="163" y="570"/>
      <point x="247" y="601"/>
      <point x="352" y="601" type="curve" smooth="yes"/>
      <point x="429" y="601"/>
      <point x="494" y="586"/>
      <point x="532" y="568" type="curve"/>
      <point x="532" y="435" type="line"/>
      <point x="507" y="435" type="line"/>
      <point x="490" y="536"/>
      <point x="430" y="571"/>
      <point x="343" y="571" type="curve" smooth="yes"/>
      <point x="185" y="571"/>
      <point x="130" y="432"/>
      <point x="130" y="292" type="curve" smooth="yes"/>
      <point x="130" y="190"/>
      <point x="167" y="17"/>
      <point x="342" y="17" type="curve" smooth="yes"/>
      <point x="453" y="17"/>
      <point x="496" y="82"/>
      <point x="520" y="170" type="curve"/>
      <point x="546" y="170" type="line"/>
      <point x="534" y="28" type="line"/>
      <point x="493" y="6"/>
      <point x="415" y="-13"/>
      <point x="347" y="-13" type="curve" smooth="yes"/>
      <point x="252" y="-13"/>
      <point x="168" y="7"/>
      <point x="116" y="60" type="curve" smooth="yes"/>
      <point x="65" y="111"/>
      <point x="35" y="190"/>
    </contour>
  </outline>
</glyph>
<glyph name="D" format="2">
  <advance width="717"/>
  <unicode hex="0044"/>
  <outline>
    <contour>
      <point x="26" y="0" type="line"/>
      <point x="26" y="25" type="line"/>
      <point x="101" y="30"/>
      <point x="102" y="31"/>
      <point x="102" y="79" type="curve" smooth="yes"/>
      <point x="102" y="509" type="line" smooth="yes"/>
      <point x="102" y="557"/>
      <point x="101" y="558"/>
      <point x="26" y="564" type="curve"/>
      <point x="26" y="588" type="line"/>
      <point x="308" y="588" type="line" smooth="yes"/>
      <point x="555" y="588"/>
      <point x="617" y="444"/>
      <point x="617" y="304" type="curve" smooth="yes"/>
      <point x="617" y="152"/>
      <point x="552" y="0"/>
      <point x="291" y="0" type="curve" smooth="yes"/>
    </contour>
    <contour>
      <point x="186" y="106" type="line" smooth="yes"/>
      <point x="186" y="39"/>
      <point x="201" y="30"/>
      <point x="275" y="30" type="curve" smooth="yes"/>
      <point x="418" y="30"/>
      <point x="522" y="87"/>
      <point x="522" y="301" type="curve" smooth="yes"/>
      <point x="522" y="445"/>
      <point x="465" y="558"/>
      <point x="285" y="558" type="curve" smooth="yes"/>
      <point x="194" y="558"/>
      <point x="186" y="554"/>
      <point x="186" y="510" type="curve" smooth="yes"/>
    </contour>
  </outline>
</glyph>
<glyph name="E" format="2">
  <advance width="557"/>
  <unicode hex="0045"/>
  <outline>
    <contour>
      <point x="26" y="0" type="line"/>
      <point x="26" y="25" type="line"/>
      <point x="101" y="30"/>
      <point x="102" y="31"/>
      <point x="102" y="79" type="curve" smooth="yes"/>
      <point x="102" y="509" type="line" smooth="yes"/>
      <point x="102" y="557"/>
      <point x="101" y="558"/>
      <point x="26" y="564" type="curve"/>
      <point x="26" y="588" type="line"/>
      <point x="455" y="588" type="line"/>
      <point x="455" y="449" type="line"/>
      <point x="430" y="449" type="line"/>
      <point x="418" y="537"/>
      <point x="398" y="558"/>
      <point x="301" y="558" type="curve" smooth="yes"/>
      <point x="218" y="558" type="line" smooth="yes"/>
      <point x="191" y="558"/>
      <point x="186" y="555"/>
      <point x="186" y="528" type="curve" smooth="yes"/>
      <point x="186" y="322" type="line"/>
      <point x="305" y="322" type="line" smooth="yes"/>
      <point x="378" y="322"/>
      <point x="381" y="343"/>
      <point x="389" y="395" type="curve"/>
      <point x="414" y="395" type="line"/>
      <point x="414" y="216" type="line"/>
      <point x="389" y="216" type="line"/>
      <point x="381" y="269"/>
      <point x="378" y="290"/>
      <point x="305" y="290" type="curve" smooth="yes"/>
      <point x="186" y="290" type="line"/>
      <point x="186" y="102" type="line" smooth="yes"/>
      <point x="186" y="60"/>
      <point x="190" y="46"/>
      <point x="208" y="38" type="curve" smooth="yes"/>
      <point x="226" y="31"/>
      <point x="256" y="30"/>
      <point x="296" y="30" type="curve" smooth="yes"/>
      <point x="403" y="30"/>
      <point x="441" y="43"/>
      <point x="461" y="147" type="curve"/>
      <point x="486" y="147" type="line"/>
      <point x="476" y="0" type="line"/>
    </contour>
  </outline>
</glyph>
<glyph name="F" format="2">
  <advance width="533"/>
  <unicode hex="0046"/>
  <outline>
    <contour>
      <point x="26" y="0" type="line"/>
      <point x="26" y="25" type="line"/>
      <point x="101" y="30"/>
      <point x="102" y="31"/>
      <point x="102" y="79" type="curve" smooth="yes"/>
      <point x="102" y="509" type="line" smooth="yes"/>
      <point x="102" y="557"/>
      <point x="101" y="558"/>
      <point x="26" y="564" type="curve"/>
      <point x="26" y="588" type="line"/>
      <point x="458" y="588" type="line"/>
      <point x="458" y="452" type="line"/>
      <point x="432" y="452" type="line"/>
      <point x="420" y="539"/>
      <point x="401" y="558"/>
      <point x="302" y="558" type="curve" smooth="yes"/>
      <point x="218" y="558" type="line" smooth="yes"/>
      <point x="190" y="558"/>
      <point x="186" y="556"/>
      <point x="186" y="528" type="curve" smooth="yes"/>
      <point x="186" y="310" type="line"/>
      <point x="305" y="310" type="line" smooth="yes"/>
      <point x="378" y="310"/>
      <point x="381" y="331"/>
      <point x="389" y="385" type="curve"/>
      <point x="414" y="385" type="line"/>
      <point x="414" y="203" type="line"/>
      <point x="389" y="203" type="line"/>
      <point x="381" y="258"/>
      <point x="378" y="278"/>
      <point x="305" y="278" type="curve" smooth="yes"/>
      <point x="186" y="278" type="line"/>
      <point x="186" y="79" type="line" smooth="yes"/>
      <point x="186" y="31"/>
      <point x="189" y="30"/>
      <point x="277" y="25" type="curve"/>
      <point x="277" y="0" type="line"/>
    </contour>
  </outline>
</glyph>
<glyph name="G" format="2">
  <advance width="673"/>
  <unicode hex="0047"/>
  <outline>
    <contour>
      <point x="35" y="283" type="curve" smooth="yes"/>
      <point x="35" y="371"/>
      <point x="55" y="439"/>
      <point x="99" y="496" type="curve" smooth="yes"/>
      <point x="147" y="559"/>
      <point x="232" y="601"/>
      <point x="360" y="601" type="curve" smooth="yes"/>
      <point x="428" y="601"/>
      <point x="501" y="587"/>
      <point x="542" y="566" type="curve"/>
      <point x="542" y="433" type="line"/>
      <point x="517" y="433" type="line"/>
      <point x="499" y="529"/>
      <point x="445" y="571"/>
      <point x="351" y="571" type="curve" smooth="yes"/>
      <point x="184" y="571"/>
      <point x="130" y="431"/>
      <point x="130" y="297" type="curve" smooth="yes"/>
      <point x="130" y="190"/>
      <point x="167" y="17"/>
      <point x="362" y="17" type="curve" smooth="yes"/>
      <point x="391" y="17"/>
      <point x="415" y="21"/>
      <point x="437" y="30" type="curve" smooth="yes"/>
      <point x="455" y="37"/>
      <point x="466" y="46"/>
      <point x="466" y="76" type="curve" smooth="yes"/>
      <point x="466" y="190" type="line" smooth="yes"/>
      <point x="466" y="232"/>
      <point x="462" y="237"/>
      <point x="376" y="243" type="curve"/>
      <point x="376" y="268" type="line"/>
      <point x="610" y="268" type="line"/>
      <point x="610" y="243" type="line"/>
      <point x="554" y="237"/>
      <point x="550" y="233"/>
      <point x="550" y="190" type="curve" smooth="yes"/>
      <point x="550" y="23" type="line"/>
      <point x="496" y="6"/>
      <point x="414" y="-13"/>
      <point x="354" y="-13" type="curve" smooth="yes"/>
      <point x="280" y="-13"/>
      <point x="205" y="-3"/>
      <point x="140" y="42" type="curve" smooth="yes"/>
      <point x="78" y="86"/>
      <point x="35" y="173"/>
    </contour>
  </outline>
</glyph>
<glyph name="H" format="2">
  <advance width="734"/>
  <unicode hex="0048"/>
  <outline>
    <contour>
      <point x="26" y="0" type="line"/>
      <point x="26" y="25" type="line"/>
      <point x="101" y="30"/>
      <point x="102" y="31"/>
      <point x="102" y="79" type="curve" smooth="yes"/>
      <point x="102" y="509" type="line" smooth="yes"/>
      <point x="102" y="557"/>
      <point x="101" y="558"/>
      <point x="26" y="564" type="curve"/>
      <point x="26" y="588" type="line"/>
      <point x="263" y="588" type="line"/>
      <point x="263" y="564" type="line"/>
      <point x="189" y="558"/>
      <point x="186" y="557"/>
      <point x="186" y="509" type="curve" smooth="yes"/>
      <point x="186" y="322" type="line"/>
      <point x="484" y="322" type="line"/>
      <point x="484" y="509" type="line" smooth="yes"/>
      <point x="484" y="557"/>
      <point x="482" y="558"/>
      <point x="407" y="564" type="curve"/>
      <point x="407" y="588" type="line"/>
      <point x="645" y="588" type="line"/>
      <point x="645" y="564" type="line"/>
      <point x="571" y="558"/>
      <point x="568" y="557"/>
      <point x="568" y="509" type="curve" smooth="yes"/>
      <point x="568" y="79" type="line" smooth="yes"/>
      <point x="568" y="31"/>
      <point x="571" y="30"/>
      <point x="645" y="25" type="curve"/>
      <point x="645" y="0" type="line"/>
      <point x="407" y="0" type="line"/>
      <point x="407" y="25" type="line"/>
      <point x="482" y="30"/>
      <point x="484" y="31"/>
      <point x="484" y="79" type="curve" smooth="yes"/>
      <point x="484" y="290" type="line"/>
      <point x="186" y="290" type="line"/>
      <point x="186" y="79" type="line" smooth="yes"/>
      <point x="186" y="31"/>
      <point x="189" y="30"/>
      <point x="263" y="25" type="curve"/>
      <point x="263" y="0" type="line"/>
    </contour>
  </outline>
</glyph>
<glyph name="I" format="2">
  <advance width="319"/>
  <unicode hex="0049"/>
  <outline>
    <contour>
      <point x="26" y="0" type="line"/>
      <point x="26" y="25" type="line"/>
      <point x="101" y="30"/>
      <point x="102" y="31"/>
      <point x="102" y="79" type="curve" smooth="yes"/>
      <point x="102" y="509" type="line" smooth="yes"/>
      <point x="102" y="557"/>
      <point x="101" y="558"/>
      <point x="26" y="564" type="curve"/>
      <point x="26" y="588" type="line"/>
      <point x="263" y="588" type="line"/>
      <point x="263" y="564" type="line"/>
      <point x="189" y="558"/>
      <point x="186" y="557"/>
      <point x="186" y="509" type="curve" smooth="yes"/>
      <point x="186" y="79" type="line" smooth="yes"/>
      <point x="186" y="31"/>
      <point x="189" y="30"/>
      <point x="263" y="25" type="curve"/>
      <point x="263" y="0" type="line"/>
    </contour>
  </outline>
</glyph>
<glyph name="J" format="2">
  <advance width="324"/>
  <unicode hex="004A"/>
  <outline>
    <contour>
      <point x="0" y="-76" type="line"/>
      <point x="30" y="-68"/>
      <point x="60" y="-54"/>
      <point x="79" y="-31" type="curve" smooth="yes"/>
      <point x="99" y="-7"/>
      <point x="114" y="34"/>
      <point x="114" y="116" type="curve" smooth="yes"/>
      <point x="114" y="509" type="line" smooth="yes"/>
      <point x="114" y="557"/>
      <point x="112" y="558"/>
      <point x="37" y="564" type="curve"/>
      <point x="37" y="588" type="line"/>
      <point x="275" y="588" type="line"/>
      <point x="275" y="564" type="line"/>
      <point x="201" y="558"/>
      <point x="198" y="557"/>
      <point x="198" y="509" type="curve" smooth="yes"/>
      <point x="198" y="122" type="line" smooth="yes"/>
      <point x="198" y="35"/>
      <point x="188" y="-36"/>
      <point x="111" y="-71" type="curve" smooth="yes"/>
      <point x="78" y="-86"/>
      <point x="37" y="-95"/>
      <point x="4" y="-97" type="curve"/>
    </contour>
  </outline>
</glyph>
<glyph name="K" format="2">
  <advance width="605"/>
  <unicode hex="004B"/>
  <outline>
    <contour>
      <point x="26" y="0" type="line"/>
      <point x="26" y="25" type="line"/>
      <point x="101" y="30"/>
      <point x="102" y="31"/>
      <point x="102" y="79" type="curve" smooth="yes"/>
      <point x="102" y="509" type="line" smooth="yes"/>
      <point x="102" y="557"/>
      <point x="101" y="558"/>
      <point x="26" y="564" type="curve"/>
      <point x="26" y="588" type="line"/>
      <point x="263" y="588" type="line"/>
      <point x="263" y="564" type="line"/>
      <point x="189" y="558"/>
      <point x="186" y="557"/>
      <point x="186" y="509" type="curve" smooth="yes"/>
      <point x="186" y="309" type="line"/>
      <point x="248" y="371"/>
      <point x="344" y="472"/>
      <point x="393" y="527" type="curve" smooth="yes"/>
      <point x="412" y="549"/>
      <point x="410" y="559"/>
      <point x="392" y="561" type="curve" smooth="yes"/>
      <point x="360" y="564" type="line"/>
      <point x="360" y="588" type="line"/>
      <point x="566" y="588" type="line"/>
      <point x="566" y="564" type="line"/>
      <point x="494" y="559"/>
      <point x="477" y="550"/>
      <point x="433" y="511" type="curve" smooth="yes"/>
      <point x="381" y="466"/>
      <point x="316" y="401"/>
      <point x="260" y="339" type="curve"/>
      <point x="317" y="252"/>
      <point x="389" y="167"/>
      <point x="464" y="86" type="curve" smooth="yes"/>
      <point x="501" y="48"/>
      <point x="528" y="24"/>
      <point x="563" y="16" type="curve"/>
      <point x="563" y="-4" type="line"/>
      <point x="509" y="-2" type="line" smooth="yes"/>
      <point x="457" y="0"/>
      <point x="412" y="15"/>
      <point x="362" y="71" type="curve" smooth="yes"/>
      <point x="296" y="146"/>
      <point x="237" y="226"/>
      <point x="189" y="300" type="curve"/>
      <point x="188" y="303" type="line"/>
      <point x="186" y="303" type="line"/>
      <point x="186" y="79" type="line" smooth="yes"/>
      <point x="186" y="31"/>
      <point x="189" y="30"/>
      <point x="263" y="25" type="curve"/>
      <point x="263" y="0" type="line"/>
    </contour>
  </outline>
</glyph>
<glyph name="L" format="2">
  <advance width="521"/>
  <unicode hex="004C"/>
  <outline>
    <contour>
      <point x="26" y="0" type="line"/>
      <point x="26" y="25" type="line"/>
      <point x="101" y="30"/>
      <point x="102" y="31"/>
      <point x="102" y="79" type="curve" smooth="yes"/>
      <point x="102" y="509" type="line" smooth="yes"/>
      <point x="102" y="557"/>
      <point x="101" y="558"/>
      <point x="26" y="564" type="curve"/>
      <point x="26" y="588" type="line"/>
      <point x="268" y="588" type="line"/>
      <point x="268" y="564" type="line"/>
      <point x="189" y="558"/>
      <point x="186" y="557"/>
      <point x="186" y="509" type="curve" smooth="yes"/>
      <point x="186" y="102" type="line" smooth="yes"/>
      <point x="186" y="60"/>
      <point x="190" y="46"/>
      <point x="208" y="38" type="curve" smooth="yes"/>
      <point x="226" y="31"/>
      <point x="256" y="30"/>
      <point x="299" y="30" type="curve" smooth="yes"/>
      <point x="388" y="30"/>
      <point x="435" y="41"/>
      <point x="452" y="152" type="curve"/>
      <point x="477" y="152" type="line"/>
      <point x="467" y="0" type="line"/>
    </contour>
  </outline>
</glyph>
<glyph name="M" format="2">
  <advance width="869"/>
  <unicode hex="004D"/>
  <outline>
    <contour>
      <point x="25" y="0" type="line"/>
      <point x="25" y="25" type="line"/>
      <point x="69" y="28"/>
      <point x="90" y="31"/>
      <point x="95" y="67" type="curve" smooth="yes"/>
      <point x="99" y="95"/>
      <point x="101" y="128"/>
      <point x="101" y="173" type="curve" smooth="yes"/>
      <point x="101" y="509" type="line" smooth="yes"/>
      <point x="101" y="557"/>
      <point x="99" y="558"/>
      <point x="24" y="564" type="curve"/>
      <point x="24" y="588" type="line"/>
      <point x="197" y="588" type="line"/>
      <point x="227" y="513"/>
      <point x="263" y="438"/>
      <point x="296" y="362" type="curve" smooth="yes"/>
      <point x="396" y="135" type="line"/>
      <point x="398" y="135" type="line"/>
      <point x="500" y="363" type="line" smooth="yes"/>
      <point x="534" y="438"/>
      <point x="569" y="513"/>
      <point x="598" y="588" type="curve"/>
      <point x="769" y="588" type="line"/>
      <point x="769" y="564" type="line"/>
      <point x="695" y="558"/>
      <point x="692" y="557"/>
      <point x="692" y="509" type="curve" smooth="yes"/>
      <point x="692" y="79" type="line" smooth="yes"/>
      <point x="692" y="31"/>
      <point x="695" y="30"/>
      <point x="769" y="25" type="curve"/>
      <point x="769" y="0" type="line"/>
      <point x="532" y="0" type="line"/>
      <point x="532" y="25" type="line"/>
      <point x="606" y="30"/>
      <point x="608" y="31"/>
      <point x="608" y="79" type="curve" smooth="yes"/>
      <point x="608" y="510" type="line"/>
      <point x="605" y="510" type="line"/>
      <point x="384" y="10" type="line"/>
      <point x="361" y="10" type="line"/>
      <point x="141" y="510" type="line"/>
      <point x="140" y="510" type="line"/>
      <point x="140" y="173" type="line" smooth="yes"/>
      <point x="140" y="128"/>
      <point x="141" y="95"/>
      <point x="146" y="67" type="curve" smooth="yes"/>
      <point x="151" y="31"/>
      <point x="171" y="29"/>
      <point x="226" y="25" type="curve"/>
      <point x="226" y="0" type="line"/>
    </contour>
  </outline>
</glyph>
<glyph name="N" format="2">
  <advance width="718"/>
  <unicode hex="004E"/>
  <outline>
    <contour>
      <point x="26" y="0" type="line"/>
      <point x="26" y="25" type="line"/>
      <point x="70" y="28"/>
      <point x="90" y="31"/>
      <point x="95" y="67" type="curve" smooth="yes"/>
      <point x="100" y="95"/>
      <point x="101" y="128"/>
      <point x="101" y="173" type="curve" smooth="yes"/>
      <point x="101" y="509" type="line" smooth="yes"/>
      <point x="101" y="557"/>
      <point x="100" y="558"/>
      <point x="25" y="564" type="curve"/>
      <point x="25" y="588" type="line"/>
      <point x="188" y="588" type="line"/>
      <point x="298" y="432"/>
      <point x="408" y="275"/>
      <point x="520" y="119" type="curve"/>
      <point x="521" y="117" type="line"/>
      <point x="521" y="416" type="line" smooth="yes"/>
      <point x="521" y="461"/>
      <point x="520" y="493"/>
      <point x="515" y="521" type="curve" smooth="yes"/>
      <point x="510" y="557"/>
      <point x="490" y="559"/>
      <point x="435" y="564" type="curve"/>
      <point x="435" y="588" type="line"/>
      <point x="636" y="588" type="line"/>
      <point x="636" y="564" type="line"/>
      <point x="592" y="560"/>
      <point x="571" y="557"/>
      <point x="566" y="521" type="curve" smooth="yes"/>
      <point x="562" y="493"/>
      <point x="560" y="461"/>
      <point x="560" y="416" type="curve" smooth="yes"/>
      <point x="560" y="0" type="line"/>
      <point x="504" y="0" type="line"/>
      <point x="384" y="171"/>
      <point x="264" y="341"/>
      <point x="142" y="512" type="curve"/>
      <point x="141" y="512" type="line"/>
      <point x="141" y="173" type="line" smooth="yes"/>
      <point x="141" y="128"/>
      <point x="142" y="95"/>
      <point x="146" y="67" type="curve" smooth="yes"/>
      <point x="152" y="31"/>
      <point x="172" y="29"/>
      <point x="227" y="25" type="curve"/>
      <point x="227" y="0" type="line"/>
    </contour>
  </outline>
</glyph>
<glyph name="O" format="2">
  <advance width="699"/>
  <unicode hex="004F"/>
  <outline>
    <contour>
      <point x="35" y="294" type="curve" smooth="yes"/>
      <point x="35" y="389"/>
      <point x="61" y="468"/>
      <point x="107" y="519" type="curve" smooth="yes"/>
      <point x="155" y="572"/>
      <point x="224" y="601"/>
      <point x="318" y="601" type="curve" smooth="yes"/>
      <point x="411" y="601"/>
      <point x="481" y="572"/>
      <point x="529" y="519" type="curve" smooth="yes"/>
      <point x="575" y="468"/>
      <point x="601" y="389"/>
      <point x="601" y="294" type="curve" smooth="yes"/>
      <point x="601" y="199"/>
      <point x="575" y="121"/>
      <point x="529" y="70" type="curve" smooth="yes"/>
      <point x="481" y="16"/>
      <point x="411" y="-13"/>
      <point x="318" y="-13" type="curve" smooth="yes"/>
      <point x="224" y="-13"/>
      <point x="155" y="16"/>
      <point x="107" y="70" type="curve" smooth="yes"/>
      <point x="61" y="121"/>
      <point x="35" y="199"/>
    </contour>
    <contour>
      <point x="130" y="294" type="curve" smooth="yes"/>
      <point x="130" y="169"/>
      <point x="167" y="17"/>
      <point x="318" y="17" type="curve" smooth="yes"/>
      <point x="469" y="17"/>
      <point x="506" y="169"/>
      <point x="506" y="294" type="curve" smooth="yes"/>
      <point x="506" y="419"/>
      <point x="469" y="571"/>
      <point x="318" y="571" type="curve" smooth="yes"/>
      <point x="167" y="571"/>
      <point x="130" y="419"/>
    </contour>
  </outline>
</glyph>
<glyph name="P" format="2">
  <advance width="551"/>
  <unicode hex="0050"/>
  <outline>
    <contour>
      <point x="26" y="0" type="line"/>
      <point x="26" y="25" type="line"/>
      <point x="101" y="30"/>
      <point x="102" y="31"/>
      <point x="102" y="79" type="curve" smooth="yes"/>
      <point x="102" y="509" type="line" smooth="yes"/>
      <point x="102" y="557"/>
      <point x="101" y="558"/>
      <point x="26" y="564" type="curve"/>
      <point x="26" y="588" type="line"/>
      <point x="263" y="588" type="line" smooth="yes"/>
      <point x="322" y="588"/>
      <point x="377" y="580"/>
      <point x="418" y="554" type="curve" smooth="yes"/>
      <point x="456" y="530"/>
      <point x="484" y="486"/>
      <point x="484" y="422" type="curve" smooth="yes"/>
      <point x="484" y="315"/>
      <point x="409" y="269"/>
      <point x="344" y="252" type="curve" smooth="yes"/>
      <point x="312" y="245"/>
      <point x="274" y="241"/>
      <point x="235" y="241" type="curve" smooth="yes"/>
      <point x="186" y="241" type="line"/>
      <point x="186" y="79" type="line" smooth="yes"/>
      <point x="186" y="31"/>
      <point x="189" y="30"/>
      <point x="277" y="25" type="curve"/>
      <point x="277" y="0" type="line"/>
    </contour>
    <contour>
      <point x="186" y="304" type="line" smooth="yes"/>
      <point x="186" y="273"/>
      <point x="199" y="271"/>
      <point x="249" y="271" type="curve" smooth="yes"/>
      <point x="322" y="271"/>
      <point x="392" y="309"/>
      <point x="392" y="416" type="curve" smooth="yes"/>
      <point x="392" y="508"/>
      <point x="339" y="558"/>
      <point x="251" y="558" type="curve" smooth="yes"/>
      <point x="196" y="558"/>
      <point x="186" y="551"/>
      <point x="186" y="527" type="curve" smooth="yes"/>
    </contour>
  </outline>
</glyph>
<glyph name="Q" format="2">
  <advance width="699"/>
  <unicode hex="0051"/>
  <outline>
    <contour>
      <point x="35" y="294" type="curve" smooth="yes"/>
      <point x="35" y="390"/>
      <point x="61" y="468"/>
      <point x="107" y="519" type="curve" smooth="yes"/>
      <point x="155" y="572"/>
      <point x="224" y="601"/>
      <point x="318" y="601" type="curve" smooth="yes"/>
      <point x="412" y="601"/>
      <point x="481" y="572"/>
      <point x="529" y="519" type="curve" smooth="yes"/>
      <point x="575" y="468"/>
      <point x="601" y="390"/>
      <point x="601" y="294" type="curve" smooth="yes"/>
      <point x="601" y="199"/>
      <point x="575" y="121"/>
      <point x="529" y="70" type="curve" smooth="yes"/>
      <point x="493" y="30"/>
      <point x="446" y="3"/>
      <point x="385" y="-7" type="curve"/>
      <point x="394" y="-24"/>
      <point x="412" y="-48"/>
      <point x="434" y="-72" type="curve" smooth="yes"/>
      <point x="482" y="-124"/>
      <point x="524" y="-135"/>
      <point x="545" y="-135" type="curve" smooth="yes"/>
      <point x="552" y="-135"/>
      <point x="558" y="-135"/>
      <point x="567" y="-134" type="curve"/>
      <point x="569" y="-148" type="line"/>
      <point x="552" y="-159"/>
      <point x="528" y="-164"/>
      <point x="498" y="-164" type="curve" smooth="yes"/>
      <point x="408" y="-164"/>
      <point x="329" y="-102"/>
      <point x="285" y="-11" type="curve"/>
      <point x="208" y="-6"/>
      <point x="149" y="22"/>
      <point x="107" y="70" type="curve" smooth="yes"/>
      <point x="61" y="121"/>
      <point x="35" y="199"/>
    </contour>
    <contour>
      <point x="130" y="294" type="curve" smooth="yes"/>
      <point x="130" y="169"/>
      <point x="167" y="17"/>
      <point x="318" y="17" type="curve" smooth="yes"/>
      <point x="469" y="17"/>
      <point x="506" y="169"/>
      <point x="506" y="294" type="curve" smooth="yes"/>
      <point x="506" y="419"/>
      <point x="469" y="571"/>
      <point x="318" y="571" type="curve" smooth="yes"/>
      <point x="167" y="571"/>
      <point x="130" y="419"/>
    </contour>
  </outline>
</glyph>
<glyph name="R" format="2">
  <advance width="592"/>
  <unicode hex="0052"/>
  <outline>
    <contour>
      <point x="26" y="0" type="line"/>
      <point x="26" y="25" type="line"/>
      <point x="101" y="30"/>
      <point x="102" y="31"/>
      <point x="102" y="79" type="curve" smooth="yes"/>
      <point x="102" y="509" type="line" smooth="yes"/>
      <point x="102" y="557"/>
      <point x="101" y="558"/>
      <point x="26" y="564" type="curve"/>
      <point x="26" y="588" type="line"/>
      <point x="274" y="588" type="line" smooth="yes"/>
      <point x="423" y="588"/>
      <point x="474" y="524"/>
      <point x="474" y="443" type="curve" smooth="yes"/>
      <point x="474" y="362"/>
      <point x="415" y="309"/>
      <point x="335" y="293" type="curve"/>
      <point x="335" y="292" type="line"/>
      <point x="425" y="269"/>
      <point x="441" y="213"/>
      <point x="451" y="137" type="curve" smooth="yes"/>
      <point x="458" y="79"/>
      <point x="472" y="31"/>
      <point x="538" y="25" type="curve"/>
      <point x="538" y="0" type="line"/>
      <point x="469" y="0" type="line" smooth="yes"/>
      <point x="419" y="0"/>
      <point x="387" y="19"/>
      <point x="374" y="73" type="curve" smooth="yes"/>
      <point x="365" y="112"/>
      <point x="356" y="179"/>
      <point x="350" y="203" type="curve" smooth="yes"/>
      <point x="335" y="261"/>
      <point x="296" y="277"/>
      <point x="245" y="277" type="curve" smooth="yes"/>
      <point x="186" y="277" type="line"/>
      <point x="186" y="79" type="line" smooth="yes"/>
      <point x="186" y="43"/>
      <point x="186" y="42"/>
      <point x="189" y="38" type="curve" smooth="yes"/>
      <point x="195" y="28"/>
      <point x="214" y="28"/>
      <point x="250" y="25" type="curve"/>
      <point x="250" y="0" type="line"/>
    </contour>
    <contour>
      <point x="186" y="307" type="line"/>
      <point x="254" y="307" type="line" smooth="yes"/>
      <point x="336" y="307"/>
      <point x="383" y="346"/>
      <point x="383" y="435" type="curve" smooth="yes"/>
      <point x="383" y="536"/>
      <point x="311" y="558"/>
      <point x="248" y="558" type="curve" smooth="yes"/>
      <point x="192" y="558"/>
      <point x="186" y="552"/>
      <point x="186" y="516" type="curve" smooth="yes"/>
    </contour>
  </outline>
</glyph>
<glyph name="S" format="2">
  <advance width="494"/>
  <unicode hex="0053"/>
  <outline>
    <contour>
      <point x="37" y="174" type="line"/>
      <point x="64" y="174" type="line"/>
      <point x="85" y="79"/>
      <point x="138" y="17"/>
      <point x="218" y="17" type="curve" smooth="yes"/>
      <point x="293" y="17"/>
      <point x="340" y="61"/>
      <point x="340" y="134" type="curve" smooth="yes"/>
      <point x="340" y="210"/>
      <point x="259" y="249"/>
      <point x="222" y="264" type="curve" smooth="yes"/>
      <point x="207" y="269" type="line" smooth="yes"/>
      <point x="117" y="301"/>
      <point x="46" y="348"/>
      <point x="46" y="437" type="curve" smooth="yes"/>
      <point x="46" y="549"/>
      <point x="138" y="601"/>
      <point x="241" y="601" type="curve" smooth="yes"/>
      <point x="299" y="601"/>
      <point x="357" y="587"/>
      <point x="386" y="564" type="curve"/>
      <point x="386" y="444" type="line"/>
      <point x="360" y="444" type="line"/>
      <point x="346" y="530"/>
      <point x="305" y="571"/>
      <point x="232" y="571" type="curve" smooth="yes"/>
      <point x="161" y="571"/>
      <point x="123" y="525"/>
      <point x="123" y="463" type="curve" smooth="yes"/>
      <point x="123" y="412"/>
      <point x="171" y="376"/>
      <point x="228" y="354" type="curve" smooth="yes"/>
      <point x="255" y="344" type="line" smooth="yes"/>
      <point x="354" y="308"/>
      <point x="422" y="260"/>
      <point x="422" y="160" type="curve" smooth="yes"/>
      <point x="422" y="73"/>
      <point x="363" y="-13"/>
      <point x="212" y="-13" type="curve" smooth="yes"/>
      <point x="153" y="-13"/>
      <point x="82" y="3"/>
      <point x="45" y="38" type="curve"/>
    </contour>
  </outline>
</glyph>
<glyph name="T" format="2">
  <advance width="571"/>
  <unicode hex="0054"/>
  <outline>
    <contour>
      <point x="16" y="447" type="line"/>
      <point x="16" y="588" type="line"/>
      <point x="506" y="588" type="line"/>
      <point x="506" y="447" type="line"/>
      <point x="481" y="447" type="line"/>
      <point x="470" y="540"/>
      <point x="453" y="558"/>
      <point x="353" y="558" type="curve" smooth="yes"/>
      <point x="303" y="558" type="line"/>
      <point x="303" y="79" type="line" smooth="yes"/>
      <point x="303" y="31"/>
      <point x="306" y="30"/>
      <point x="397" y="25" type="curve"/>
      <point x="397" y="0" type="line"/>
      <point x="125" y="0" type="line"/>
      <point x="125" y="25" type="line"/>
      <point x="216" y="30"/>
      <point x="219" y="31"/>
      <point x="219" y="79" type="curve" smooth="yes"/>
      <point x="219" y="558" type="line"/>
      <point x="169" y="558" type="line" smooth="yes"/>
      <point x="69" y="558"/>
      <point x="51" y="540"/>
      <point x="41" y="447" type="curve"/>
    </contour>
  </outline>
</glyph>
<glyph name="U" format="2">
  <advance width="728"/>
  <unicode hex="0055"/>
  <outline>
    <contour>
      <point x="21" y="564" type="curve"/>
      <point x="21" y="588" type="line"/>
      <point x="258" y="588" type="line"/>
      <point x="258" y="564" type="line"/>
      <point x="184" y="558"/>
      <point x="181" y="557"/>
      <point x="181" y="509" type="curve" smooth="yes"/>
      <point x="181" y="234" type="line" smooth="yes"/>
      <point x="181" y="153"/>
      <point x="194" y="102"/>
      <point x="220" y="68" type="curve" smooth="yes"/>
      <point x="246" y="34"/>
      <point x="283" y="17"/>
      <point x="332" y="17" type="curve" smooth="yes"/>
      <point x="381" y="17"/>
      <point x="418" y="34"/>
      <point x="445" y="68" type="curve" smooth="yes"/>
      <point x="470" y="102"/>
      <point x="483" y="153"/>
      <point x="483" y="234" type="curve" smooth="yes"/>
      <point x="483" y="509" type="line" smooth="yes"/>
      <point x="483" y="557"/>
      <point x="481" y="558"/>
      <point x="407" y="564" type="curve"/>
      <point x="407" y="588" type="line"/>
      <point x="644" y="588" type="line"/>
      <point x="644" y="564" type="line"/>
      <point x="570" y="558"/>
      <point x="567" y="557"/>
      <point x="567" y="509" type="curve" smooth="yes"/>
      <point x="567" y="217" type="line" smooth="yes"/>
      <point x="567" y="166"/>
      <point x="559" y="121"/>
      <point x="544" y="91" type="curve" smooth="yes"/>
      <point x="505" y="7"/>
      <point x="416" y="-13"/>
      <point x="332" y="-13" type="curve" smooth="yes"/>
      <point x="248" y="-13"/>
      <point x="159" y="8"/>
      <point x="120" y="91" type="curve" smooth="yes"/>
      <point x="106" y="120"/>
      <point x="97" y="165"/>
      <point x="97" y="215" type="curve" smooth="yes"/>
      <point x="97" y="509" type="line" smooth="yes"/>
      <point x="97" y="557"/>
      <point x="95" y="558"/>
    </contour>
  </outline>
</glyph>
<glyph name="V" format="2">
  <advance width="588"/>
  <unicode hex="0056"/>
  <outline>
    <contour>
      <point x="-13" y="564" type="curve"/>
      <point x="-13" y="588" type="line"/>
      <point x="206" y="588" type="line"/>
      <point x="206" y="564" type="line"/>
      <point x="162" y="559" type="line" smooth="yes"/>
      <point x="141" y="558"/>
      <point x="139" y="550"/>
      <point x="146" y="529" type="curve" smooth="yes"/>
      <point x="168" y="461"/>
      <point x="194" y="386"/>
      <point x="220" y="312" type="curve" smooth="yes"/>
      <point x="300" y="94" type="line"/>
      <point x="301" y="92" type="line"/>
      <point x="390" y="336" type="line" smooth="yes"/>
      <point x="420" y="421"/>
      <point x="447" y="496"/>
      <point x="456" y="533" type="curve" smooth="yes"/>
      <point x="460" y="549"/>
      <point x="459" y="558"/>
      <point x="437" y="559" type="curve" smooth="yes"/>
      <point x="390" y="564" type="line"/>
      <point x="390" y="588" type="line"/>
      <point x="578" y="588" type="line"/>
      <point x="578" y="564" type="line"/>
      <point x="532" y="561"/>
      <point x="522" y="559"/>
      <point x="504" y="519" type="curve" smooth="yes"/>
      <point x="484" y="474"/>
      <point x="450" y="388"/>
      <point x="415" y="293" type="curve" smooth="yes"/>
      <point x="306" y="0" type="line"/>
      <point x="246" y="0" type="line"/>
      <point x="150" y="272" type="line" smooth="yes"/>
      <point x="120" y="357"/>
      <point x="89" y="442"/>
      <point x="62" y="513" type="curve" smooth="yes"/>
      <point x="45" y="558"/>
      <point x="34" y="562"/>
    </contour>
  </outline>
</glyph>
<glyph name="W" format="2">
  <advance width="872"/>
  <unicode hex="0057"/>
  <outline>
    <contour>
      <point x="-9" y="564" type="curve"/>
      <point x="-9" y="588" type="line"/>
      <point x="204" y="588" type="line"/>
      <point x="204" y="564" type="line"/>
      <point x="162" y="559" type="line" smooth="yes"/>
      <point x="141" y="558"/>
      <point x="137" y="553"/>
      <point x="144" y="524" type="curve" smooth="yes"/>
      <point x="178" y="391"/>
      <point x="215" y="248"/>
      <point x="260" y="102" type="curve"/>
      <point x="261" y="102" type="line"/>
      <point x="391" y="573" type="line"/>
      <point x="455" y="573" type="line"/>
      <point x="502" y="417"/>
      <point x="550" y="259"/>
      <point x="599" y="102" type="curve"/>
      <point x="601" y="102" type="line"/>
      <point x="664" y="345" type="line" smooth="yes"/>
      <point x="685" y="425"/>
      <point x="704" y="495"/>
      <point x="709" y="526" type="curve" smooth="yes"/>
      <point x="713" y="544"/>
      <point x="711" y="556"/>
      <point x="691" y="558" type="curve" smooth="yes"/>
      <point x="638" y="564" type="line"/>
      <point x="638" y="588" type="line"/>
      <point x="832" y="588" type="line"/>
      <point x="832" y="564" type="line"/>
      <point x="780" y="560"/>
      <point x="770" y="556"/>
      <point x="753" y="507" type="curve" smooth="yes"/>
      <point x="742" y="474"/>
      <point x="722" y="400"/>
      <point x="695" y="303" type="curve" smooth="yes"/>
      <point x="610" y="0" type="line"/>
      <point x="545" y="0" type="line"/>
      <point x="502" y="152"/>
      <point x="455" y="309"/>
      <point x="403" y="471" type="curve"/>
      <point x="402" y="471" type="line"/>
      <point x="268" y="0" type="line"/>
      <point x="203" y="0" type="line"/>
      <point x="130" y="271" type="line" smooth="yes"/>
      <point x="107" y="356"/>
      <point x="83" y="441"/>
      <point x="63" y="508" type="curve" smooth="yes"/>
      <point x="49" y="558"/>
      <point x="41" y="561"/>
    </contour>
  </outline>
</glyph>
<glyph name="X" format="2">
  <advance width="579"/>
  <unicode hex="0058"/>
  <outline>
    <contour>
      <point x="-14" y="0" type="line"/>
      <point x="-14" y="25" type="line"/>
      <point x="40" y="30"/>
      <point x="48" y="32"/>
      <point x="77" y="71" type="curve" smooth="yes"/>
      <point x="112" y="117"/>
      <point x="180" y="222"/>
      <point x="229" y="293" type="curve"/>
      <point x="93" y="510" type="line" smooth="yes"/>
      <point x="64" y="556"/>
      <point x="54" y="562"/>
      <point x="0" y="564" type="curve"/>
      <point x="0" y="588" type="line"/>
      <point x="220" y="588" type="line"/>
      <point x="220" y="564" type="line"/>
      <point x="179" y="559" type="line" smooth="yes"/>
      <point x="163" y="558"/>
      <point x="161" y="547"/>
      <point x="171" y="530" type="curve" smooth="yes"/>
      <point x="277" y="364" type="line"/>
      <point x="279" y="364" type="line"/>
      <point x="320" y="422"/>
      <point x="357" y="479"/>
      <point x="389" y="532" type="curve" smooth="yes"/>
      <point x="399" y="549"/>
      <point x="399" y="558"/>
      <point x="381" y="560" type="curve" smooth="yes"/>
      <point x="340" y="564" type="line"/>
      <point x="340" y="588" type="line"/>
      <point x="528" y="588" type="line"/>
      <point x="528" y="564" type="line"/>
      <point x="478" y="561"/>
      <point x="467" y="557"/>
      <point x="430" y="512" type="curve" smooth="yes"/>
      <point x="394" y="467"/>
      <point x="345" y="400"/>
      <point x="298" y="331" type="curve"/>
      <point x="464" y="73" type="line" smooth="yes"/>
      <point x="489" y="34"/>
      <point x="499" y="29"/>
      <point x="560" y="25" type="curve"/>
      <point x="560" y="0" type="line"/>
      <point x="319" y="0" type="line"/>
      <point x="319" y="25" type="line"/>
      <point x="366" y="30" type="line" smooth="yes"/>
      <point x="382" y="31"/>
      <point x="390" y="38"/>
      <point x="379" y="54" type="curve" smooth="yes"/>
      <point x="250" y="259" type="line"/>
      <point x="249" y="259" type="line"/>
      <point x="203" y="190"/>
      <point x="162" y="121"/>
      <point x="125" y="54" type="curve" smooth="yes"/>
      <point x="117" y="40"/>
      <point x="122" y="32"/>
      <point x="135" y="31" type="curve" smooth="yes"/>
      <point x="189" y="25" type="line"/>
      <point x="189" y="0" type="line"/>
    </contour>
  </outline>
</glyph>
<glyph name="Y" format="2">
  <advance width="546"/>
  <unicode hex="0059"/>
  <outline>
    <contour>
      <point x="-8" y="564" type="curve"/>
      <point x="-8" y="588" type="line"/>
      <point x="212" y="588" type="line"/>
      <point x="212" y="564" type="line"/>
      <point x="162" y="558" type="line" smooth="yes"/>
      <point x="149" y="557"/>
      <point x="146" y="548"/>
      <point x="152" y="533" type="curve" smooth="yes"/>
      <point x="190" y="451"/>
      <point x="234" y="366"/>
      <point x="283" y="276" type="curve"/>
      <point x="285" y="276" type="line"/>
      <point x="330" y="365"/>
      <point x="388" y="481"/>
      <point x="409" y="532" type="curve" smooth="yes"/>
      <point x="416" y="548"/>
      <point x="414" y="558"/>
      <point x="399" y="559" type="curve" smooth="yes"/>
      <point x="353" y="564" type="line"/>
      <point x="353" y="588" type="line"/>
      <point x="539" y="588" type="line"/>
      <point x="539" y="564" type="line"/>
      <point x="482" y="561"/>
      <point x="477" y="554"/>
      <point x="448" y="507" type="curve" smooth="yes"/>
      <point x="422" y="465"/>
      <point x="358" y="346"/>
      <point x="315" y="259" type="curve" smooth="yes"/>
      <point x="306" y="242"/>
      <point x="304" y="230"/>
      <point x="304" y="209" type="curve" smooth="yes"/>
      <point x="304" y="79" type="line" smooth="yes"/>
      <point x="304" y="32"/>
      <point x="306" y="30"/>
      <point x="394" y="25" type="curve"/>
      <point x="394" y="0" type="line"/>
      <point x="130" y="0" type="line"/>
      <point x="130" y="25" type="line"/>
      <point x="217" y="30"/>
      <point x="220" y="32"/>
      <point x="220" y="79" type="curve" smooth="yes"/>
      <point x="220" y="206" type="line" smooth="yes"/>
      <point x="220" y="223"/>
      <point x="216" y="237"/>
      <point x="207" y="255" type="curve" smooth="yes"/>
      <point x="165" y="339"/>
      <point x="115" y="434"/>
      <point x="67" y="521" type="curve" smooth="yes"/>
      <point x="49" y="557"/>
      <point x="37" y="562"/>
    </contour>
  </outline>
</glyph>
<glyph name="Z" format="2">
  <advance width="563"/>
  <unicode hex="005A"/>
  <outline>
    <contour>
      <point x="7" y="11" type="line"/>
      <point x="135" y="194"/>
      <point x="263" y="377"/>
      <point x="387" y="558" type="curve"/>
      <point x="234" y="558" type="line" smooth="yes"/>
      <point x="118" y="558"/>
      <point x="97" y="540"/>
      <point x="87" y="442" type="curve"/>
      <point x="59" y="442" type="line"/>
      <point x="59" y="588" type="line"/>
      <point x="494" y="588" type="line"/>
      <point x="499" y="577" type="line"/>
      <point x="370" y="394"/>
      <point x="243" y="213"/>
      <point x="119" y="30" type="curve"/>
      <point x="291" y="30" type="line" smooth="yes"/>
      <point x="421" y="30"/>
      <point x="461" y="45"/>
      <point x="477" y="151" type="curve"/>
      <point x="504" y="151" type="line"/>
      <point x="495" y="0" type="line"/>
      <point x="11" y="0" type="line"/>
    </contour>
  </outline>
</glyph>
<glyph name="bracketleft" format="2">
  <advance width="327"/>
  <unicode hex="005B"/>
  <outline>
    <contour>
      <point x="96" y="-109" type="line"/>
      <point x="96" y="588" type="line"/>
      <point x="231" y="588" type="line"/>
      <point x="231" y="565" type="line"/>
      <point x="155" y="562"/>
      <point x="150" y="558"/>
      <point x="150" y="519" type="curve" smooth="yes"/>
      <point x="150" y="-39" type="line" smooth="yes"/>
      <point x="150" y="-79"/>
      <point x="155" y="-82"/>
      <point x="231" y="-86" type="curve"/>
      <point x="231" y="-109" type="line"/>
    </contour>
  </outline>
</glyph>
<glyph name="backslash" format="2">
  <advance width="367"/>
  <unicode hex="005C"/>
  <outline>
    <contour>
      <point x="65" y="601" type="line"/>
      <point x="122" y="601" type="line"/>
      <point x="302" y="-13" type="line"/>
      <point x="245" y="-13" type="line"/>
    </contour>
  </outline>
</glyph>
<glyph name="bracketright" format="2">
  <advance width="189"/>
  <unicode hex="005D"/>
  <outline>
    <contour>
      <point x="27" y="-86" type="line"/>
      <point x="104" y="-82"/>
      <point x="109" y="-79"/>
      <point x="109" y="-39" type="curve" smooth="yes"/>
      <point x="109" y="519" type="line" smooth="yes"/>
      <point x="109" y="558"/>
      <point x="104" y="562"/>
      <point x="27" y="565" type="curve"/>
      <point x="27" y="588" type="line"/>
      <point x="162" y="588" type="line"/>
      <point x="162" y="-109" type="line"/>
      <point x="27" y="-109" type="line"/>
    </contour>
  </outline>
</glyph>
<glyph name="underscore" format="2">
  <advance width="425"/>
  <unicode hex="005F"/>
  <outline>
    <contour>
      <point x="0" y="-64" type="line"/>
      <point x="425" y="-64" type="line"/>
      <point x="425" y="-106" type="line"/>
      <point x="0" y="-106" type="line"/>
    </contour>
  </outline>
</glyph>
<glyph name="a" format="2">
  <advance height="1000" width="549"/>
  <unicode hex="0061"/>
  <outline>
    <contour>
      <point x="158" y="-10" type="curve" smooth="yes"/>
      <point x="207" y="-10"/>
      <point x="258" y="23"/>
      <point x="285" y="41" type="curve"/>
      <point x="297" y="9"/>
      <point x="310" y="-10"/>
      <point x="340" y="-10" type="curve" smooth="yes"/>
      <point x="371" y="-10"/>
      <point x="408" y="-1"/>
      <point x="440" y="15" type="curve"/>
      <point x="435" y="36" type="line"/>
      <point x="423" y="33"/>
      <point x="405" y="31"/>
      <point x="392" y="35" type="curve" smooth="yes"/>
      <point x="377" y="38"/>
      <point x="362" y="54"/>
      <point x="362" y="108" type="curve" smooth="yes"/>
      <point x="362" y="314" type="line" smooth="yes"/>
      <point x="362" y="363"/>
      <point x="351" y="427"/>
      <point x="223" y="427" type="curve" smooth="yes"/>
      <point x="127" y="427"/>
      <point x="51" y="377"/>
      <point x="51" y="330" type="curve" smooth="yes"/>
      <point x="51" y="303"/>
      <point x="82" y="290"/>
      <point x="99" y="290" type="curve" smooth="yes"/>
      <point x="116" y="290"/>
      <point x="122" y="299"/>
      <point x="126" y="314" type="curve" smooth="yes"/>
      <point x="144" y="377"/>
      <point x="179" y="397"/>
      <point x="213" y="397" type="curve" smooth="yes"/>
      <point x="246" y="397"/>
      <point x="286" y="380"/>
      <point x="286" y="312" type="curve" smooth="yes"/>
      <point x="286" y="276" type="line"/>
      <point x="264" y="254"/>
      <point x="182" y="233"/>
      <point x="115" y="212" type="curve" smooth="yes"/>
      <point x="54" y="193"/>
      <point x="36" y="150"/>
      <point x="36" y="111" type="curve" smooth="yes"/>
      <point x="36" y="47"/>
      <point x="78" y="-10"/>
    </contour>
    <contour>
      <point x="200" y="35" type="curve" smooth="yes"/>
      <point x="147" y="35"/>
      <point x="122" y="72"/>
      <point x="122" y="122" type="curve" smooth="yes"/>
      <point x="122" y="162"/>
      <point x="140" y="183"/>
      <point x="188" y="201" type="curve" smooth="yes"/>
      <point x="222" y="213"/>
      <point x="267" y="230"/>
      <point x="286" y="241" type="curve"/>
      <point x="286" y="122" type="line" smooth="yes"/>
      <point x="286" y="53"/>
      <point x="233" y="35"/>
    </contour>
  </outline>
</glyph>
<glyph name="b" format="2">
  <advance width="550"/>
  <unicode hex="0062"/>
  <outline>
    <contour>
      <point x="14" y="588" type="line"/>
      <point x="14" y="609" type="line"/>
      <point x="147" y="631" type="line"/>
      <point x="153" y="626" type="line"/>
      <point x="153" y="366" type="line"/>
      <point x="185" y="385"/>
      <point x="235" y="427"/>
      <point x="300" y="427" type="curve" smooth="yes"/>
      <point x="453" y="427"/>
      <point x="464" y="270"/>
      <point x="464" y="218" type="curve" smooth="yes"/>
      <point x="464" y="44"/>
      <point x="365" y="-10"/>
      <point x="252" y="-10" type="curve" smooth="yes"/>
      <point x="188" y="-10"/>
      <point x="153" y="6"/>
      <point x="123" y="23" type="curve"/>
      <point x="89" y="-10" type="line"/>
      <point x="74" y="-3" type="line"/>
      <point x="74" y="546" type="line" smooth="yes"/>
      <point x="74" y="578"/>
      <point x="68" y="582"/>
      <point x="46" y="585" type="curve" smooth="yes"/>
    </contour>
    <contour>
      <point x="153" y="139" type="line" smooth="yes"/>
      <point x="153" y="118"/>
      <point x="154" y="100"/>
      <point x="159" y="85" type="curve" smooth="yes"/>
      <point x="175" y="43"/>
      <point x="208" y="20"/>
      <point x="253" y="20" type="curve" smooth="yes"/>
      <point x="337" y="20"/>
      <point x="375" y="88"/>
      <point x="375" y="213" type="curve" smooth="yes"/>
      <point x="375" y="360"/>
      <point x="300" y="381"/>
      <point x="266" y="381" type="curve" smooth="yes"/>
      <point x="218" y="381"/>
      <point x="182" y="362"/>
      <point x="162" y="321" type="curve" smooth="yes"/>
      <point x="155" y="308"/>
      <point x="153" y="294"/>
      <point x="153" y="273" type="curve" smooth="yes"/>
    </contour>
  </outline>
</glyph>
<glyph name="c" format="2">
  <advance width="453"/>
  <unicode hex="0063"/>
  <outline>
    <contour>
      <point x="36" y="204" type="curve" smooth="yes"/>
      <point x="36" y="317"/>
      <point x="88" y="427"/>
      <point x="242" y="427" type="curve" smooth="yes"/>
      <point x="334" y="427"/>
      <point x="390" y="383"/>
      <point x="390" y="344" type="curve" smooth="yes"/>
      <point x="390" y="312"/>
      <point x="357" y="301"/>
      <point x="340" y="301" type="curve" smooth="yes"/>
      <point x="324" y="301"/>
      <point x="319" y="309"/>
      <point x="314" y="323" type="curve" smooth="yes"/>
      <point x="297" y="369"/>
      <point x="272" y="397"/>
      <point x="233" y="397" type="curve" smooth="yes"/>
      <point x="174" y="397"/>
      <point x="124" y="346"/>
      <point x="124" y="219" type="curve" smooth="yes"/>
      <point x="124" y="139"/>
      <point x="148" y="34"/>
      <point x="249" y="34" type="curve" smooth="yes"/>
      <point x="311" y="34"/>
      <point x="345" y="65"/>
      <point x="371" y="124" type="curve"/>
      <point x="396" y="112" type="line"/>
      <point x="372" y="21"/>
      <point x="292" y="-10"/>
      <point x="233" y="-10" type="curve" smooth="yes"/>
      <point x="105" y="-10"/>
      <point x="36" y="62"/>
    </contour>
  </outline>
</glyph>
<glyph name="d" format="2">
  <advance width="547"/>
  <unicode hex="0064"/>
  <outline>
    <contour>
      <point x="36" y="200" type="curve" smooth="yes"/>
      <point x="36" y="274"/>
      <point x="58" y="330"/>
      <point x="94" y="368" type="curve" smooth="yes"/>
      <point x="130" y="405"/>
      <point x="182" y="427"/>
      <point x="252" y="427" type="curve" smooth="yes"/>
      <point x="291" y="427"/>
      <point x="322" y="419"/>
      <point x="346" y="406" type="curve"/>
      <point x="346" y="546" type="line" smooth="yes"/>
      <point x="346" y="578"/>
      <point x="341" y="582"/>
      <point x="319" y="585" type="curve" smooth="yes"/>
      <point x="286" y="588" type="line"/>
      <point x="286" y="609" type="line"/>
      <point x="420" y="631" type="line"/>
      <point x="426" y="626" type="line"/>
      <point x="426" y="74" type="line" smooth="yes"/>
      <point x="426" y="31"/>
      <point x="429" y="29"/>
      <point x="490" y="25" type="curve"/>
      <point x="490" y="0" type="line"/>
      <point x="352" y="0" type="line"/>
      <point x="345" y="6" type="line"/>
      <point x="345" y="48" type="line"/>
      <point x="299" y="10"/>
      <point x="259" y="-10"/>
      <point x="213" y="-10" type="curve" smooth="yes"/>
      <point x="101" y="-10"/>
      <point x="36" y="74"/>
    </contour>
    <contour>
      <point x="124" y="210" type="curve" smooth="yes"/>
      <point x="124" y="112"/>
      <point x="163" y="36"/>
      <point x="241" y="36" type="curve" smooth="yes"/>
      <point x="286" y="36"/>
      <point x="323" y="53"/>
      <point x="340" y="97" type="curve" smooth="yes"/>
      <point x="345" y="111"/>
      <point x="346" y="126"/>
      <point x="346" y="145" type="curve" smooth="yes"/>
      <point x="346" y="294" type="line" smooth="yes"/>
      <point x="346" y="317"/>
      <point x="345" y="329"/>
      <point x="338" y="343" type="curve" smooth="yes"/>
      <point x="323" y="378"/>
      <point x="291" y="397"/>
      <point x="251" y="397" type="curve" smooth="yes"/>
      <point x="164" y="397"/>
      <point x="124" y="320"/>
    </contour>
  </outline>
</glyph>
<glyph name="e" format="2">
  <advance width="469"/>
  <unicode hex="0065"/>
  <outline>
    <contour>
      <point x="36" y="205" type="curve" smooth="yes"/>
      <point x="36" y="332"/>
      <point x="99" y="427"/>
      <point x="231" y="427" type="curve" smooth="yes"/>
      <point x="387" y="427"/>
      <point x="403" y="306"/>
      <point x="403" y="256" type="curve" smooth="yes"/>
      <point x="403" y="228"/>
      <point x="387" y="224"/>
      <point x="369" y="224" type="curve" smooth="yes"/>
      <point x="124" y="224" type="line"/>
      <point x="122" y="135"/>
      <point x="144" y="33"/>
      <point x="249" y="33" type="curve" smooth="yes"/>
      <point x="316" y="33"/>
      <point x="348" y="74"/>
      <point x="372" y="123" type="curve"/>
      <point x="398" y="110" type="line"/>
      <point x="375" y="43"/>
      <point x="326" y="-10"/>
      <point x="232" y="-10" type="curve" smooth="yes"/>
      <point x="93" y="-10"/>
      <point x="36" y="71"/>
    </contour>
    <contour>
      <point x="125" y="256" type="curve"/>
      <point x="286" y="256" type="line" smooth="yes"/>
      <point x="309" y="256"/>
      <point x="314" y="267"/>
      <point x="314" y="283" type="curve" smooth="yes"/>
      <point x="314" y="316"/>
      <point x="305" y="397"/>
      <point x="226" y="397" type="curve" smooth="yes"/>
      <point x="138" y="397"/>
      <point x="125" y="291"/>
    </contour>
  </outline>
</glyph>
<glyph name="f" format="2">
  <advance width="291"/>
  <unicode hex="0066"/>
  <outline>
    <contour>
      <point x="22" y="383" type="line"/>
      <point x="22" y="417" type="line"/>
      <point x="87" y="417" type="line"/>
      <point x="87" y="446" type="line" smooth="yes"/>
      <point x="87" y="502"/>
      <point x="95" y="547"/>
      <point x="115" y="577" type="curve" smooth="yes"/>
      <point x="136" y="609"/>
      <point x="176" y="631"/>
      <point x="223" y="631" type="curve" smooth="yes"/>
      <point x="291" y="631"/>
      <point x="327" y="597"/>
      <point x="327" y="569" type="curve" smooth="yes"/>
      <point x="327" y="543"/>
      <point x="302" y="529"/>
      <point x="285" y="529" type="curve" smooth="yes"/>
      <point x="272" y="529"/>
      <point x="266" y="535"/>
      <point x="262" y="543" type="curve" smooth="yes"/>
      <point x="241" y="592"/>
      <point x="222" y="601"/>
      <point x="204" y="601" type="curve" smooth="yes"/>
      <point x="191" y="601"/>
      <point x="161" y="592"/>
      <point x="163" y="512" type="curve" smooth="yes"/>
      <point x="167" y="417" type="line"/>
      <point x="271" y="417" type="line"/>
      <point x="271" y="383" type="line"/>
      <point x="167" y="383" type="line"/>
      <point x="167" y="73" type="line" smooth="yes"/>
      <point x="167" y="30"/>
      <point x="170" y="28"/>
      <point x="248" y="25" type="curve"/>
      <point x="248" y="0" type="line"/>
      <point x="23" y="0" type="line"/>
      <point x="23" y="25" type="line"/>
      <point x="84" y="29"/>
      <point x="87" y="31"/>
      <point x="87" y="74" type="curve" smooth="yes"/>
      <point x="87" y="383" type="line"/>
    </contour>
  </outline>
</glyph>
<glyph name="g" format="2">
  <advance width="476"/>
  <unicode hex="0067"/>
  <outline>
    <contour>
      <point x="31" y="-82" type="curve" smooth="yes"/>
      <point x="31" y="-20"/>
      <point x="92" y="0"/>
      <point x="128" y="12" type="curve"/>
      <point x="128" y="14" type="line"/>
      <point x="88" y="18"/>
      <point x="54" y="50"/>
      <point x="54" y="80" type="curve" smooth="yes"/>
      <point x="54" y="113"/>
      <point x="86" y="138"/>
      <point x="132" y="156" type="curve"/>
      <point x="132" y="157" type="line"/>
      <point x="93" y="167"/>
      <point x="40" y="204"/>
      <point x="40" y="284" type="curve" smooth="yes"/>
      <point x="40" y="347"/>
      <point x="86" y="427"/>
      <point x="216" y="427" type="curve" smooth="yes"/>
      <point x="255" y="427"/>
      <point x="302" y="417"/>
      <point x="326" y="400" type="curve"/>
      <point x="434" y="435" type="line"/>
      <point x="441" y="428" type="line"/>
      <point x="424" y="374" type="line"/>
      <point x="357" y="364" type="line"/>
      <point x="372" y="349"/>
      <point x="383" y="320"/>
      <point x="383" y="284" type="curve" smooth="yes"/>
      <point x="383" y="181"/>
      <point x="292" y="145"/>
      <point x="211" y="145" type="curve" smooth="yes"/>
      <point x="202" y="145"/>
      <point x="184" y="146"/>
      <point x="168" y="148" type="curve"/>
      <point x="157" y="145"/>
      <point x="124" y="131"/>
      <point x="124" y="106" type="curve" smooth="yes"/>
      <point x="124" y="90"/>
      <point x="134" y="70"/>
      <point x="195" y="70" type="curve" smooth="yes"/>
      <point x="263" y="70" type="line" smooth="yes"/>
      <point x="354" y="70"/>
      <point x="427" y="37"/>
      <point x="427" y="-54" type="curve" smooth="yes"/>
      <point x="427" y="-107"/>
      <point x="399" y="-147"/>
      <point x="360" y="-171" type="curve" smooth="yes"/>
      <point x="319" y="-195"/>
      <point x="265" y="-206"/>
      <point x="214" y="-206" type="curve" smooth="yes"/>
      <point x="116" y="-206"/>
      <point x="31" y="-167"/>
    </contour>
    <contour>
      <point x="111" y="-77" type="curve" smooth="yes"/>
      <point x="111" y="-139"/>
      <point x="162" y="-176"/>
      <point x="234" y="-176" type="curve" smooth="yes"/>
      <point x="294" y="-176"/>
      <point x="355" y="-144"/>
      <point x="355" y="-76" type="curve" smooth="yes"/>
      <point x="355" y="-12"/>
      <point x="300" y="6"/>
      <point x="225" y="6" type="curve" smooth="yes"/>
      <point x="185" y="6"/>
      <point x="157" y="1"/>
      <point x="138" y="-14" type="curve" smooth="yes"/>
      <point x="120" y="-27"/>
      <point x="111" y="-48"/>
    </contour>
    <contour>
      <point x="127" y="284" type="curve" smooth="yes"/>
      <point x="127" y="213"/>
      <point x="167" y="175"/>
      <point x="214" y="175" type="curve" smooth="yes"/>
      <point x="264" y="175"/>
      <point x="301" y="213"/>
      <point x="301" y="284" type="curve" smooth="yes"/>
      <point x="301" y="366"/>
      <point x="258" y="397"/>
      <point x="216" y="397" type="curve" smooth="yes"/>
      <point x="171" y="397"/>
      <point x="127" y="368"/>
    </contour>
  </outline>
</glyph>
<glyph name="h" format="2">
  <advance width="558"/>
  <unicode hex="0068"/>
  <outline>
    <contour>
      <point x="15" y="0" type="line"/>
      <point x="15" y="25" type="line"/>
      <point x="74" y="29"/>
      <point x="78" y="32"/>
      <point x="78" y="74" type="curve" smooth="yes"/>
      <point x="78" y="546" type="line" smooth="yes"/>
      <point x="78" y="576"/>
      <point x="73" y="581"/>
      <point x="51" y="584" type="curve" smooth="yes"/>
      <point x="18" y="588" type="line"/>
      <point x="18" y="609" type="line"/>
      <point x="151" y="631" type="line"/>
      <point x="157" y="626" type="line"/>
      <point x="157" y="362" type="line"/>
      <point x="210" y="398"/>
      <point x="249" y="427"/>
      <point x="311" y="427" type="curve" smooth="yes"/>
      <point x="390" y="427"/>
      <point x="436" y="377"/>
      <point x="436" y="292" type="curve" smooth="yes"/>
      <point x="436" y="74" type="line" smooth="yes"/>
      <point x="436" y="32"/>
      <point x="442" y="29"/>
      <point x="500" y="25" type="curve"/>
      <point x="500" y="0" type="line"/>
      <point x="293" y="0" type="line"/>
      <point x="293" y="25" type="line"/>
      <point x="352" y="29"/>
      <point x="357" y="32"/>
      <point x="357" y="74" type="curve" smooth="yes"/>
      <point x="357" y="275" type="line" smooth="yes"/>
      <point x="357" y="349"/>
      <point x="325" y="381"/>
      <point x="267" y="381" type="curve" smooth="yes"/>
      <point x="222" y="381"/>
      <point x="183" y="353"/>
      <point x="165" y="319" type="curve" smooth="yes"/>
      <point x="159" y="306"/>
      <point x="158" y="294"/>
      <point x="158" y="273" type="curve" smooth="yes"/>
      <point x="158" y="74" type="line" smooth="yes"/>
      <point x="158" y="32"/>
      <point x="163" y="29"/>
      <point x="221" y="25" type="curve"/>
      <point x="221" y="0" type="line"/>
    </contour>
  </outline>
</glyph>
<glyph name="k" format="2">
  <advance width="482"/>
  <unicode hex="006B"/>
  <outline>
    <contour>
      <point x="14" y="0" type="line"/>
      <point x="14" y="25" type="line"/>
      <point x="75" y="29"/>
      <point x="78" y="31"/>
      <point x="78" y="74" type="curve" smooth="yes"/>
      <point x="78" y="546" type="line" smooth="yes"/>
      <point x="78" y="578"/>
      <point x="73" y="582"/>
      <point x="51" y="585" type="curve" smooth="yes"/>
      <point x="18" y="588" type="line"/>
      <point x="18" y="609" type="line"/>
      <point x="152" y="631" type="line"/>
      <point x="158" y="626" type="line"/>
      <point x="158" y="228" type="line"/>
      <point x="159" y="228" type="line"/>
      <point x="179" y="257"/>
      <point x="263" y="362"/>
      <point x="288" y="392" type="curve" smooth="yes"/>
      <point x="305" y="412"/>
      <point x="312" y="417"/>
      <point x="341" y="417" type="curve" smooth="yes"/>
      <point x="429" y="417" type="line"/>
      <point x="429" y="393" type="line"/>
      <point x="380" y="388"/>
      <point x="358" y="377"/>
      <point x="329" y="356" type="curve" smooth="yes"/>
      <point x="300" y="335"/>
      <point x="273" y="310"/>
      <point x="232" y="264" type="curve" smooth="yes"/>
      <point x="224" y="254"/>
      <point x="226" y="250"/>
      <point x="230" y="244" type="curve" smooth="yes"/>
      <point x="262" y="198"/>
      <point x="329" y="117"/>
      <point x="381" y="65" type="curve" smooth="yes"/>
      <point x="408" y="39"/>
      <point x="429" y="26"/>
      <point x="454" y="20" type="curve"/>
      <point x="454" y="-4" type="line"/>
      <point x="391" y="-2" type="line" smooth="yes"/>
      <point x="363" y="0"/>
      <point x="330" y="10"/>
      <point x="299" y="42" type="curve" smooth="yes"/>
      <point x="255" y="87"/>
      <point x="194" y="161"/>
      <point x="159" y="216" type="curve"/>
      <point x="158" y="216" type="line"/>
      <point x="158" y="74" type="line" smooth="yes"/>
      <point x="158" y="31"/>
      <point x="161" y="29"/>
      <point x="221" y="25" type="curve"/>
      <point x="221" y="0" type="line"/>
    </contour>
  </outline>
</glyph>
<glyph name="l" format="2">
  <advance width="255"/>
  <unicode hex="006C"/>
  <outline>
    <contour>
      <point x="14" y="0" type="line"/>
      <point x="14" y="25" type="line"/>
      <point x="75" y="29"/>
      <point x="78" y="31"/>
      <point x="78" y="74" type="curve" smooth="yes"/>
      <point x="78" y="546" type="line" smooth="yes"/>
      <point x="78" y="578"/>
      <point x="73" y="582"/>
      <point x="51" y="585" type="curve" smooth="yes"/>
      <point x="18" y="588" type="line"/>
      <point x="18" y="609" type="line"/>
      <point x="152" y="631" type="line"/>
      <point x="158" y="626" type="line"/>
      <point x="158" y="74" type="line" smooth="yes"/>
      <point x="158" y="31"/>
      <point x="161" y="29"/>
      <point x="221" y="25" type="curve"/>
      <point x="221" y="0" type="line"/>
    </contour>
  </outline>
</glyph>
<glyph name="m" format="2">
  <advance width="850"/>
  <unicode hex="006D"/>
  <outline>
    <contour>
      <point x="23" y="0" type="line"/>
      <point x="23" y="25" type="line"/>
      <point x="84" y="29"/>
      <point x="87" y="31"/>
      <point x="87" y="74" type="curve" smooth="yes"/>
      <point x="87" y="342" type="line" smooth="yes"/>
      <point x="87" y="372"/>
      <point x="82" y="377"/>
      <point x="60" y="380" type="curve" smooth="yes"/>
      <point x="27" y="384" type="line"/>
      <point x="27" y="405" type="line"/>
      <point x="159" y="427" type="line"/>
      <point x="167" y="362" type="line"/>
      <point x="197" y="384"/>
      <point x="250" y="427"/>
      <point x="316" y="427" type="curve" smooth="yes"/>
      <point x="375" y="427"/>
      <point x="407" y="401"/>
      <point x="428" y="361" type="curve"/>
      <point x="458" y="380"/>
      <point x="508" y="427"/>
      <point x="577" y="427" type="curve" smooth="yes"/>
      <point x="658" y="427"/>
      <point x="704" y="377"/>
      <point x="704" y="292" type="curve" smooth="yes"/>
      <point x="704" y="74" type="line" smooth="yes"/>
      <point x="704" y="31"/>
      <point x="707" y="29"/>
      <point x="768" y="25" type="curve"/>
      <point x="768" y="0" type="line"/>
      <point x="560" y="0" type="line"/>
      <point x="560" y="25" type="line"/>
      <point x="622" y="29"/>
      <point x="624" y="31"/>
      <point x="624" y="74" type="curve" smooth="yes"/>
      <point x="624" y="275" type="line" smooth="yes"/>
      <point x="624" y="350"/>
      <point x="592" y="381"/>
      <point x="538" y="381" type="curve" smooth="yes"/>
      <point x="491" y="381"/>
      <point x="454" y="354"/>
      <point x="441" y="320" type="curve" smooth="yes"/>
      <point x="436" y="306"/>
      <point x="435" y="294"/>
      <point x="435" y="273" type="curve" smooth="yes"/>
      <point x="435" y="74" type="line" smooth="yes"/>
      <point x="435" y="31"/>
      <point x="439" y="29"/>
      <point x="499" y="25" type="curve"/>
      <point x="499" y="0" type="line"/>
      <point x="292" y="0" type="line"/>
      <point x="292" y="25" type="line"/>
      <point x="353" y="29"/>
      <point x="356" y="31"/>
      <point x="356" y="74" type="curve" smooth="yes"/>
      <point x="356" y="275" type="line" smooth="yes"/>
      <point x="356" y="327"/>
      <point x="347" y="381"/>
      <point x="274" y="381" type="curve" smooth="yes"/>
      <point x="227" y="381"/>
      <point x="190" y="352"/>
      <point x="174" y="318" type="curve" smooth="yes"/>
      <point x="168" y="306"/>
      <point x="167" y="294"/>
      <point x="167" y="273" type="curve" smooth="yes"/>
      <point x="167" y="74" type="line" smooth="yes"/>
      <point x="167" y="31"/>
      <point x="170" y="29"/>
      <point x="231" y="25" type="curve"/>
      <point x="231" y="0" type="line"/>
    </contour>
  </outline>
</glyph>
<glyph name="n" format="2">
  <advance width="569"/>
  <unicode hex="006E"/>
  <outline>
    <contour>
      <point x="23" y="0" type="line"/>
      <point x="23" y="25" type="line"/>
      <point x="84" y="29"/>
      <point x="87" y="31"/>
      <point x="87" y="74" type="curve" smooth="yes"/>
      <point x="87" y="342" type="line" smooth="yes"/>
      <point x="87" y="372"/>
      <point x="82" y="377"/>
      <point x="60" y="380" type="curve" smooth="yes"/>
      <point x="27" y="384" type="line"/>
      <point x="27" y="405" type="line"/>
      <point x="154" y="427" type="line"/>
      <point x="166" y="362" type="line"/>
      <point x="219" y="396"/>
      <point x="258" y="427"/>
      <point x="321" y="427" type="curve" smooth="yes"/>
      <point x="399" y="427"/>
      <point x="446" y="377"/>
      <point x="446" y="292" type="curve" smooth="yes"/>
      <point x="446" y="74" type="line" smooth="yes"/>
      <point x="446" y="31"/>
      <point x="449" y="29"/>
      <point x="509" y="25" type="curve"/>
      <point x="509" y="0" type="line"/>
      <point x="302" y="0" type="line"/>
      <point x="302" y="25" type="line"/>
      <point x="363" y="29"/>
      <point x="366" y="31"/>
      <point x="366" y="74" type="curve" smooth="yes"/>
      <point x="366" y="275" type="line" smooth="yes"/>
      <point x="366" y="349"/>
      <point x="334" y="381"/>
      <point x="277" y="381" type="curve" smooth="yes"/>
      <point x="231" y="381"/>
      <point x="193" y="353"/>
      <point x="175" y="320" type="curve" smooth="yes"/>
      <point x="169" y="306"/>
      <point x="167" y="294"/>
      <point x="167" y="273" type="curve" smooth="yes"/>
      <point x="167" y="74" type="line" smooth="yes"/>
      <point x="167" y="31"/>
      <point x="170" y="29"/>
      <point x="231" y="25" type="curve"/>
      <point x="231" y="0" type="line"/>
    </contour>
  </outline>
</glyph>
<glyph name="o" format="2">
  <advance width="528"/>
  <unicode hex="006F"/>
  <outline>
    <contour>
      <point x="36" y="208" type="curve" smooth="yes"/>
      <point x="36" y="346"/>
      <point x="103" y="427"/>
      <point x="240" y="427" type="curve" smooth="yes"/>
      <point x="377" y="427"/>
      <point x="444" y="346"/>
      <point x="444" y="208" type="curve" smooth="yes"/>
      <point x="444" y="71"/>
      <point x="377" y="-10"/>
      <point x="240" y="-10" type="curve" smooth="yes"/>
      <point x="103" y="-10"/>
      <point x="36" y="71"/>
    </contour>
    <contour>
      <point x="124" y="208" type="curve" smooth="yes"/>
      <point x="124" y="91"/>
      <point x="161" y="20"/>
      <point x="240" y="20" type="curve" smooth="yes"/>
      <point x="318" y="20"/>
      <point x="355" y="91"/>
      <point x="355" y="208" type="curve" smooth="yes"/>
      <point x="355" y="326"/>
      <point x="318" y="397"/>
      <point x="240" y="397" type="curve" smooth="yes"/>
      <point x="161" y="397"/>
      <point x="124" y="326"/>
    </contour>
  </outline>
</glyph>
<glyph name="p" format="2">
  <advance width="559"/>
  <unicode hex="0070"/>
  <outline>
    <contour>
      <point x="18" y="-171" type="line"/>
      <point x="78" y="-167"/>
      <point x="82" y="-165"/>
      <point x="82" y="-122" type="curve" smooth="yes"/>
      <point x="82" y="342" type="line" smooth="yes"/>
      <point x="82" y="372"/>
      <point x="77" y="377"/>
      <point x="55" y="380" type="curve" smooth="yes"/>
      <point x="23" y="384" type="line"/>
      <point x="23" y="405" type="line"/>
      <point x="151" y="427" type="line"/>
      <point x="162" y="364" type="line"/>
      <point x="195" y="385"/>
      <point x="244" y="427"/>
      <point x="306" y="427" type="curve" smooth="yes"/>
      <point x="461" y="427"/>
      <point x="472" y="278"/>
      <point x="472" y="218" type="curve" smooth="yes"/>
      <point x="472" y="43"/>
      <point x="374" y="-10"/>
      <point x="259" y="-10" type="curve" smooth="yes"/>
      <point x="220" y="-10"/>
      <point x="180" y="-1"/>
      <point x="162" y="9" type="curve"/>
      <point x="162" y="-122" type="line" smooth="yes"/>
      <point x="162" y="-165"/>
      <point x="167" y="-167"/>
      <point x="238" y="-171" type="curve"/>
      <point x="238" y="-195" type="line"/>
      <point x="18" y="-195" type="line"/>
    </contour>
    <contour>
      <point x="162" y="133" type="line" smooth="yes"/>
      <point x="162" y="114"/>
      <point x="163" y="97"/>
      <point x="168" y="82" type="curve" smooth="yes"/>
      <point x="181" y="43"/>
      <point x="215" y="20"/>
      <point x="260" y="20" type="curve" smooth="yes"/>
      <point x="345" y="20"/>
      <point x="384" y="88"/>
      <point x="384" y="213" type="curve" smooth="yes"/>
      <point x="384" y="359"/>
      <point x="308" y="381"/>
      <point x="274" y="381" type="curve" smooth="yes"/>
      <point x="229" y="381"/>
      <point x="193" y="360"/>
      <point x="173" y="321" type="curve" smooth="yes"/>
      <point x="165" y="306"/>
      <point x="162" y="294"/>
      <point x="162" y="273" type="curve" smooth="yes"/>
    </contour>
  </outline>
</glyph>
<glyph name="q" format="2">
  <advance width="541"/>
  <unicode hex="0071"/>
  <outline>
    <contour>
      <point x="36" y="198" type="curve" smooth="yes"/>
      <point x="36" y="275"/>
      <point x="58" y="330"/>
      <point x="95" y="368" type="curve" smooth="yes"/>
      <point x="133" y="406"/>
      <point x="186" y="427"/>
      <point x="254" y="427" type="curve" smooth="yes"/>
      <point x="291" y="427"/>
      <point x="334" y="418"/>
      <point x="366" y="400" type="curve"/>
      <point x="403" y="427" type="line"/>
      <point x="426" y="427" type="line"/>
      <point x="426" y="-122" type="line" smooth="yes"/>
      <point x="426" y="-165"/>
      <point x="431" y="-167"/>
      <point x="490" y="-171" type="curve"/>
      <point x="490" y="-195" type="line"/>
      <point x="278" y="-195" type="line"/>
      <point x="278" y="-171" type="line"/>
      <point x="342" y="-167"/>
      <point x="346" y="-165"/>
      <point x="346" y="-122" type="curve" smooth="yes"/>
      <point x="346" y="45" type="line"/>
      <point x="302" y="13"/>
      <point x="260" y="-10"/>
      <point x="212" y="-10" type="curve" smooth="yes"/>
      <point x="110" y="-10"/>
      <point x="36" y="62"/>
    </contour>
    <contour>
      <point x="124" y="209" type="curve" smooth="yes"/>
      <point x="124" y="113"/>
      <point x="161" y="36"/>
      <point x="245" y="36" type="curve" smooth="yes"/>
      <point x="292" y="36"/>
      <point x="324" y="54"/>
      <point x="340" y="99" type="curve" smooth="yes"/>
      <point x="345" y="112"/>
      <point x="346" y="127"/>
      <point x="346" y="145" type="curve" smooth="yes"/>
      <point x="346" y="289" type="line" smooth="yes"/>
      <point x="346" y="309"/>
      <point x="344" y="325"/>
      <point x="339" y="338" type="curve" smooth="yes"/>
      <point x="323" y="382"/>
      <point x="292" y="397"/>
      <point x="247" y="397" type="curve" smooth="yes"/>
      <point x="161" y="397"/>
      <point x="124" y="314"/>
    </contour>
  </outline>
</glyph>
<glyph name="r" format="2">
  <advance width="356"/>
  <unicode hex="0072"/>
  <outline>
    <contour>
      <point x="23" y="0" type="line"/>
      <point x="23" y="25" type="line"/>
      <point x="83" y="29"/>
      <point x="87" y="31"/>
      <point x="87" y="74" type="curve" smooth="yes"/>
      <point x="87" y="342" type="line" smooth="yes"/>
      <point x="87" y="372"/>
      <point x="82" y="377"/>
      <point x="60" y="380" type="curve" smooth="yes"/>
      <point x="27" y="384" type="line"/>
      <point x="27" y="405" type="line"/>
      <point x="157" y="427" type="line"/>
      <point x="167" y="359" type="line"/>
      <point x="223" y="408"/>
      <point x="248" y="427"/>
      <point x="279" y="427" type="curve" smooth="yes"/>
      <point x="312" y="427"/>
      <point x="324" y="404"/>
      <point x="324" y="385" type="curve" smooth="yes"/>
      <point x="324" y="359"/>
      <point x="305" y="337"/>
      <point x="285" y="337" type="curve" smooth="yes"/>
      <point x="281" y="337"/>
      <point x="274" y="338"/>
      <point x="268" y="342" type="curve" smooth="yes"/>
      <point x="243" y="355"/>
      <point x="229" y="360"/>
      <point x="215" y="360" type="curve" smooth="yes"/>
      <point x="196" y="360"/>
      <point x="167" y="338"/>
      <point x="167" y="273" type="curve" smooth="yes"/>
      <point x="167" y="74" type="line" smooth="yes"/>
      <point x="167" y="31"/>
      <point x="172" y="29"/>
      <point x="248" y="25" type="curve"/>
      <point x="248" y="0" type="line"/>
    </contour>
  </outline>
</glyph>
<glyph name="s" format="2">
  <advance width="397"/>
  <unicode hex="0073"/>
  <outline>
    <contour>
      <point x="34" y="142" type="line"/>
      <point x="59" y="142" type="line"/>
      <point x="76" y="70"/>
      <point x="114" y="20"/>
      <point x="183" y="20" type="curve" smooth="yes"/>
      <point x="228" y="20"/>
      <point x="262" y="47"/>
      <point x="262" y="90" type="curve" smooth="yes"/>
      <point x="262" y="148"/>
      <point x="208" y="167"/>
      <point x="170" y="179" type="curve" smooth="yes"/>
      <point x="99" y="201"/>
      <point x="42" y="232"/>
      <point x="42" y="303" type="curve" smooth="yes"/>
      <point x="42" y="383"/>
      <point x="105" y="427"/>
      <point x="196" y="427" type="curve" smooth="yes"/>
      <point x="235" y="427"/>
      <point x="278" y="418"/>
      <point x="306" y="398" type="curve"/>
      <point x="306" y="298" type="line"/>
      <point x="281" y="298" type="line"/>
      <point x="275" y="350"/>
      <point x="246" y="397"/>
      <point x="186" y="397" type="curve" smooth="yes"/>
      <point x="144" y="397"/>
      <point x="110" y="372"/>
      <point x="110" y="328" type="curve" smooth="yes"/>
      <point x="110" y="281"/>
      <point x="166" y="263"/>
      <point x="201" y="252" type="curve" smooth="yes"/>
      <point x="288" y="224"/>
      <point x="334" y="190"/>
      <point x="334" y="116" type="curve" smooth="yes"/>
      <point x="334" y="43"/>
      <point x="276" y="-10"/>
      <point x="175" y="-10" type="curve" smooth="yes"/>
      <point x="125" y="-10"/>
      <point x="73" y="3"/>
      <point x="42" y="31" type="curve"/>
    </contour>
  </outline>
</glyph>
<glyph name="t" format="2">
  <advance width="314"/>
  <unicode hex="0074"/>
  <outline>
    <contour>
      <point x="22" y="383" type="line"/>
      <point x="22" y="417" type="line"/>
      <point x="87" y="417" type="line"/>
      <point x="139" y="524" type="line"/>
      <point x="163" y="524" type="line"/>
      <point x="163" y="417" type="line"/>
      <point x="273" y="417" type="line"/>
      <point x="273" y="383" type="line"/>
      <point x="163" y="383" type="line"/>
      <point x="163" y="119" type="line" smooth="yes"/>
      <point x="163" y="54"/>
      <point x="191" y="34"/>
      <point x="220" y="34" type="curve" smooth="yes"/>
      <point x="241" y="34"/>
      <point x="260" y="37"/>
      <point x="280" y="45" type="curve"/>
      <point x="287" y="27" type="line"/>
      <point x="262" y="12"/>
      <point x="221" y="-10"/>
      <point x="178" y="-10" type="curve" smooth="yes"/>
      <point x="148" y="-10"/>
      <point x="84" y="0"/>
      <point x="84" y="87" type="curve" smooth="yes"/>
      <point x="84" y="383" type="line"/>
    </contour>
  </outline>
</glyph>
<glyph name="u" format="2">
  <advance width="558"/>
  <unicode hex="0075"/>
  <outline>
    <contour>
      <point x="19" y="384" type="line"/>
      <point x="19" y="405" type="line"/>
      <point x="153" y="427" type="line"/>
      <point x="159" y="422" type="line"/>
      <point x="159" y="133" type="line" smooth="yes"/>
      <point x="159" y="66"/>
      <point x="195" y="36"/>
      <point x="244" y="36" type="curve" smooth="yes"/>
      <point x="289" y="36"/>
      <point x="329" y="60"/>
      <point x="349" y="99" type="curve" smooth="yes"/>
      <point x="353" y="108"/>
      <point x="356" y="127"/>
      <point x="356" y="150" type="curve" smooth="yes"/>
      <point x="356" y="342" type="line" smooth="yes"/>
      <point x="356" y="372"/>
      <point x="351" y="377"/>
      <point x="329" y="380" type="curve" smooth="yes"/>
      <point x="296" y="384" type="line"/>
      <point x="296" y="405" type="line"/>
      <point x="430" y="427" type="line"/>
      <point x="436" y="422" type="line"/>
      <point x="436" y="74" type="line" smooth="yes"/>
      <point x="436" y="31"/>
      <point x="441" y="29"/>
      <point x="499" y="25" type="curve"/>
      <point x="499" y="0" type="line"/>
      <point x="363" y="0" type="line"/>
      <point x="355" y="51" type="line"/>
      <point x="330" y="39"/>
      <point x="272" y="-10"/>
      <point x="199" y="-10" type="curve" smooth="yes"/>
      <point x="136" y="-10"/>
      <point x="79" y="20"/>
      <point x="79" y="117" type="curve" smooth="yes"/>
      <point x="79" y="342" type="line" smooth="yes"/>
      <point x="79" y="372"/>
      <point x="74" y="377"/>
      <point x="51" y="380" type="curve" smooth="yes"/>
    </contour>
  </outline>
</glyph>
<glyph name="v" format="2">
  <advance width="466"/>
  <unicode hex="0076"/>
  <outline>
    <contour>
      <point x="1" y="392" type="curve"/>
      <point x="1" y="417" type="line"/>
      <point x="191" y="417" type="line"/>
      <point x="191" y="392" type="line"/>
      <point x="153" y="388" type="line" smooth="yes"/>
      <point x="137" y="386"/>
      <point x="133" y="379"/>
      <point x="139" y="363" type="curve" smooth="yes"/>
      <point x="156" y="317"/>
      <point x="173" y="268"/>
      <point x="190" y="219" type="curve" smooth="yes"/>
      <point x="241" y="77" type="line"/>
      <point x="243" y="77" type="line"/>
      <point x="300" y="234" type="line" smooth="yes"/>
      <point x="320" y="288"/>
      <point x="336" y="337"/>
      <point x="343" y="365" type="curve" smooth="yes"/>
      <point x="346" y="377"/>
      <point x="343" y="386"/>
      <point x="330" y="388" type="curve" smooth="yes"/>
      <point x="288" y="392" type="line"/>
      <point x="288" y="417" type="line"/>
      <point x="450" y="417" type="line"/>
      <point x="450" y="392" type="line"/>
      <point x="411" y="390"/>
      <point x="401" y="385"/>
      <point x="388" y="355" type="curve" smooth="yes"/>
      <point x="377" y="328"/>
      <point x="352" y="272"/>
      <point x="327" y="206" type="curve" smooth="yes"/>
      <point x="252" y="0" type="line"/>
      <point x="190" y="0" type="line"/>
      <point x="125" y="184" type="line" smooth="yes"/>
      <point x="104" y="242"/>
      <point x="84" y="298"/>
      <point x="61" y="354" type="curve" smooth="yes"/>
      <point x="48" y="385"/>
      <point x="41" y="388"/>
    </contour>
  </outline>
</glyph>
<glyph name="w" format="2">
  <advance width="710"/>
  <unicode hex="0077"/>
  <outline>
    <contour>
      <point x="-2" y="392" type="curve"/>
      <point x="-2" y="417" type="line"/>
      <point x="178" y="417" type="line"/>
      <point x="178" y="392" type="line"/>
      <point x="148" y="389" type="line" smooth="yes"/>
      <point x="133" y="388"/>
      <point x="128" y="380"/>
      <point x="133" y="364" type="curve" smooth="yes"/>
      <point x="160" y="272"/>
      <point x="186" y="173"/>
      <point x="217" y="76" type="curve"/>
      <point x="218" y="76" type="line"/>
      <point x="317" y="406" type="line"/>
      <point x="382" y="406" type="line"/>
      <point x="417" y="296"/>
      <point x="451" y="186"/>
      <point x="488" y="76" type="curve"/>
      <point x="490" y="76" type="line"/>
      <point x="516" y="172"/>
      <point x="555" y="309"/>
      <point x="566" y="360" type="curve" smooth="yes"/>
      <point x="570" y="375"/>
      <point x="569" y="386"/>
      <point x="554" y="388" type="curve" smooth="yes"/>
      <point x="506" y="392" type="line"/>
      <point x="506" y="417" type="line"/>
      <point x="673" y="417" type="line"/>
      <point x="673" y="392" type="line"/>
      <point x="631" y="389"/>
      <point x="621" y="386"/>
      <point x="607" y="343" type="curve" smooth="yes"/>
      <point x="586" y="276"/>
      <point x="536" y="125"/>
      <point x="500" y="0" type="curve"/>
      <point x="435" y="0" type="line"/>
      <point x="401" y="108"/>
      <point x="366" y="216"/>
      <point x="331" y="324" type="curve"/>
      <point x="328" y="324" type="line"/>
      <point x="228" y="0" type="line"/>
      <point x="163" y="0" type="line"/>
      <point x="128" y="128"/>
      <point x="90" y="243"/>
      <point x="54" y="355" type="curve" smooth="yes"/>
      <point x="44" y="388"/>
      <point x="33" y="390"/>
    </contour>
  </outline>
</glyph>
<glyph name="x" format="2">
  <advance width="450"/>
  <unicode hex="0078"/>
  <outline>
    <contour>
      <point x="1" y="0" type="line"/>
      <point x="1" y="25" type="line"/>
      <point x="38" y="27"/>
      <point x="57" y="31"/>
      <point x="79" y="61" type="curve" smooth="yes"/>
      <point x="114" y="107"/>
      <point x="147" y="156"/>
      <point x="179" y="201" type="curve"/>
      <point x="142" y="256"/>
      <point x="105" y="311"/>
      <point x="70" y="360" type="curve" smooth="yes"/>
      <point x="49" y="388"/>
      <point x="41" y="390"/>
      <point x="7" y="392" type="curve"/>
      <point x="7" y="417" type="line"/>
      <point x="184" y="417" type="line"/>
      <point x="184" y="392" type="line"/>
      <point x="159" y="389" type="line" smooth="yes"/>
      <point x="146" y="388"/>
      <point x="145" y="378"/>
      <point x="151" y="368" type="curve" smooth="yes"/>
      <point x="223" y="262" type="line"/>
      <point x="224" y="262" type="line"/>
      <point x="249" y="301"/>
      <point x="272" y="337"/>
      <point x="292" y="369" type="curve" smooth="yes"/>
      <point x="298" y="378"/>
      <point x="299" y="387"/>
      <point x="286" y="388" type="curve" smooth="yes"/>
      <point x="252" y="392" type="line"/>
      <point x="252" y="417" type="line"/>
      <point x="411" y="417" type="line"/>
      <point x="411" y="392" type="line"/>
      <point x="370" y="390"/>
      <point x="359" y="387"/>
      <point x="337" y="360" type="curve" smooth="yes"/>
      <point x="303" y="320"/>
      <point x="270" y="277"/>
      <point x="242" y="235" type="curve"/>
      <point x="280" y="175"/>
      <point x="320" y="116"/>
      <point x="359" y="60" type="curve" smooth="yes"/>
      <point x="380" y="29"/>
      <point x="394" y="26"/>
      <point x="433" y="25" type="curve"/>
      <point x="433" y="0" type="line"/>
      <point x="233" y="0" type="line"/>
      <point x="233" y="25" type="line"/>
      <point x="269" y="29" type="line" smooth="yes"/>
      <point x="281" y="31"/>
      <point x="284" y="38"/>
      <point x="275" y="53" type="curve" smooth="yes"/>
      <point x="199" y="171" type="line"/>
      <point x="197" y="171" type="line"/>
      <point x="168" y="127"/>
      <point x="141" y="86"/>
      <point x="122" y="49" type="curve" smooth="yes"/>
      <point x="117" y="40"/>
      <point x="116" y="31"/>
      <point x="128" y="29" type="curve" smooth="yes"/>
      <point x="164" y="25" type="line"/>
      <point x="164" y="0" type="line"/>
    </contour>
  </outline>
</glyph>
<glyph name="y" format="2">
  <advance width="469"/>
  <unicode hex="0079"/>
  <outline>
    <contour>
      <point x="-3" y="392" type="curve"/>
      <point x="-3" y="417" type="line"/>
      <point x="191" y="417" type="line"/>
      <point x="191" y="392" type="line"/>
      <point x="155" y="388" type="line" smooth="yes"/>
      <point x="135" y="387"/>
      <point x="137" y="377"/>
      <point x="142" y="362" type="curve" smooth="yes"/>
      <point x="174" y="273"/>
      <point x="208" y="180"/>
      <point x="247" y="77" type="curve"/>
      <point x="248" y="77" type="line"/>
      <point x="286" y="179"/>
      <point x="330" y="308"/>
      <point x="343" y="359" type="curve" smooth="yes"/>
      <point x="347" y="376"/>
      <point x="345" y="386"/>
      <point x="331" y="388" type="curve" smooth="yes"/>
      <point x="287" y="392" type="line"/>
      <point x="287" y="417" type="line"/>
      <point x="450" y="417" type="line"/>
      <point x="450" y="392" type="line"/>
      <point x="407" y="389"/>
      <point x="402" y="383"/>
      <point x="387" y="349" type="curve" smooth="yes"/>
      <point x="361" y="289"/>
      <point x="282" y="82"/>
      <point x="230" y="-70" type="curve" smooth="yes"/>
      <point x="186" y="-195"/>
      <point x="143" y="-206"/>
      <point x="109" y="-206" type="curve" smooth="yes"/>
      <point x="73" y="-206"/>
      <point x="49" y="-182"/>
      <point x="49" y="-161" type="curve" smooth="yes"/>
      <point x="49" y="-137"/>
      <point x="71" y="-114"/>
      <point x="87" y="-114" type="curve" smooth="yes"/>
      <point x="97" y="-114"/>
      <point x="104" y="-118"/>
      <point x="112" y="-126" type="curve" smooth="yes"/>
      <point x="128" y="-141"/>
      <point x="135" y="-144"/>
      <point x="144" y="-144" type="curve" smooth="yes"/>
      <point x="153" y="-144"/>
      <point x="168" y="-136"/>
      <point x="181" y="-108" type="curve" smooth="yes"/>
      <point x="194" y="-81"/>
      <point x="202" y="-55"/>
      <point x="202" y="-36" type="curve" smooth="yes"/>
      <point x="202" y="-21"/>
      <point x="200" y="-8"/>
      <point x="195" y="6" type="curve" smooth="yes"/>
      <point x="174" y="65"/>
      <point x="104" y="246"/>
      <point x="61" y="348" type="curve" smooth="yes"/>
      <point x="46" y="385"/>
      <point x="38" y="390"/>
    </contour>
  </outline>
</glyph>
<glyph name="z" format="2">
  <advance width="442"/>
  <unicode hex="007A"/>
  <outline>
    <contour>
      <point x="14" y="13" type="line"/>
      <point x="105" y="138"/>
      <point x="194" y="262"/>
      <point x="282" y="387" type="curve"/>
      <point x="197" y="387" type="line" smooth="yes"/>
      <point x="105" y="387"/>
      <point x="87" y="369"/>
      <point x="76" y="291" type="curve"/>
      <point x="50" y="291" type="line"/>
      <point x="50" y="417" type="line"/>
      <point x="376" y="417" type="line"/>
      <point x="383" y="405" type="line"/>
      <point x="293" y="280"/>
      <point x="204" y="155"/>
      <point x="118" y="30" type="curve"/>
      <point x="228" y="30" type="line" smooth="yes"/>
      <point x="322" y="30"/>
      <point x="351" y="50"/>
      <point x="364" y="130" type="curve"/>
      <point x="391" y="130" type="line"/>
      <point x="382" y="0" type="line"/>
      <point x="21" y="0" type="line"/>
    </contour>
  </outline>
</glyph>
<glyph name="braceleft" format="2">
  <advance width="300"/>
  <unicode hex="007B"/>
  <outline>
    <contour>
      <point x="57" y="227" type="curve"/>
      <point x="57" y="252" type="line"/>
      <point x="119" y="251"/>
      <point x="136" y="291"/>
      <point x="130" y="349" type="curve" smooth="yes"/>
      <point x="122" y="429" type="line" smooth="yes"/>
      <point x="114" y="500"/>
      <point x="115" y="588"/>
      <point x="221" y="588" type="curve" smooth="yes"/>
      <point x="243" y="588" type="line"/>
      <point x="243" y="565" type="line"/>
      <point x="173" y="562"/>
      <point x="169" y="515"/>
      <point x="175" y="458" type="curve" smooth="yes"/>
      <point x="182" y="393" type="line" smooth="yes"/>
      <point x="189" y="325"/>
      <point x="205" y="263"/>
      <point x="105" y="242" type="curve"/>
      <point x="105" y="237" type="line"/>
      <point x="205" y="217"/>
      <point x="189" y="155"/>
      <point x="182" y="87" type="curve" smooth="yes"/>
      <point x="175" y="21" type="line" smooth="yes"/>
      <point x="169" y="-36"/>
      <point x="173" y="-82"/>
      <point x="243" y="-86" type="curve"/>
      <point x="243" y="-109" type="line"/>
      <point x="221" y="-109" type="line" smooth="yes"/>
      <point x="115" y="-109"/>
      <point x="114" y="-20"/>
      <point x="122" y="50" type="curve" smooth="yes"/>
      <point x="130" y="130" type="line" smooth="yes"/>
      <point x="137" y="190"/>
      <point x="125" y="227"/>
    </contour>
  </outline>
</glyph>
<glyph name="bar" format="2">
  <advance width="174"/>
  <unicode hex="007C"/>
  <outline>
    <contour>
      <point x="58" y="-212" type="line"/>
      <point x="58" y="638" type="line"/>
      <point x="116" y="638" type="line"/>
      <point x="116" y="-212" type="line"/>
    </contour>
  </outline>
</glyph>
<glyph name="braceright" format="2">
  <advance width="248"/>
  <unicode hex="007D"/>
  <outline>
    <contour>
      <point x="31" y="-86" type="line"/>
      <point x="101" y="-82"/>
      <point x="105" y="-36"/>
      <point x="99" y="21" type="curve" smooth="yes"/>
      <point x="92" y="87" type="line" smooth="yes"/>
      <point x="85" y="155"/>
      <point x="69" y="217"/>
      <point x="169" y="237" type="curve"/>
      <point x="169" y="242" type="line"/>
      <point x="69" y="263"/>
      <point x="85" y="325"/>
      <point x="92" y="393" type="curve" smooth="yes"/>
      <point x="99" y="458" type="line" smooth="yes"/>
      <point x="105" y="515"/>
      <point x="101" y="562"/>
      <point x="31" y="565" type="curve"/>
      <point x="31" y="588" type="line"/>
      <point x="53" y="588" type="line" smooth="yes"/>
      <point x="159" y="588"/>
      <point x="160" y="500"/>
      <point x="152" y="429" type="curve" smooth="yes"/>
      <point x="144" y="349" type="line" smooth="yes"/>
      <point x="137" y="289"/>
      <point x="151" y="252"/>
      <point x="217" y="252" type="curve"/>
      <point x="217" y="227" type="line"/>
      <point x="151" y="227"/>
      <point x="137" y="190"/>
      <point x="144" y="130" type="curve" smooth="yes"/>
      <point x="152" y="50" type="line" smooth="yes"/>
      <point x="160" y="-20"/>
      <point x="159" y="-109"/>
      <point x="53" y="-109" type="curve" smooth="yes"/>
      <point x="31" y="-109" type="line"/>
    </contour>
  </outline>
</glyph>
<glyph name="multiply" format="2">
  <advance width="469"/>
  <unicode hex="00D7"/>
  <outline>
    <contour>
      <point x="46" y="56" type="line"/>
      <point x="198" y="213" type="line"/>
      <point x="46" y="367" type="line"/>
      <point x="80" y="406" type="line"/>
      <point x="234" y="250" type="line"/>
      <point x="387" y="406" type="line"/>
      <point x="423" y="367" type="line"/>
      <point x="271" y="213" type="line"/>
      <point x="423" y="56" type="line"/>
      <point x="387" y="19" type="line"/>
      <point x="234" y="175" type="line"/>
      <point x="80" y="19" type="line"/>
    </contour>
  </outline>
</glyph>
<glyph name="divide" format="2">
  <advance width="459"/>
  <unicode hex="00F7"/>
  <outline>
    <contour>
      <point x="184" y="73" type="curve" smooth="yes"/>
      <point x="184" y="99"/>
      <point x="206" y="122"/>
      <point x="235" y="122" type="curve" smooth="yes"/>
      <point x="262" y="122"/>
      <point x="284" y="99"/>
      <point x="284" y="73" type="curve" smooth="yes"/>
      <point x="284" y="44"/>
      <point x="262" y="22"/>
      <point x="235" y="22" type="curve" smooth="yes"/>
      <point x="206" y="22"/>
      <point x="184" y="44"/>
    </contour>
    <contour>
      <point x="184" y="354" type="curve" smooth="yes"/>
      <point x="184" y="380"/>
      <point x="206" y="403"/>
      <point x="235" y="403" type="curve" smooth="yes"/>
      <point x="262" y="403"/>
      <point x="284" y="380"/>
      <point x="284" y="354" type="curve" smooth="yes"/>
      <point x="284" y="325"/>
      <point x="262" y="303"/>
      <point x="235" y="303" type="curve" smooth="yes"/>
      <point x="206" y="303"/>
      <point x="184" y="325"/>
    </contour>
    <component base="minus" xScale="0.85" yScale="0.85" xOffset="33" yOffset="28"/>
  </outline>
</glyph>
<glyph name="dotlessi" format="2">
  <advance width="265"/>
  <unicode hex="0131"/>
  <outline>
    <contour>
      <point x="23" y="0" type="line"/>
      <point x="23" y="25" type="line"/>
      <point x="84" y="29"/>
      <point x="87" y="31"/>
      <point x="87" y="74" type="curve" smooth="yes"/>
      <point x="87" y="342" type="line" smooth="yes"/>
      <point x="87" y="372"/>
      <point x="82" y="377"/>
      <point x="60" y="380" type="curve" smooth="yes"/>
      <point x="27" y="384" type="line"/>
      <point x="27" y="405" type="line"/>
      <point x="161" y="427" type="line"/>
      <point x="167" y="422" type="line"/>
      <point x="167" y="74" type="line" smooth="yes"/>
      <point x="167" y="31"/>
      <point x="170" y="29"/>
      <point x="231" y="25" type="curve"/>
      <point x="231" y="0" type="line"/>
    </contour>
  </outline>
</glyph>
<glyph name="uni0237" format="2">
  <advance width="263"/>
  <unicode hex="0237"/>
  <outline>
    <contour>
      <point x="-24" y="-185" type="line"/>
      <point x="28" y="-173"/>
      <point x="57" y="-155"/>
      <point x="72" y="-125" type="curve" smooth="yes"/>
      <point x="90" y="-90"/>
      <point x="94" y="-31"/>
      <point x="94" y="31" type="curve" smooth="yes"/>
      <point x="94" y="342" type="line" smooth="yes"/>
      <point x="94" y="371"/>
      <point x="89" y="377"/>
      <point x="67" y="380" type="curve" smooth="yes"/>
      <point x="35" y="384" type="line"/>
      <point x="35" y="405" type="line"/>
      <point x="168" y="427" type="line"/>
      <point x="174" y="422" type="line"/>
      <point x="174" y="6" type="line" smooth="yes"/>
      <point x="174" y="-100"/>
      <point x="149" y="-174"/>
      <point x="41" y="-198" type="curve" smooth="yes"/>
      <point x="17" y="-203"/>
      <point x="-7" y="-206"/>
      <point x="-22" y="-206" type="curve"/>
    </contour>
  </outline>
</glyph>
<glyph name="hamza-ar" format="2">
  <advance height="1000" width="293"/>
  <unicode hex="0621"/>
  <anchor x="147" y="-61" name="bottom"/>
  <anchor x="147" y="329" name="top"/>
  <outline>
    <contour>
      <point x="188" y="-26" type="line"/>
      <point x="121" y="-26"/>
      <point x="62" y="6"/>
      <point x="62" y="40" type="curve" smooth="yes"/>
      <point x="62" y="77"/>
      <point x="135" y="105"/>
      <point x="186" y="117" type="curve" smooth="yes"/>
      <point x="204" y="121"/>
      <point x="213" y="130"/>
      <point x="213" y="147" type="curve" smooth="yes"/>
      <point x="213" y="164"/>
      <point x="203" y="172"/>
      <point x="183" y="174" type="curve" smooth="yes"/>
      <point x="144" y="177"/>
      <point x="111" y="182"/>
      <point x="111" y="200" type="curve" smooth="yes"/>
      <point x="111" y="221"/>
      <point x="178" y="247"/>
      <point x="244" y="234" type="curve" smooth="yes"/>
      <point x="263" y="230"/>
      <point x="275" y="235"/>
      <point x="281" y="250" type="curve" smooth="yes"/>
      <point x="287" y="266"/>
      <point x="280" y="279"/>
      <point x="260" y="283" type="curve" smooth="yes"/>
      <point x="166" y="304"/>
      <point x="59" y="268"/>
      <point x="59" y="200" type="curve" smooth="yes"/>
      <point x="59" y="161"/>
      <point x="94" y="142"/>
      <point x="141" y="130" type="curve"/>
      <point x="144" y="157" type="line"/>
      <point x="79" y="137"/>
      <point x="10" y="102"/>
      <point x="10" y="44" type="curve" smooth="yes"/>
      <point x="10" y="-10"/>
      <point x="62" y="-35"/>
      <point x="188" y="-35" type="curve"/>
    </contour>
  </outline>
</glyph>
<glyph name="alef-ar" format="2">
  <advance height="1000" width="199"/>
  <unicode hex="0627"/>
  <anchor x="100" y="-52" name="bottom"/>
  <anchor x="66" y="660" name="top"/>
  <outline>
    <contour>
      <point x="163" y="-46" type="curve"/>
      <point x="189" y="0" type="line"/>
      <point x="186" y="9" type="line"/>
      <point x="146" y="19"/>
      <point x="127" y="51"/>
      <point x="127" y="107" type="curve" smooth="yes"/>
      <point x="127" y="431" type="line" smooth="yes"/>
      <point x="127" y="509"/>
      <point x="107" y="593"/>
      <point x="71" y="645" type="curve"/>
      <point x="27" y="609" type="line"/>
      <point x="59" y="563"/>
      <point x="76" y="494"/>
      <point x="76" y="427" type="curve" smooth="yes"/>
      <point x="76" y="104" type="line" smooth="yes"/>
      <point x="76" y="26"/>
      <point x="100" y="-31"/>
    </contour>
    <contour>
      <point x="78" y="451" type="curve"/>
      <point x="96" y="535" type="line"/>
      <point x="71" y="645" type="line"/>
      <point x="61" y="645" type="line"/>
      <point x="25" y="619"/>
      <point x="10" y="592"/>
      <point x="10" y="564" type="curve" smooth="yes"/>
      <point x="10" y="528"/>
      <point x="38" y="488"/>
    </contour>
  </outline>
</glyph>
<glyph name="hah-ar" format="2">
  <advance height="1000" width="506"/>
  <unicode hex="062D"/>
  <anchor x="253" y="-452" name="bottom"/>
  <anchor x="253" y="-113" name="center"/>
  <anchor x="314" y="368" name="top"/>
  <outline>
    <contour>
      <point x="463" y="-446" type="curve"/>
      <point x="465" y="-435" type="line"/>
      <point x="159" y="-390"/>
      <point x="61" y="-288"/>
      <point x="61" y="-130" type="curve" smooth="yes"/>
      <point x="60" y="18"/>
      <point x="198" y="142"/>
      <point x="467" y="158" type="curve" smooth="yes"/>
      <point x="483" y="159"/>
      <point x="495" y="170"/>
      <point x="496" y="185" type="curve" smooth="yes"/>
      <point x="497" y="207"/>
      <point x="484" y="219"/>
      <point x="466" y="220" type="curve" smooth="yes"/>
      <point x="349" y="228"/>
      <point x="242" y="279"/>
      <point x="196" y="368" type="curve" smooth="yes"/>
      <point x="188" y="382"/>
      <point x="174" y="389"/>
      <point x="160" y="384" type="curve" smooth="yes"/>
      <point x="146" y="379"/>
      <point x="138" y="364"/>
      <point x="143" y="348" type="curve" smooth="yes"/>
      <point x="161" y="281"/>
      <point x="177" y="200"/>
      <point x="179" y="127" type="curve"/>
      <point x="183" y="138" type="line"/>
      <point x="67" y="74"/>
      <point x="9" y="-32"/>
      <point x="10" y="-133" type="curve" smooth="yes"/>
      <point x="10" y="-306"/>
      <point x="125" y="-411"/>
    </contour>
    <contour>
      <point x="192" y="135" type="line"/>
      <point x="198" y="204"/>
      <point x="197" y="250"/>
      <point x="190" y="312" type="curve"/>
      <point x="175" y="304" type="line"/>
      <point x="222" y="240"/>
      <point x="294" y="197"/>
      <point x="392" y="187" type="curve"/>
      <point x="392" y="195" type="line"/>
      <point x="310" y="190"/>
      <point x="242" y="170"/>
      <point x="187" y="140" type="curve"/>
    </contour>
  </outline>
</glyph>
<glyph name="dal-ar" format="2">
  <advance height="1000" width="379"/>
  <unicode hex="062F"/>
  <anchor x="140" y="-80" name="bottom"/>
  <anchor x="255" y="363" name="top"/>
  <outline>
    <contour>
      <point x="70" y="-37" type="line"/>
      <point x="78" y="-37" type="line"/>
      <point x="119" y="29" type="line"/>
      <point x="162" y="57"/>
      <point x="217" y="73"/>
      <point x="279" y="72" type="curve" smooth="yes"/>
      <point x="296" y="73"/>
      <point x="313" y="72"/>
      <point x="331" y="69" type="curve" smooth="yes"/>
      <point x="350" y="66"/>
      <point x="362" y="73"/>
      <point x="367" y="91" type="curve" smooth="yes"/>
      <point x="373" y="113"/>
      <point x="367" y="125"/>
      <point x="347" y="131" type="curve" smooth="yes"/>
      <point x="187" y="183"/>
      <point x="121" y="274"/>
      <point x="121" y="409" type="curve"/>
      <point x="66" y="409" type="line"/>
      <point x="50" y="284" type="line"/>
      <point x="65" y="282" type="line"/>
      <point x="93" y="363" type="line"/>
      <point x="73" y="351" type="line"/>
      <point x="86" y="243"/>
      <point x="140" y="163"/>
      <point x="243" y="109" type="curve"/>
      <point x="244" y="130" type="line"/>
      <point x="158" y="122"/>
      <point x="77" y="85"/>
      <point x="20" y="18" type="curve"/>
      <point x="20" y="9" type="line"/>
    </contour>
  </outline>
</glyph>
<glyph name="reh-ar" format="2">
  <advance height="1000" width="383"/>
  <unicode hex="0631"/>
  <anchor x="280" y="-210" name="bottom"/>
  <anchor x="288" y="248" name="top"/>
  <outline>
    <contour>
      <point x="117" y="-208" type="curve" smooth="yes"/>
      <point x="320" y="-208"/>
      <point x="373" y="-28"/>
      <point x="373" y="52" type="curve" smooth="yes"/>
      <point x="373" y="111"/>
      <point x="354" y="177"/>
      <point x="318" y="217" type="curve"/>
      <point x="309" y="216" type="line"/>
      <point x="336" y="43" type="line"/>
      <point x="316" y="-97"/>
      <point x="150" y="-167"/>
      <point x="39" y="-167" type="curve" smooth="yes"/>
      <point x="10" y="-167" type="line"/>
      <point x="10" y="-180" type="line"/>
      <point x="38" y="-197"/>
      <point x="82" y="-208"/>
    </contour>
    <contour>
      <point x="326" y="-9" type="curve"/>
      <point x="354" y="96" type="line"/>
      <point x="318" y="217" type="line"/>
      <point x="309" y="217" type="line"/>
      <point x="273" y="198"/>
      <point x="261" y="180"/>
      <point x="261" y="162" type="curve" smooth="yes"/>
      <point x="261" y="119"/>
      <point x="327" y="72"/>
      <point x="327" y="4" type="curve" smooth="yes"/>
      <point x="327" y="0"/>
      <point x="327" y="-5"/>
    </contour>
  </outline>
</glyph>
<glyph name="seen-ar" format="2">
  <advance height="1000" width="947"/>
  <unicode hex="0633"/>
  <anchor x="799" y="-106" name="bottom"/>
  <anchor x="706" y="251" name="top"/>
  <outline>
    <contour>
      <point x="383" y="-284" type="curve" smooth="yes"/>
      <point x="635" y="-284"/>
      <point x="711" y="-71"/>
      <point x="633" y="141" type="curve"/>
      <point x="586" y="119" type="line"/>
      <point x="653" y="-64"/>
      <point x="591" y="-232"/>
      <point x="383" y="-232" type="curve" smooth="yes"/>
      <point x="202" y="-232"/>
      <point x="111" y="-106"/>
      <point x="67" y="72" type="curve"/>
      <point x="54" y="68" type="line"/>
      <point x="95" y="-130"/>
      <point x="190" y="-284"/>
    </contour>
    <contour>
      <point x="681" y="0" type="curve"/>
      <point x="681" y="52" type="line"/>
      <point x="651" y="52"/>
      <point x="633" y="71"/>
      <point x="633" y="141" type="curve"/>
      <point x="601" y="98" type="line"/>
      <point x="601" y="60"/>
      <point x="614" y="0"/>
    </contour>
    <contour>
      <point x="681" y="0" type="line"/>
      <point x="739" y="0"/>
      <point x="781" y="27"/>
      <point x="781" y="142" type="curve"/>
      <point x="729" y="142" type="line"/>
      <point x="729" y="71"/>
      <point x="711" y="52"/>
      <point x="681" y="52" type="curve"/>
    </contour>
    <contour>
      <point x="829" y="0" type="curve"/>
      <point x="829" y="52" type="line"/>
      <point x="799" y="52"/>
      <point x="781" y="71"/>
      <point x="781" y="142" type="curve"/>
      <point x="729" y="142" type="line"/>
      <point x="729" y="27"/>
      <point x="761" y="0"/>
    </contour>
    <contour>
      <point x="829" y="0" type="line"/>
      <point x="949" y="0"/>
      <point x="921" y="153"/>
      <point x="850" y="255" type="curve"/>
      <point x="817" y="204" type="line"/>
      <point x="865" y="133"/>
      <point x="888" y="52"/>
      <point x="829" y="52" type="curve"/>
    </contour>
    <contour>
      <point x="880" y="114" type="curve"/>
      <point x="880" y="192" type="line"/>
      <point x="850" y="255" type="line"/>
      <point x="841" y="254" type="line"/>
      <point x="775" y="189"/>
      <point x="803" y="157"/>
    </contour>
  </outline>
</glyph>
<glyph name="sad-ar" format="2">
  <advance height="1000" width="672"/>
  <unicode hex="0635"/>
  <anchor x="488" y="-48" name="bottom"/>
  <anchor x="483" y="338" name="top"/>
  <outline>
    <contour>
      <point x="162" y="-164" type="curve" smooth="yes"/>
      <point x="260" y="-164"/>
      <point x="339" y="-85"/>
      <point x="339" y="12" type="curve"/>
      <point x="329" y="0" type="line"/>
      <point x="395" y="0" type="line"/>
      <point x="395" y="52" type="line"/>
      <point x="337" y="52" type="line" smooth="yes"/>
      <point x="305" y="52"/>
      <point x="287" y="38"/>
      <point x="287" y="12" type="curve" smooth="yes"/>
      <point x="287" y="-56"/>
      <point x="231" y="-112"/>
      <point x="162" y="-112" type="curve" smooth="yes"/>
      <point x="90" y="-112"/>
      <point x="31" y="-56"/>
      <point x="31" y="13" type="curve" smooth="yes"/>
      <point x="31" y="60"/>
      <point x="39" y="83"/>
      <point x="77" y="137" type="curve"/>
      <point x="71" y="141" type="line"/>
      <point x="27" y="95"/>
      <point x="10" y="49"/>
      <point x="10" y="2" type="curve" smooth="yes"/>
      <point x="10" y="-85"/>
      <point x="78" y="-164"/>
    </contour>
    <contour>
      <point x="395" y="0" type="curve" smooth="yes"/>
      <point x="555" y="0" type="line" smooth="yes"/>
      <point x="632" y="0"/>
      <point x="662" y="51"/>
      <point x="662" y="139" type="curve" smooth="yes"/>
      <point x="662" y="204"/>
      <point x="618" y="298"/>
      <point x="503" y="298" type="curve" smooth="yes"/>
      <point x="384" y="298"/>
      <point x="296" y="216"/>
      <point x="296" y="105" type="curve" smooth="yes"/>
      <point x="296" y="51"/>
      <point x="325" y="0"/>
    </contour>
    <contour>
      <point x="395" y="52" type="line" smooth="yes"/>
      <point x="363" y="52"/>
      <point x="348" y="76"/>
      <point x="348" y="105" type="curve" smooth="yes"/>
      <point x="348" y="186"/>
      <point x="412" y="246"/>
      <point x="503" y="246" type="curve" smooth="yes"/>
      <point x="577" y="246"/>
      <point x="610" y="183"/>
      <point x="610" y="139" type="curve" smooth="yes"/>
      <point x="610" y="88"/>
      <point x="593" y="52"/>
      <point x="555" y="52" type="curve" smooth="yes"/>
    </contour>
  </outline>
</glyph>
<glyph name="tah-ar" format="2">
  <advance height="1000" width="386"/>
  <unicode hex="0637"/>
  <anchor x="193" y="-40" name="bottom"/>
  <anchor x="125" y="328" name="top"/>
  <outline>
    <contour>
      <point x="90" y="20" type="line"/>
      <point x="367" y="20"/>
      <point x="373" y="374"/>
      <point x="250" y="489" type="curve"/>
      <point x="218" y="449" type="line"/>
      <point x="327" y="340"/>
      <point x="303" y="52"/>
      <point x="109" y="52" type="curve"/>
    </contour>
    <contour>
      <point x="109" y="0" type="curve" smooth="yes"/>
      <point x="269" y="0" type="line" smooth="yes"/>
      <point x="346" y="0"/>
      <point x="376" y="51"/>
      <point x="376" y="139" type="curve" smooth="yes"/>
      <point x="376" y="204"/>
      <point x="332" y="298"/>
      <point x="217" y="298" type="curve" smooth="yes"/>
      <point x="98" y="298"/>
      <point x="10" y="216"/>
      <point x="10" y="105" type="curve" smooth="yes"/>
      <point x="10" y="51"/>
      <point x="39" y="0"/>
    </contour>
    <contour>
      <point x="109" y="52" type="line" smooth="yes"/>
      <point x="77" y="52"/>
      <point x="62" y="76"/>
      <point x="62" y="105" type="curve" smooth="yes"/>
      <point x="62" y="186"/>
      <point x="126" y="246"/>
      <point x="217" y="246" type="curve" smooth="yes"/>
      <point x="291" y="246"/>
      <point x="324" y="183"/>
      <point x="324" y="139" type="curve" smooth="yes"/>
      <point x="324" y="88"/>
      <point x="307" y="52"/>
      <point x="269" y="52" type="curve" smooth="yes"/>
    </contour>
    <contour>
      <point x="287" y="341" type="curve"/>
      <point x="280" y="426" type="line"/>
      <point x="250" y="489" type="line"/>
      <point x="241" y="488" type="line"/>
      <point x="175" y="420"/>
      <point x="205" y="386"/>
    </contour>
  </outline>
</glyph>
<glyph name="ain-ar" format="2">
  <advance height="1000" width="600"/>
  <unicode hex="0639"/>
  <anchor x="410" y="-30" name="bottom"/>
  <anchor x="410" y="490" name="top"/>
  <outline>
    <contour>
      <point x="561" y="102"/>
      <point x="561" y="119" type="curve" smooth="yes"/>
      <point x="561" y="136"/>
      <point x="550" y="146"/>
      <point x="529" y="144" type="curve" smooth="yes"/>
      <point x="249" y="122"/>
      <point x="89" y="-21"/>
      <point x="90" y="-196" type="curve" smooth="yes"/>
      <point x="90" y="-369"/>
      <point x="205" y="-474"/>
      <point x="543" y="-509" type="curve"/>
      <point x="545" y="-498" type="line"/>
      <point x="239" y="-453"/>
      <point x="141" y="-351"/>
      <point x="141" y="-193" type="curve" smooth="yes"/>
      <point x="140" y="-49"/>
      <point x="273" y="71"/>
      <point x="531" y="90" type="curve" smooth="yes"/>
      <point x="551" y="92"/>
    </contour>
    <contour>
      <point x="375" y="70" type="curve"/>
      <point x="395" y="118" type="line"/>
      <point x="320" y="149"/>
      <point x="274" y="193"/>
      <point x="274" y="267" type="curve" smooth="yes"/>
      <point x="274" y="333"/>
      <point x="342" y="403"/>
      <point x="410" y="403" type="curve" smooth="yes"/>
      <point x="451" y="403"/>
      <point x="484" y="378"/>
      <point x="501" y="330" type="curve" smooth="yes"/>
      <point x="508" y="312"/>
      <point x="518" y="304"/>
      <point x="534" y="307" type="curve" smooth="yes"/>
      <point x="550" y="310"/>
      <point x="557" y="323"/>
      <point x="551" y="342" type="curve" smooth="yes"/>
      <point x="530" y="406"/>
      <point x="485" y="455"/>
      <point x="410" y="455" type="curve" smooth="yes"/>
      <point x="312" y="455"/>
      <point x="222" y="361"/>
      <point x="222" y="267" type="curve" smooth="yes"/>
      <point x="222" y="165"/>
      <point x="288" y="107"/>
    </contour>
  </outline>
</glyph>
<glyph name="kashida-ar" format="2">
  <advance height="1000" width="100"/>
  <unicode hex="0640"/>
  <anchor x="50" y="0" name="bottom"/>
  <anchor x="50" y="101" name="top"/>
  <outline>
    <contour>
      <point x="0" y="52" type="line"/>
      <point x="0" y="0" type="line"/>
      <point x="100" y="0" type="line"/>
      <point x="100" y="52" type="line"/>
    </contour>
  </outline>
</glyph>
<glyph name="kaf-ar" format="2">
  <advance height="1000" width="563"/>
  <unicode hex="0643"/>
  <anchor x="282" y="-40" name="bottom"/>
  <anchor x="328" y="362" name="top"/>
  <outline>
    <contour>
      <point x="41" y="175" type="line"/>
      <point x="-12" y="77"/>
      <point x="1" y="0"/>
      <point x="89" y="0" type="curve" smooth="yes"/>
      <point x="401" y="0" type="line" smooth="yes"/>
      <point x="468" y="0"/>
      <point x="553" y="20"/>
      <point x="553" y="89" type="curve" smooth="yes"/>
      <point x="553" y="240"/>
      <point x="161" y="172"/>
      <point x="161" y="317" type="curve" smooth="yes"/>
      <point x="161" y="451"/>
      <point x="229" y="621"/>
      <point x="152" y="621" type="curve" smooth="yes"/>
      <point x="116" y="621"/>
      <point x="85" y="564"/>
      <point x="68" y="520" type="curve"/>
      <point x="77" y="516" type="line"/>
      <point x="94" y="558"/>
      <point x="118" y="576"/>
      <point x="140" y="576" type="curve" smooth="yes"/>
      <point x="188" y="576"/>
      <point x="109" y="435"/>
      <point x="109" y="317" type="curve" smooth="yes"/>
      <point x="109" y="128"/>
      <point x="501" y="164"/>
      <point x="501" y="89" type="curve" smooth="yes"/>
      <point x="501" y="66"/>
      <point x="444" y="52"/>
      <point x="401" y="52" type="curve" smooth="yes"/>
      <point x="89" y="52" type="line" smooth="yes"/>
      <point x="44" y="52"/>
      <point x="25" y="93"/>
      <point x="52" y="172" type="curve"/>
    </contour>
  </outline>
</glyph>
<glyph name="lam-ar" format="2">
  <advance height="1000" width="643"/>
  <unicode hex="0644"/>
  <anchor x="580" y="-293" name="bottom"/>
  <anchor x="296" y="509" name="top"/>
  <outline>
    <contour>
      <point x="308" y="-301" type="curve" smooth="yes"/>
      <point x="488" y="-301"/>
      <point x="633" y="-153"/>
      <point x="633" y="30" type="curve"/>
      <point x="581" y="30" type="line"/>
      <point x="581" y="-128"/>
      <point x="462" y="-249"/>
      <point x="308" y="-249" type="curve" smooth="yes"/>
      <point x="154" y="-249"/>
      <point x="19" y="-173"/>
      <point x="35" y="30" type="curve"/>
      <point x="24" y="30" type="line"/>
      <point x="-5" y="-188"/>
      <point x="151" y="-301"/>
    </contour>
    <contour>
      <point x="581" y="30" type="line"/>
      <point x="633" y="30" type="line"/>
      <point x="633" y="427" type="line"/>
      <point x="581" y="427" type="line"/>
    </contour>
    <contour>
      <point x="584" y="451" type="curve"/>
      <point x="602" y="535" type="line"/>
      <point x="577" y="645" type="line"/>
      <point x="567" y="645" type="line"/>
      <point x="531" y="619"/>
      <point x="516" y="592"/>
      <point x="516" y="564" type="curve" smooth="yes"/>
      <point x="516" y="528"/>
      <point x="544" y="488"/>
    </contour>
    <contour>
      <point x="581" y="427" type="curve"/>
      <point x="633" y="427" type="line"/>
      <point x="633" y="509"/>
      <point x="613" y="593"/>
      <point x="577" y="645" type="curve"/>
      <point x="532" y="609" type="line"/>
      <point x="564" y="563"/>
      <point x="581" y="494"/>
    </contour>
  </outline>
</glyph>
<glyph name="meem-ar" format="2">
  <advance height="1000" width="397"/>
  <unicode hex="0645"/>
  <anchor x="239" y="-60" name="bottom"/>
  <anchor x="237" y="256" name="top"/>
  <outline>
    <contour>
      <point x="545" y="-257" type="line"/>
      <point x="136" y="-325"/>
      <point x="62" y="-176"/>
      <point x="62" y="-42" type="curve" smooth="yes"/>
      <point x="62" y="55"/>
      <point x="115" y="149"/>
      <point x="244" y="149" type="curve" smooth="yes"/>
      <point x="290" y="149"/>
      <point x="308" y="134"/>
      <point x="308" y="103" type="curve" smooth="yes"/>
      <point x="308" y="83"/>
      <point x="297" y="72"/>
      <point x="274" y="72" type="curve" smooth="yes"/>
      <point x="241" y="72"/>
      <point x="222" y="93"/>
      <point x="222" y="143" type="curve" smooth="yes"/>
      <point x="222" y="169" type="line"/>
      <point x="170" y="169" type="line"/>
      <point x="170" y="143" type="line" smooth="yes"/>
      <point x="170" y="65"/>
      <point x="210" y="20"/>
      <point x="274" y="20" type="curve" smooth="yes"/>
      <point x="331" y="20"/>
      <point x="360" y="58"/>
      <point x="360" y="103" type="curve" smooth="yes"/>
      <point x="360" y="162"/>
      <point x="318" y="201"/>
      <point x="244" y="201" type="curve" smooth="yes"/>
      <point x="75" y="201"/>
      <point x="10" y="73"/>
      <point x="10" y="-42" type="curve" smooth="yes"/>
      <point x="10" y="-182"/>
      <point x="104" y="-367"/>
      <point x="547" y="-266" type="curve"/>
    </contour>
  </outline>
</glyph>
<glyph name="heh-ar" format="2">
  <advance height="1000" width="295"/>
  <unicode hex="0647"/>
  <anchor x="123" y="-31" name="bottom"/>
  <anchor x="120" y="241" name="top"/>
  <outline>
    <contour>
      <point x="57" y="27"/>
      <point x="77" y="-1"/>
      <point x="123" y="-1" type="curve" smooth="yes"/>
      <point x="173" y="-1"/>
      <point x="186" y="35"/>
      <point x="186" y="74" type="curve" smooth="yes"/>
      <point x="186" y="126"/>
      <point x="129" y="168"/>
      <point x="20" y="206" type="curve"/>
      <point x="10" y="188" type="line"/>
      <point x="96" y="155"/>
      <point x="150" y="117"/>
      <point x="150" y="85" type="curve" smooth="yes"/>
      <point x="150" y="66"/>
      <point x="139" y="61"/>
      <point x="123" y="61" type="curve" smooth="yes"/>
      <point x="106" y="61"/>
      <point x="96" y="67"/>
      <point x="96" y="85" type="curve" smooth="yes"/>
      <point x="96" y="117"/>
      <point x="152" y="192"/>
      <point x="285" y="199" type="curve"/>
      <point x="281" y="212" type="line"/>
      <point x="117" y="222"/>
      <point x="57" y="127"/>
      <point x="57" y="70" type="curve" smooth="yes"/>
    </contour>
  </outline>
</glyph>
<glyph name="waw-ar" format="2">
  <advance height="1000" width="383"/>
  <unicode hex="0648"/>
  <anchor x="330" y="-152" name="bottom"/>
  <anchor x="271" y="0" name="center"/>
  <anchor x="283" y="228" name="top"/>
  <outline>
    <contour>
      <point x="117" y="-208" type="curve" smooth="yes"/>
      <point x="320" y="-208"/>
      <point x="373" y="-28"/>
      <point x="373" y="52" type="curve" smooth="yes"/>
      <point x="373" y="133"/>
      <point x="327" y="188"/>
      <point x="283" y="188" type="curve" smooth="yes"/>
      <point x="234" y="188"/>
      <point x="199" y="125"/>
      <point x="199" y="70" type="curve" smooth="yes"/>
      <point x="199" y="24"/>
      <point x="220" y="0"/>
      <point x="271" y="0" type="curve" smooth="yes"/>
      <point x="309" y="0"/>
      <point x="332" y="10"/>
      <point x="346" y="28" type="curve"/>
      <point x="336" y="45" type="line"/>
      <point x="317" y="-97"/>
      <point x="151" y="-167"/>
      <point x="39" y="-167" type="curve" smooth="yes"/>
      <point x="10" y="-167" type="line"/>
      <point x="10" y="-180" type="line"/>
      <point x="38" y="-197"/>
      <point x="82" y="-208"/>
    </contour>
    <contour>
      <point x="330" y="39" type="curve"/>
      <point x="335" y="65" type="line"/>
      <point x="325" y="57"/>
      <point x="302" y="50"/>
      <point x="283" y="51" type="curve" smooth="yes"/>
      <point x="263" y="51"/>
      <point x="247" y="58"/>
      <point x="247" y="79" type="curve" smooth="yes"/>
      <point x="247" y="96"/>
      <point x="264" y="108"/>
      <point x="283" y="108" type="curve" smooth="yes"/>
      <point x="312" y="108"/>
      <point x="328" y="66"/>
    </contour>
  </outline>
</glyph>
<glyph name="alefMaksura-ar" format="2">
  <advance height="1000" width="1084"/>
  <unicode hex="0649"/>
  <anchor x="613" y="-299" name="bottom"/>
  <anchor x="227" y="63" name="top"/>
  <outline>
    <contour>
      <point x="1029" y="107" type="curve"/>
      <point x="1043" y="107" type="line"/>
      <point x="1076" y="163"/>
      <point x="1042" y="210"/>
      <point x="973" y="210" type="curve" smooth="yes"/>
      <point x="928" y="210"/>
      <point x="888" y="182"/>
      <point x="888" y="121" type="curve" smooth="yes"/>
      <point x="888" y="9"/>
      <point x="1022" y="60"/>
      <point x="1022" y="-19" type="curve" smooth="yes"/>
      <point x="1022" y="-130"/>
      <point x="832" y="-227"/>
      <point x="614" y="-227" type="curve" smooth="yes"/>
      <point x="386" y="-227"/>
      <point x="128" y="-128"/>
      <point x="21" y="157" type="curve"/>
      <point x="10" y="153" type="line"/>
      <point x="118" y="-163"/>
      <point x="379" y="-279"/>
      <point x="613" y="-279" type="curve" smooth="yes"/>
      <point x="857" y="-279"/>
      <point x="1074" y="-164"/>
      <point x="1074" y="-19" type="curve" smooth="yes"/>
      <point x="1074" y="99"/>
      <point x="940" y="66"/>
      <point x="940" y="121" type="curve" smooth="yes"/>
      <point x="940" y="143"/>
      <point x="952" y="153"/>
      <point x="973" y="153" type="curve" smooth="yes"/>
      <point x="1000" y="153"/>
      <point x="1019" y="137"/>
    </contour>
  </outline>
</glyph>
<glyph name="fatha-ar" format="2">
  <advance height="1000"/>
  <unicode hex="064E"/>
  <anchor x="137" y="679" name="_top"/>
  <anchor x="137" y="735" name="top"/>
  <outline>
    <contour>
      <point x="26" y="683" type="line"/>
      <point x="39" y="686"/>
      <point x="124" y="694" type="qcurve" smooth="yes"/>
      <point x="195" y="700"/>
      <point x="212" y="709" type="qcurve" smooth="yes"/>
      <point x="248" y="731" type="line"/>
      <point x="199" y="726"/>
      <point x="150" y="722" type="qcurve" smooth="yes"/>
      <point x="80" y="714"/>
      <point x="62" y="705" type="qcurve" smooth="yes"/>
    </contour>
  </outline>
</glyph>
<glyph name="damma-ar" format="2">
  <advance height="1000"/>
  <unicode hex="064F"/>
  <anchor x="140" y="559" name="_top"/>
  <anchor x="140" y="693" name="top"/>
  <outline>
    <contour>
      <point x="66" y="576" type="line"/>
      <point x="78" y="573"/>
      <point x="90" y="572"/>
      <point x="104" y="572" type="curve" smooth="yes"/>
      <point x="159" y="572"/>
      <point x="213" y="604"/>
      <point x="213" y="638" type="curve" smooth="yes"/>
      <point x="213" y="659"/>
      <point x="201" y="680"/>
      <point x="178" y="680" type="curve" smooth="yes"/>
      <point x="155" y="680"/>
      <point x="135" y="662"/>
      <point x="135" y="639" type="curve" smooth="yes"/>
      <point x="135" y="627"/>
      <point x="143" y="615"/>
      <point x="155" y="607" type="curve"/>
      <point x="122" y="592"/>
      <point x="104" y="588"/>
      <point x="66" y="587" type="curve"/>
    </contour>
    <contour>
      <point x="174" y="619" type="curve"/>
      <point x="161" y="625"/>
      <point x="155" y="631"/>
      <point x="155" y="642" type="curve" smooth="yes"/>
      <point x="155" y="650"/>
      <point x="164" y="656"/>
      <point x="173" y="656" type="curve" smooth="yes"/>
      <point x="184" y="656"/>
      <point x="192" y="647"/>
      <point x="192" y="639" type="curve" smooth="yes"/>
      <point x="192" y="632"/>
      <point x="182" y="622"/>
    </contour>
  </outline>
</glyph>
<glyph name="kasra-ar" format="2">
  <advance height="1000"/>
  <unicode hex="0650"/>
  <anchor x="153" y="123" name="_bottom"/>
  <anchor x="153" y="51" name="bottom"/>
  <outline>
    <contour>
      <point x="42" y="63" type="line"/>
      <point x="55" y="66"/>
      <point x="140" y="74" type="qcurve" smooth="yes"/>
      <point x="211" y="80"/>
      <point x="228" y="89" type="qcurve" smooth="yes"/>
      <point x="264" y="111" type="line"/>
      <point x="215" y="106"/>
      <point x="166" y="102" type="qcurve" smooth="yes"/>
      <point x="96" y="94"/>
      <point x="78" y="85" type="qcurve" smooth="yes"/>
    </contour>
  </outline>
</glyph>
<glyph name="shadda-ar" format="2">
  <advance height="1000"/>
  <unicode hex="0651"/>
  <anchor x="142" y="569" name="_top"/>
  <anchor x="142" y="690" name="top"/>
  <outline>
    <contour>
      <point x="100" y="582" type="curve" smooth="yes"/>
      <point x="129" y="582"/>
      <point x="155" y="600"/>
      <point x="146" y="642" type="curve"/>
      <point x="135" y="627" type="line"/>
      <point x="152" y="608"/>
      <point x="170" y="606"/>
      <point x="192" y="613" type="curve" smooth="yes"/>
      <point x="212" y="620"/>
      <point x="227" y="647"/>
      <point x="200" y="690" type="curve"/>
      <point x="186" y="684" type="line"/>
      <point x="198" y="658"/>
      <point x="191" y="638"/>
      <point x="174" y="638" type="curve" smooth="yes"/>
      <point x="160" y="638"/>
      <point x="152" y="648"/>
      <point x="143" y="667" type="curve"/>
      <point x="120" y="655" type="line"/>
      <point x="129" y="632"/>
      <point x="125" y="612"/>
      <point x="105" y="612" type="curve" smooth="yes"/>
      <point x="90" y="612"/>
      <point x="79" y="623"/>
      <point x="83" y="648" type="curve"/>
      <point x="76" y="648" type="line"/>
      <point x="62" y="609"/>
      <point x="66" y="582"/>
    </contour>
  </outline>
</glyph>
<glyph name="sukun-ar" format="2">
  <advance height="1000"/>
  <unicode hex="0652"/>
  <anchor x="130" y="623" name="_top"/>
  <anchor x="130" y="789" name="top"/>
  <outline>
    <contour>
      <point x="130" y="638" type="curve" smooth="yes"/>
      <point x="157" y="638"/>
      <point x="179" y="649"/>
      <point x="179" y="682" type="curve" smooth="yes"/>
      <point x="179" y="719"/>
      <point x="142" y="732"/>
      <point x="134" y="763" type="curve"/>
      <point x="127" y="763" type="line"/>
      <point x="120" y="741" type="line"/>
      <point x="130" y="706"/>
      <point x="152" y="702"/>
      <point x="152" y="680" type="curve" smooth="yes"/>
      <point x="152" y="669"/>
      <point x="142" y="661"/>
      <point x="130" y="661" type="curve" smooth="yes"/>
      <point x="116" y="661"/>
      <point x="108" y="671"/>
      <point x="108" y="680" type="curve" smooth="yes"/>
      <point x="108" y="696"/>
      <point x="116" y="710"/>
      <point x="140" y="722" type="curve"/>
      <point x="138" y="735" type="line"/>
      <point x="104" y="726"/>
      <point x="82" y="704"/>
      <point x="82" y="679" type="curve" smooth="yes"/>
      <point x="82" y="653"/>
      <point x="104" y="638"/>
    </contour>
  </outline>
</glyph>
<glyph name="madda-ar" format="2">
  <advance height="1000"/>
  <unicode hex="0653"/>
  <anchor x="109" y="688" name="_top"/>
  <anchor x="109" y="753" name="top"/>
  <outline>
    <contour>
      <point x="55" y="734" type="curve"/>
      <point x="49" y="734" type="line"/>
      <point x="36" y="721"/>
      <point x="28" y="707"/>
      <point x="21" y="690" type="curve"/>
      <point x="26" y="688" type="line"/>
      <point x="33" y="698"/>
      <point x="40" y="706"/>
      <point x="50" y="712" type="curve"/>
      <point x="37" y="711" type="line"/>
      <point x="52" y="700"/>
      <point x="72" y="695"/>
      <point x="94" y="695" type="curve" smooth="yes"/>
      <point x="134" y="695"/>
      <point x="179" y="714"/>
      <point x="196" y="750" type="curve"/>
      <point x="192" y="753" type="line"/>
      <point x="167" y="731"/>
      <point x="137" y="720"/>
      <point x="108" y="720" type="curve" smooth="yes"/>
      <point x="89" y="720"/>
      <point x="71" y="725"/>
    </contour>
  </outline>
</glyph>
<glyph name="hamzaabove-ar" format="2">
  <advance height="1000"/>
  <unicode hex="0654"/>
  <anchor x="71" y="602" name="_top"/>
  <anchor x="71" y="787" name="top"/>
  <outline>
    <contour>
      <point x="90" y="625" type="curve"/>
      <point x="90" y="630" type="line"/>
      <point x="60" y="630"/>
      <point x="32" y="644"/>
      <point x="32" y="660" type="curve" smooth="yes"/>
      <point x="32" y="676"/>
      <point x="66" y="689"/>
      <point x="89" y="695" type="curve" smooth="yes"/>
      <point x="99" y="698"/>
      <point x="101" y="702"/>
      <point x="101" y="710" type="curve" smooth="yes"/>
      <point x="101" y="718"/>
      <point x="96" y="722"/>
      <point x="89" y="722" type="curve" smooth="yes"/>
      <point x="70" y="723"/>
      <point x="55" y="727"/>
      <point x="55" y="734" type="curve" smooth="yes"/>
      <point x="55" y="744"/>
      <point x="86" y="757"/>
      <point x="116" y="751" type="curve" smooth="yes"/>
      <point x="125" y="748"/>
      <point x="130" y="751"/>
      <point x="134" y="757" type="curve" smooth="yes"/>
      <point x="138" y="765"/>
      <point x="134" y="771"/>
      <point x="124" y="773" type="curve" smooth="yes"/>
      <point x="81" y="782"/>
      <point x="31" y="767"/>
      <point x="31" y="734" type="curve" smooth="yes"/>
      <point x="31" y="717"/>
      <point x="47" y="707"/>
      <point x="67" y="702" type="curve"/>
      <point x="70" y="714" type="line"/>
      <point x="38" y="705"/>
      <point x="7" y="689"/>
      <point x="7" y="661" type="curve" smooth="yes"/>
      <point x="7" y="636"/>
      <point x="32" y="625"/>
    </contour>
  </outline>
</glyph>
<glyph name="hamzabelow-ar" format="2">
  <advance height="1000"/>
  <unicode hex="0655"/>
  <anchor x="71" y="211" name="_bottom"/>
  <anchor x="71" y="33" name="bottom"/>
  <outline>
    <contour>
      <point x="90" y="45" type="curve"/>
      <point x="90" y="50" type="line"/>
      <point x="60" y="50"/>
      <point x="32" y="64"/>
      <point x="32" y="80" type="curve" smooth="yes"/>
      <point x="32" y="96"/>
      <point x="66" y="109"/>
      <point x="89" y="115" type="curve" smooth="yes"/>
      <point x="99" y="118"/>
      <point x="101" y="122"/>
      <point x="101" y="130" type="curve" smooth="yes"/>
      <point x="101" y="138"/>
      <point x="96" y="142"/>
      <point x="89" y="142" type="curve" smooth="yes"/>
      <point x="70" y="143"/>
      <point x="55" y="147"/>
      <point x="55" y="154" type="curve" smooth="yes"/>
      <point x="55" y="164"/>
      <point x="86" y="177"/>
      <point x="116" y="171" type="curve" smooth="yes"/>
      <point x="125" y="168"/>
      <point x="130" y="171"/>
      <point x="134" y="177" type="curve" smooth="yes"/>
      <point x="138" y="185"/>
      <point x="134" y="191"/>
      <point x="124" y="193" type="curve" smooth="yes"/>
      <point x="81" y="202"/>
      <point x="31" y="187"/>
      <point x="31" y="154" type="curve" smooth="yes"/>
      <point x="31" y="137"/>
      <point x="47" y="127"/>
      <point x="67" y="122" type="curve"/>
      <point x="70" y="134" type="line"/>
      <point x="38" y="125"/>
      <point x="7" y="109"/>
      <point x="7" y="81" type="curve" smooth="yes"/>
      <point x="7" y="56"/>
      <point x="32" y="45"/>
    </contour>
  </outline>
</glyph>
<glyph name="alefbelow-ar" format="2">
  <advance height="1000"/>
  <unicode hex="0656"/>
  <anchor x="143" y="157" name="_bottom"/>
  <anchor x="143" y="-9" name="bottom"/>
  <outline>
    <contour>
      <point x="147" y="3" type="line"/>
      <point x="153" y="3" type="line"/>
      <point x="159" y="23" type="line" smooth="yes"/>
      <point x="164" y="39"/>
      <point x="166" y="52"/>
      <point x="166" y="68" type="curve" smooth="yes"/>
      <point x="166" y="75" type="line" smooth="yes"/>
      <point x="166" y="95"/>
      <point x="161" y="112"/>
      <point x="153" y="130" type="curve" smooth="yes"/>
      <point x="143" y="145" type="line"/>
      <point x="130" y="128" type="line"/>
      <point x="136" y="120" type="line" smooth="yes"/>
      <point x="144" y="104"/>
      <point x="147" y="92"/>
      <point x="147" y="75" type="curve" smooth="yes"/>
    </contour>
    <contour>
      <point x="149" y="68" type="curve"/>
      <point x="151" y="103" type="line"/>
      <point x="143" y="145" type="line"/>
      <point x="139" y="145" type="line"/>
      <point x="125" y="135"/>
      <point x="120" y="125"/>
      <point x="120" y="113" type="curve" smooth="yes"/>
      <point x="120" y="101"/>
      <point x="132" y="84"/>
    </contour>
  </outline>
</glyph>
<glyph name="zero-ar" format="2">
  <advance height="1000" width="226"/>
  <unicode hex="0660"/>
  <outline>
    <contour>
      <point x="42" y="170" type="line"/>
      <point x="114" y="242" type="line"/>
      <point x="184" y="171" type="line"/>
      <point x="112" y="100" type="line"/>
    </contour>
  </outline>
</glyph>
<glyph name="one-ar" format="2">
  <advance height="1000" width="173"/>
  <unicode hex="0661"/>
  <outline>
    <contour>
      <point x="72" y="443" type="curve"/>
      <point x="121" y="315"/>
      <point x="146" y="196"/>
      <point x="146" y="80" type="curve"/>
      <point x="146" y="32"/>
      <point x="138" y="5"/>
      <point x="121" y="1" type="curve"/>
      <point x="121" y="116"/>
      <point x="89" y="249"/>
      <point x="27" y="402" type="curve"/>
      <point x="59" y="446" type="line"/>
      <point x="64" y="453"/>
      <point x="68" y="452"/>
    </contour>
  </outline>
</glyph>
<glyph name="two-ar" format="2">
  <advance height="1000" width="312"/>
  <unicode hex="0662"/>
  <outline>
    <contour>
      <point x="121" y="286" type="curve"/>
      <point x="138" y="211"/>
      <point x="146" y="142"/>
      <point x="146" y="79" type="curve"/>
      <point x="146" y="31"/>
      <point x="138" y="5"/>
      <point x="121" y="1" type="curve"/>
      <point x="121" y="116"/>
      <point x="89" y="250"/>
      <point x="27" y="402" type="curve"/>
      <point x="59" y="446" type="line"/>
      <point x="67" y="457"/>
      <point x="71" y="446"/>
      <point x="75" y="435" type="curve"/>
      <point x="80" y="421"/>
      <point x="94" y="386"/>
      <point x="96" y="382" type="curve"/>
      <point x="106" y="358"/>
      <point x="131" y="346"/>
      <point x="174" y="346" type="curve"/>
      <point x="223" y="346"/>
      <point x="251" y="374"/>
      <point x="256" y="431" type="curve"/>
      <point x="258" y="446" type="line"/>
      <point x="285" y="442" type="line"/>
      <point x="284" y="425" type="line"/>
      <point x="281" y="330"/>
      <point x="242" y="283"/>
      <point x="163" y="283" type="curve"/>
      <point x="147" y="283"/>
      <point x="135" y="284"/>
    </contour>
  </outline>
</glyph>
<glyph name="three-ar" format="2">
  <advance height="1000" width="379"/>
  <unicode hex="0663"/>
  <outline>
    <contour>
      <point x="121" y="286" type="curve"/>
      <point x="138" y="211"/>
      <point x="146" y="142"/>
      <point x="146" y="79" type="curve"/>
      <point x="146" y="31"/>
      <point x="138" y="5"/>
      <point x="121" y="1" type="curve"/>
      <point x="121" y="117"/>
      <point x="90" y="250"/>
      <point x="27" y="402" type="curve"/>
      <point x="59" y="446" type="line"/>
      <point x="64" y="453"/>
      <point x="69" y="452"/>
      <point x="72" y="443" type="curve"/>
      <point x="79" y="422"/>
      <point x="85" y="407"/>
      <point x="90" y="394" type="curve"/>
      <point x="102" y="362"/>
      <point x="123" y="346"/>
      <point x="155" y="346" type="curve"/>
      <point x="187" y="346"/>
      <point x="203" y="364"/>
      <point x="205" y="400" type="curve"/>
      <point x="207" y="434" type="line"/>
      <point x="238" y="433" type="line"/>
      <point x="239" y="400" type="line"/>
      <point x="241" y="364"/>
      <point x="252" y="346"/>
      <point x="274" y="346" type="curve"/>
      <point x="306" y="346"/>
      <point x="322" y="372"/>
      <point x="322" y="426" type="curve"/>
      <point x="322" y="442" type="line"/>
      <point x="352" y="440" type="line"/>
      <point x="352" y="416" type="line"/>
      <point x="352" y="330"/>
      <point x="327" y="286"/>
      <point x="275" y="286" type="curve"/>
      <point x="249" y="286"/>
      <point x="229" y="299"/>
      <point x="215" y="322" type="curve"/>
      <point x="198" y="297"/>
      <point x="173" y="284"/>
      <point x="141" y="284" type="curve"/>
      <point x="135" y="284"/>
      <point x="128" y="285"/>
    </contour>
  </outline>
</glyph>
<glyph name="four-ar" format="2">
  <advance height="1000" width="270"/>
  <unicode hex="0664"/>
  <outline>
    <contour>
      <point x="31" y="71" type="curve"/>
      <point x="31" y="112"/>
      <point x="64" y="153"/>
      <point x="127" y="197" type="curve"/>
      <point x="66" y="244" type="line"/>
      <point x="35" y="268"/>
      <point x="27" y="280"/>
      <point x="27" y="298" type="curve"/>
      <point x="27" y="318"/>
      <point x="37" y="338"/>
      <point x="58" y="357" type="curve"/>
      <point x="79" y="375"/>
      <point x="119" y="397"/>
      <point x="179" y="422" type="curve"/>
      <point x="185" y="425"/>
      <point x="190" y="426"/>
      <point x="194" y="426" type="curve"/>
      <point x="199" y="426"/>
      <point x="201" y="423"/>
      <point x="201" y="418" type="curve"/>
      <point x="201" y="416"/>
      <point x="201" y="414"/>
      <point x="201" y="413" type="curve"/>
      <point x="195" y="386" type="line"/>
      <point x="192" y="374"/>
      <point x="189" y="360"/>
      <point x="187" y="346" type="curve"/>
      <point x="161" y="345"/>
      <point x="128" y="338"/>
      <point x="89" y="325" type="curve"/>
      <point x="81" y="322"/>
      <point x="78" y="319"/>
      <point x="78" y="314" type="curve"/>
      <point x="78" y="310"/>
      <point x="83" y="303"/>
      <point x="92" y="295" type="curve"/>
      <point x="151" y="249" type="line"/>
      <point x="168" y="234"/>
      <point x="178" y="222"/>
      <point x="178" y="209" type="curve"/>
      <point x="178" y="195"/>
      <point x="167" y="181"/>
      <point x="147" y="165" type="curve"/>
      <point x="127" y="150"/>
      <point x="105" y="130"/>
      <point x="81" y="106" type="curve"/>
      <point x="75" y="100"/>
      <point x="73" y="95"/>
      <point x="73" y="90" type="curve"/>
      <point x="73" y="86"/>
      <point x="78" y="82"/>
      <point x="87" y="80" type="curve"/>
      <point x="103" y="76"/>
      <point x="123" y="74"/>
      <point x="144" y="74" type="curve"/>
      <point x="172" y="74"/>
      <point x="205" y="78"/>
      <point x="243" y="83" type="curve"/>
      <point x="241" y="25" type="line"/>
      <point x="241" y="15"/>
      <point x="237" y="10"/>
      <point x="230" y="10" type="curve"/>
      <point x="211" y="8"/>
      <point x="193" y="7"/>
      <point x="176" y="7" type="curve"/>
      <point x="81" y="7"/>
      <point x="31" y="30"/>
    </contour>
  </outline>
</glyph>
<glyph name="five-ar" format="2">
  <advance height="1000" width="302"/>
  <unicode hex="0665"/>
  <outline>
    <contour>
      <point x="145" y="72" type="curve"/>
      <point x="211" y="72"/>
      <point x="245" y="97"/>
      <point x="245" y="147" type="curve"/>
      <point x="245" y="196"/>
      <point x="210" y="250"/>
      <point x="144" y="312" type="curve"/>
      <point x="83" y="242"/>
      <point x="53" y="186"/>
      <point x="53" y="142" type="curve"/>
      <point x="53" y="95"/>
      <point x="84" y="72"/>
    </contour>
    <contour>
      <point x="144" y="3" type="curve"/>
      <point x="62" y="3"/>
      <point x="21" y="49"/>
      <point x="21" y="138" type="curve"/>
      <point x="21" y="198"/>
      <point x="51" y="264"/>
      <point x="110" y="339" type="curve"/>
      <point x="84" y="358" type="line"/>
      <point x="125" y="429" type="line"/>
      <point x="229" y="331"/>
      <point x="281" y="238"/>
      <point x="281" y="147" type="curve"/>
      <point x="281" y="51"/>
      <point x="235" y="3"/>
    </contour>
  </outline>
</glyph>
<glyph name="six-ar" format="2">
  <advance height="1000" width="369"/>
  <unicode hex="0666"/>
  <outline>
    <contour>
      <point x="280" y="423" type="curve"/>
      <point x="284" y="225"/>
      <point x="306" y="103"/>
      <point x="348" y="60" type="curve"/>
      <point x="313" y="2" type="line"/>
      <point x="292" y="23"/>
      <point x="275" y="58"/>
      <point x="263" y="105" type="curve"/>
      <point x="251" y="154"/>
      <point x="247" y="238"/>
      <point x="245" y="361" type="curve"/>
      <point x="213" y="347"/>
      <point x="178" y="341"/>
      <point x="140" y="341" type="curve"/>
      <point x="107" y="341"/>
      <point x="73" y="346"/>
      <point x="36" y="355" type="curve"/>
      <point x="27" y="358"/>
      <point x="22" y="383"/>
      <point x="21" y="431" type="curve"/>
      <point x="21" y="438"/>
      <point x="25" y="441"/>
      <point x="30" y="439" type="curve"/>
      <point x="71" y="423"/>
      <point x="120" y="416"/>
      <point x="177" y="416" type="curve"/>
      <point x="209" y="416"/>
      <point x="243" y="418"/>
    </contour>
  </outline>
</glyph>
<glyph name="seven-ar" format="2">
  <advance height="1000" width="340"/>
  <unicode hex="0667"/>
  <outline>
    <contour>
      <point x="23" y="387" type="curve"/>
      <point x="52" y="450" type="line"/>
      <point x="52" y="452"/>
      <point x="53" y="452"/>
      <point x="54" y="452" type="curve"/>
      <point x="56" y="452"/>
      <point x="57" y="450"/>
      <point x="59" y="448" type="curve"/>
      <point x="101" y="374"/>
      <point x="138" y="266"/>
      <point x="168" y="128" type="curve"/>
      <point x="197" y="254"/>
      <point x="236" y="361"/>
      <point x="285" y="450" type="curve"/>
      <point x="287" y="453"/>
      <point x="288" y="454"/>
      <point x="289" y="454" type="curve"/>
      <point x="290" y="454"/>
      <point x="291" y="454"/>
      <point x="291" y="451" type="curve"/>
      <point x="317" y="388" type="line"/>
      <point x="245" y="262"/>
      <point x="200" y="134"/>
      <point x="180" y="2" type="curve"/>
      <point x="157" y="2" type="line"/>
      <point x="137" y="135"/>
      <point x="95" y="263"/>
    </contour>
  </outline>
</glyph>
<glyph name="eight-ar" format="2">
  <advance height="1000" width="340"/>
  <unicode hex="0668"/>
  <outline>
    <contour>
      <point x="52" y="2" type="curve"/>
      <point x="23" y="66" type="line"/>
      <point x="95" y="190"/>
      <point x="137" y="318"/>
      <point x="157" y="451" type="curve"/>
      <point x="180" y="451" type="line"/>
      <point x="200" y="320"/>
      <point x="245" y="191"/>
      <point x="317" y="66" type="curve"/>
      <point x="291" y="2" type="line"/>
      <point x="291" y="0"/>
      <point x="290" y="-1"/>
      <point x="289" y="-1" type="curve"/>
      <point x="288" y="-1"/>
      <point x="287" y="1"/>
      <point x="285" y="4" type="curve"/>
      <point x="236" y="92"/>
      <point x="197" y="199"/>
      <point x="168" y="325" type="curve"/>
      <point x="138" y="186"/>
      <point x="101" y="80"/>
      <point x="59" y="6" type="curve"/>
      <point x="57" y="2"/>
      <point x="56" y="1"/>
      <point x="54" y="1" type="curve"/>
      <point x="53" y="1"/>
      <point x="52" y="2"/>
    </contour>
  </outline>
</glyph>
<glyph name="nine-ar" format="2">
  <advance height="1000" width="298"/>
  <unicode hex="0669"/>
  <outline>
    <contour>
      <point x="182" y="230" type="curve"/>
      <point x="156" y="224"/>
      <point x="134" y="221"/>
      <point x="114" y="221" type="curve"/>
      <point x="55" y="221"/>
      <point x="27" y="249"/>
      <point x="27" y="303" type="curve"/>
      <point x="27" y="374"/>
      <point x="65" y="449"/>
      <point x="119" y="449" type="curve"/>
      <point x="191" y="449"/>
      <point x="211" y="372"/>
      <point x="216" y="280" type="curve"/>
      <point x="224" y="158"/>
      <point x="243" y="83"/>
      <point x="271" y="56" type="curve"/>
      <point x="241" y="1" type="line"/>
      <point x="227" y="13"/>
      <point x="216" y="29"/>
      <point x="207" y="51" type="curve"/>
      <point x="193" y="85"/>
      <point x="185" y="145"/>
    </contour>
    <contour>
      <point x="58" y="314" type="curve"/>
      <point x="58" y="287"/>
      <point x="87" y="282"/>
      <point x="115" y="282" type="curve"/>
      <point x="132" y="282"/>
      <point x="152" y="284"/>
      <point x="175" y="289" type="curve"/>
      <point x="171" y="345"/>
      <point x="158" y="382"/>
      <point x="112" y="382" type="curve"/>
      <point x="79" y="382"/>
      <point x="58" y="346"/>
    </contour>
  </outline>
</glyph>
<glyph name="percent-ar" format="2">
  <advance height="1000" width="355"/>
  <unicode hex="066A"/>
  <outline>
    <contour>
      <point x="269" y="58" type="curve"/>
      <point x="245" y="58"/>
      <point x="226" y="78"/>
      <point x="226" y="102" type="curve"/>
      <point x="226" y="126"/>
      <point x="245" y="145"/>
      <point x="269" y="145" type="curve"/>
      <point x="293" y="145"/>
      <point x="312" y="126"/>
      <point x="312" y="102" type="curve"/>
      <point x="312" y="78"/>
      <point x="293" y="58"/>
    </contour>
    <contour>
      <point x="90" y="376" type="curve"/>
      <point x="65" y="376"/>
      <point x="45" y="396"/>
      <point x="45" y="421" type="curve"/>
      <point x="45" y="445"/>
      <point x="65" y="466"/>
      <point x="90" y="466" type="curve"/>
      <point x="115" y="466"/>
      <point x="135" y="445"/>
      <point x="135" y="421" type="curve"/>
      <point x="135" y="396"/>
      <point x="115" y="376"/>
    </contour>
    <contour>
      <point x="30" y="0" type="line"/>
      <point x="275" y="529" type="line"/>
      <point x="325" y="529" type="line"/>
      <point x="84" y="0" type="line"/>
    </contour>
  </outline>
</glyph>
<glyph name="behDotless-ar" format="2">
  <advance height="1000" width="621"/>
  <unicode hex="066E"/>
  <anchor x="328" y="-54" name="bottom"/>
  <anchor x="295" y="0" name="ring"/>
  <anchor x="307" y="228" name="top"/>
  <outline>
    <contour>
      <point x="329" y="0" type="curve"/>
      <point x="329" y="51" type="line"/>
      <point x="181" y="51"/>
      <point x="52" y="137"/>
      <point x="52" y="289" type="curve" smooth="yes"/>
      <point x="52" y="482"/>
      <point x="187" y="582"/>
      <point x="328" y="582" type="curve" smooth="yes"/>
      <point x="380" y="582"/>
      <point x="433" y="567"/>
      <point x="479" y="537" type="curve"/>
      <point x="484" y="545" type="line"/>
      <point x="435" y="582"/>
      <point x="376" y="599"/>
      <point x="317" y="599" type="curve" smooth="yes"/>
      <point x="165" y="599"/>
      <point x="10" y="485"/>
      <point x="10" y="289" type="curve" smooth="yes"/>
      <point x="10" y="114"/>
      <point x="149" y="0"/>
    </contour>
    <contour>
      <point x="329" y="0" type="line"/>
      <point x="542" y="0"/>
      <point x="605" y="73"/>
      <point x="605" y="133" type="curve" smooth="yes"/>
      <point x="605" y="174"/>
      <point x="575" y="208"/>
      <point x="543" y="208" type="curve" smooth="yes"/>
      <point x="505" y="208"/>
      <point x="485" y="176"/>
      <point x="485" y="143" type="curve" smooth="yes"/>
      <point x="485" y="110"/>
      <point x="506" y="77"/>
      <point x="549" y="77" type="curve"/>
      <point x="519" y="90" type="line"/>
      <point x="486" y="67"/>
      <point x="427" y="51"/>
      <point x="329" y="51" type="curve"/>
    </contour>
  </outline>
</glyph>
<glyph name="qafDotless-ar" format="2">
  <advance height="1000" width="755"/>
  <unicode hex="066F"/>
  <anchor x="685" y="-168" name="bottom"/>
  <anchor x="625" y="272" name="top"/>
  <outline>
    <contour>
      <point x="339" y="-199" type="curve" smooth="yes"/>
      <point x="625" y="-199"/>
      <point x="735" y="44"/>
      <point x="735" y="122" type="curve" smooth="yes"/>
      <point x="735" y="192"/>
      <point x="685" y="233"/>
      <point x="630" y="233" type="curve" smooth="yes"/>
      <point x="560" y="233"/>
      <point x="518" y="177"/>
      <point x="518" y="120" type="curve" smooth="yes"/>
      <point x="518" y="64"/>
      <point x="557" y="7"/>
      <point x="643" y="0" type="curve"/>
      <point x="637" y="12" type="line"/>
      <point x="574" y="-93"/>
      <point x="464" y="-147"/>
      <point x="339" y="-147" type="curve" smooth="yes"/>
      <point x="158" y="-147"/>
      <point x="67" y="-21"/>
      <point x="23" y="157" type="curve"/>
      <point x="10" y="153" type="line"/>
      <point x="51" y="-45"/>
      <point x="146" y="-199"/>
    </contour>
    <contour>
      <point x="653" y="41" type="curve"/>
      <point x="673" y="51" type="line"/>
      <point x="604" y="53"/>
      <point x="574" y="92"/>
      <point x="574" y="127" type="curve" smooth="yes"/>
      <point x="574" y="155"/>
      <point x="595" y="181"/>
      <point x="630" y="181" type="curve" smooth="yes"/>
      <point x="658" y="181"/>
      <point x="676" y="153"/>
      <point x="676" y="117" type="curve" smooth="yes"/>
      <point x="676" y="93"/>
      <point x="667" y="72"/>
    </contour>
  </outline>
</glyph>
<glyph name="alefabove-ar" format="2">
  <advance height="1000"/>
  <unicode hex="0670"/>
  <anchor x="142" y="604" name="_top"/>
  <anchor x="143" y="772" name="top"/>
  <outline>
    <contour>
      <point x="147" y="616" type="line"/>
      <point x="153" y="616" type="line"/>
      <point x="159" y="636" type="line" smooth="yes"/>
      <point x="164" y="652"/>
      <point x="166" y="665"/>
      <point x="166" y="681" type="curve" smooth="yes"/>
      <point x="166" y="688" type="line" smooth="yes"/>
      <point x="166" y="708"/>
      <point x="161" y="725"/>
      <point x="153" y="743" type="curve" smooth="yes"/>
      <point x="143" y="758" type="line"/>
      <point x="130" y="741" type="line"/>
      <point x="136" y="733" type="line" smooth="yes"/>
      <point x="144" y="717"/>
      <point x="147" y="705"/>
      <point x="147" y="688" type="curve" smooth="yes"/>
    </contour>
    <contour>
      <point x="149" y="681" type="curve"/>
      <point x="151" y="716" type="line"/>
      <point x="143" y="758" type="line"/>
      <point x="139" y="758" type="line"/>
      <point x="125" y="748"/>
      <point x="120" y="738"/>
      <point x="120" y="726" type="curve" smooth="yes"/>
      <point x="120" y="714"/>
      <point x="132" y="697"/>
    </contour>
  </outline>
</glyph>
<glyph name="fehDotless-ar" format="2">
  <advance height="1000" width="636"/>
  <unicode hex="06A1"/>
  <anchor x="524" y="0" name="bottom"/>
  <anchor x="308" y="269" name="top"/>
  <outline>
    <contour>
      <point x="329" y="0" type="curve"/>
      <point x="329" y="52" type="line"/>
      <point x="186" y="52"/>
      <point x="62" y="138"/>
      <point x="62" y="289" type="curve" smooth="yes"/>
      <point x="62" y="482"/>
      <point x="192" y="582"/>
      <point x="328" y="582" type="curve" smooth="yes"/>
      <point x="380" y="582"/>
      <point x="433" y="567"/>
      <point x="479" y="537" type="curve"/>
      <point x="484" y="545" type="line"/>
      <point x="435" y="582"/>
      <point x="376" y="599"/>
      <point x="317" y="599" type="curve" smooth="yes"/>
      <point x="165" y="599"/>
      <point x="10" y="485"/>
      <point x="10" y="289" type="curve" smooth="yes"/>
      <point x="10" y="114"/>
      <point x="149" y="0"/>
    </contour>
    <contour>
      <point x="329" y="0" type="line"/>
      <point x="695" y="0"/>
      <point x="675" y="329"/>
      <point x="524" y="329" type="curve" smooth="yes"/>
      <point x="373" y="329"/>
      <point x="350" y="83"/>
      <point x="573" y="95" type="curve"/>
      <point x="573" y="147" type="line"/>
      <point x="441" y="147"/>
      <point x="445" y="277"/>
      <point x="524" y="277" type="curve" smooth="yes"/>
      <point x="603" y="277"/>
      <point x="604" y="52"/>
      <point x="329" y="52" type="curve"/>
    </contour>
  </outline>
</glyph>
<glyph name="noonghunna-ar" format="2">
  <advance height="1000" width="653"/>
  <unicode hex="06BA"/>
  <anchor x="579" y="-264" name="bottom"/>
  <anchor x="327" y="108" name="top"/>
  <outline>
    <contour>
      <point x="308" y="-301" type="curve" smooth="yes"/>
      <point x="488" y="-301"/>
      <point x="633" y="-153"/>
      <point x="633" y="30" type="curve"/>
      <point x="581" y="30" type="line"/>
      <point x="581" y="-128"/>
      <point x="462" y="-249"/>
      <point x="308" y="-249" type="curve" smooth="yes"/>
      <point x="154" y="-249"/>
      <point x="19" y="-173"/>
      <point x="35" y="30" type="curve"/>
      <point x="24" y="30" type="line"/>
      <point x="-5" y="-188"/>
      <point x="151" y="-301"/>
    </contour>
    <contour>
      <point x="581" y="30" type="curve"/>
      <point x="614" y="46" type="line"/>
      <point x="593" y="127" type="line"/>
      <point x="547" y="181" type="line"/>
      <point x="518" y="180"/>
      <point x="505" y="164"/>
      <point x="505" y="135" type="curve" smooth="yes"/>
      <point x="505" y="79"/>
      <point x="581" y="97"/>
    </contour>
    <contour>
      <point x="581" y="30" type="curve"/>
      <point x="633" y="30" type="line"/>
      <point x="633" y="92"/>
      <point x="610" y="181"/>
      <point x="547" y="181" type="curve"/>
      <point x="529" y="132" type="line"/>
      <point x="559" y="119"/>
      <point x="581" y="97"/>
    </contour>
  </outline>
</glyph>
<glyph name="endash" format="2">
  <advance width="425"/>
  <unicode hex="2013"/>
  <outline>
    <contour>
      <point x="0" y="188" type="line"/>
      <point x="0" y="237" type="line"/>
      <point x="425" y="237" type="line"/>
      <point x="425" y="188" type="line"/>
    </contour>
  </outline>
</glyph>
<glyph name="emdash" format="2">
  <advance width="850"/>
  <unicode hex="2014"/>
  <outline>
    <contour>
      <point x="0" y="188" type="line"/>
      <point x="0" y="237" type="line"/>
      <point x="850" y="237" type="line"/>
      <point x="850" y="188" type="line"/>
    </contour>
  </outline>
</glyph>
<glyph name="quoteleft" format="2">
  <advance width="219"/>
  <unicode hex="2018"/>
  <outline>
    <contour>
      <point x="52" y="479" type="curve" smooth="yes"/>
      <point x="52" y="540"/>
      <point x="110" y="597"/>
      <point x="153" y="636" type="curve"/>
      <point x="167" y="622" type="line"/>
      <point x="141" y="592"/>
      <point x="120" y="559"/>
      <point x="120" y="527" type="curve" smooth="yes"/>
      <point x="120" y="496"/>
      <point x="148" y="478"/>
      <point x="148" y="447" type="curve" smooth="yes"/>
      <point x="148" y="424"/>
      <point x="133" y="406"/>
      <point x="107" y="406" type="curve" smooth="yes"/>
      <point x="79" y="406"/>
      <point x="52" y="434"/>
    </contour>
  </outline>
</glyph>
<glyph name="quoteright" format="2">
  <advance width="219"/>
  <unicode hex="2019"/>
  <outline>
    <contour>
      <point x="52" y="415" type="line"/>
      <point x="79" y="445"/>
      <point x="99" y="478"/>
      <point x="99" y="510" type="curve" smooth="yes"/>
      <point x="99" y="541"/>
      <point x="71" y="559"/>
      <point x="71" y="590" type="curve" smooth="yes"/>
      <point x="71" y="613"/>
      <point x="86" y="631"/>
      <point x="112" y="631" type="curve" smooth="yes"/>
      <point x="140" y="631"/>
      <point x="167" y="604"/>
      <point x="167" y="558" type="curve" smooth="yes"/>
      <point x="167" y="497"/>
      <point x="109" y="440"/>
      <point x="67" y="401" type="curve"/>
    </contour>
  </outline>
</glyph>
<glyph name="guilsinglleft" format="2">
  <advance width="209"/>
  <unicode hex="2039"/>
  <outline>
    <contour>
      <point x="34" y="190" type="line" smooth="yes"/>
      <point x="31" y="194"/>
      <point x="30" y="198"/>
      <point x="30" y="203" type="curve" smooth="yes"/>
      <point x="30" y="207"/>
      <point x="31" y="213"/>
      <point x="34" y="216" type="curve" smooth="yes"/>
      <point x="162" y="370" type="line"/>
      <point x="179" y="355" type="line"/>
      <point x="111" y="217" type="line" smooth="yes"/>
      <point x="109" y="213"/>
      <point x="108" y="207"/>
      <point x="108" y="203" type="curve" smooth="yes"/>
      <point x="108" y="198"/>
      <point x="109" y="193"/>
      <point x="111" y="188" type="curve" smooth="yes"/>
      <point x="179" y="48" type="line"/>
      <point x="162" y="35" type="line"/>
    </contour>
  </outline>
</glyph>
